<svg width="3855" height="1244" viewBox="0 0 3855 1244" fill="none" xmlns="http://www.w3.org/2000/svg">
<path d="M81.9055 1149.16C96.8356 1158.46 109.055 1160.61 153.946 1114.24C218.729 1047.33 226.8 992.607 241.741 942.94C255.436 897.404 272.085 879.803 272.085 879.803C272.085 879.803 291.724 887.757 307.694 896.706C328.866 908.575 348.455 923.045 380.237 938.963C412.668 955.202 454.349 964.25 505.328 939.669C537.633 924.094 588.597 860.052 611.496 812.146C627.305 779.071 624.849 723.42 607.06 677.625" stroke="white" stroke-width="23.617" stroke-miterlimit="1.5" stroke-linecap="round" stroke-linejoin="round"/>
<path d="M758.191 511.787C767.172 505.923 781.138 493.518 787.093 483.246" stroke="white" stroke-width="23.617" stroke-miterlimit="1.5" stroke-linecap="round" stroke-linejoin="bevel"/>
<path d="M204.631 637.5C175.864 627.666 142.877 629.289 118.226 668.343C101.034 695.562 113.346 725.645 127.131 743.473C136.052 755.014 163.727 777.921 203.536 757.307C231.197 742.983 236.487 720.065 242.102 684.166C246.971 653.031 275.039 605.802 311.276 586.639C355.569 563.21 393.461 557.208 467.125 546.405C537.33 536.105 589.178 529.657 647.964 507.204C692.86 490.043 764.463 442.425 801.578 412.244" stroke="white" stroke-width="23.617" stroke-miterlimit="1.5" stroke-linecap="round" stroke-linejoin="bevel"/>
<path d="M726.487 468.209C736.773 490.31 747.295 520.13 803.156 557.985" stroke="white" stroke-width="23.617" stroke-miterlimit="1.5" stroke-linecap="round" stroke-linejoin="bevel"/>
<path d="M835.176 476.79C844.241 470.018 856.304 461.719 863.04 451.23" stroke="white" stroke-width="23.6212" stroke-miterlimit="1.5" stroke-linecap="round" stroke-linejoin="bevel"/>
<path d="M877.523 486.96C869.383 497.997 852.529 521.847 838.201 493.056C823.874 464.264 821.808 449.77 821.079 446.99C820.35 444.21 838.873 433.097 846.437 416.515" stroke="white" stroke-width="23.6212" stroke-miterlimit="1.5" stroke-linecap="round" stroke-linejoin="bevel"/>
<path d="M890.252 318.839C873.961 301.93 598.612 112.667 575.481 117.257C566.903 118.971 535.787 155.709 567.396 220.066C602.41 291.355 690.588 358.714 809.793 363.653C919.419 368.186 924.492 346.494 1039.53 378.383C1118.86 400.368 1158.56 471.127 1149.53 509.093C1145.16 527.408 1135.91 545.243 1110.46 561.807C1091.55 574.111 1060.62 587.369 1032.3 590.871C994.769 595.511 961.745 597.143 939.036 588.999C912.992 579.654 893.738 558.823 878.622 535.212" stroke="white" stroke-width="23.617" stroke-miterlimit="1.5" stroke-linecap="round" stroke-linejoin="bevel"/>
<path d="M651.45 650.176C658.903 671.37 664.019 707.296 665.206 713.892C666.394 720.488 673.641 727.156 683.291 725.15C696.441 722.412 703.332 715.02 706.147 703.637C708.963 692.254 701.915 651.807 694.237 630.137" stroke="white" stroke-width="23.617" stroke-miterlimit="1.5" stroke-linecap="round" stroke-linejoin="bevel"/>
<path d="M733.472 623.445C746.416 615.614 754.09 611.416 765.269 606.397C776.294 601.44 798.593 590.106 811.348 603.275" stroke="white" stroke-width="23.617" stroke-miterlimit="1.5" stroke-linecap="round" stroke-linejoin="bevel"/>
<path d="M764.529 611.301C771.39 626.223 780.285 664.536 776.973 687" stroke="white" stroke-width="23.617" stroke-miterlimit="1.5" stroke-linecap="round" stroke-linejoin="bevel"/>
<path d="M649.043 780.464C688.47 789.852 748.43 730.61 808.435 719.979C844.183 713.654 914.562 730.085 961.525 740.175C1000.5 748.556 1035.25 737.958 1083.19 742.173C1135.24 746.753 1166.64 771.734 1192.23 771.897C1208.37 771.994 1214.09 752.908 1212.79 736.299C1211.48 719.691 1194.9 708.365 1175.18 698.596C1155.47 688.837 1138.03 688.109 1117.5 679.678C1109.74 676.49 1085.42 666.474 1069.85 661.452C1054.28 656.431 1017.94 656.439 1017.94 656.439" stroke="white" stroke-width="23.617" stroke-miterlimit="1.5" stroke-linecap="round" stroke-linejoin="bevel"/>
<path d="M1390.91 1149.16C1405.84 1158.46 1418.06 1160.61 1462.95 1114.24C1527.73 1047.33 1535.8 992.607 1550.74 942.94C1564.44 897.404 1581.09 879.803 1581.09 879.803C1581.09 879.803 1600.72 887.757 1616.69 896.706C1637.87 908.575 1657.45 923.045 1689.24 938.963C1721.67 955.202 1763.35 964.25 1814.33 939.669C1846.63 924.094 1897.6 860.052 1920.5 812.146C1936.3 779.071 1933.85 723.42 1916.06 677.625" stroke="white" stroke-width="23.617" stroke-miterlimit="1.5" stroke-linecap="round" stroke-linejoin="round"/>
<path d="M2067.19 511.787C2076.17 505.923 2090.14 493.518 2096.09 483.246" stroke="white" stroke-width="23.617" stroke-miterlimit="1.5" stroke-linecap="round" stroke-linejoin="bevel"/>
<path d="M1513.63 637.5C1484.86 627.666 1451.88 629.289 1427.23 668.343C1410.03 695.562 1422.35 725.645 1436.13 743.473C1445.05 755.014 1472.73 777.921 1512.54 757.307C1540.2 742.983 1545.49 720.065 1551.1 684.166C1555.97 653.031 1584.04 605.802 1620.28 586.639C1664.57 563.21 1702.46 557.208 1776.13 546.405C1846.33 536.105 1898.18 529.657 1956.96 507.204C2001.86 490.043 2073.46 442.425 2110.58 412.244" stroke="white" stroke-width="23.617" stroke-miterlimit="1.5" stroke-linecap="round" stroke-linejoin="bevel"/>
<path d="M2035.49 468.209C2045.77 490.31 2056.29 520.13 2112.16 557.985" stroke="white" stroke-width="23.617" stroke-miterlimit="1.5" stroke-linecap="round" stroke-linejoin="bevel"/>
<path d="M2144.18 476.79C2153.24 470.018 2165.3 461.719 2172.04 451.23" stroke="white" stroke-width="23.6212" stroke-miterlimit="1.5" stroke-linecap="round" stroke-linejoin="bevel"/>
<path d="M2186.52 486.96C2178.38 497.997 2161.53 521.847 2147.2 493.056C2132.87 464.264 2130.81 449.77 2130.08 446.99C2129.35 444.21 2147.87 433.097 2155.44 416.515" stroke="white" stroke-width="23.6212" stroke-miterlimit="1.5" stroke-linecap="round" stroke-linejoin="bevel"/>
<path d="M2199.25 318.839C2182.96 301.93 1907.61 112.667 1884.48 117.257C1875.9 118.971 1844.79 155.709 1876.4 220.066C1911.41 291.355 1999.59 358.714 2118.79 363.653C2228.42 368.186 2233.49 346.494 2348.53 378.383C2427.86 400.368 2467.56 471.127 2458.53 509.093C2454.16 527.408 2444.91 545.243 2419.46 561.807C2400.55 574.111 2369.62 587.369 2341.3 590.871C2303.77 595.511 2270.75 597.143 2248.04 588.999C2221.99 579.654 2202.74 558.823 2187.62 535.212" stroke="white" stroke-width="23.617" stroke-miterlimit="1.5" stroke-linecap="round" stroke-linejoin="bevel"/>
<path d="M1960.45 650.176C1967.9 671.37 1973.02 707.296 1974.21 713.892C1975.39 720.488 1982.64 727.156 1992.29 725.15C2005.44 722.412 2012.33 715.02 2015.15 703.637C2017.96 692.254 2010.91 651.807 2003.24 630.137" stroke="white" stroke-width="23.617" stroke-miterlimit="1.5" stroke-linecap="round" stroke-linejoin="bevel"/>
<path d="M2042.47 623.445C2055.42 615.614 2063.09 611.416 2074.27 606.397C2085.29 601.44 2107.59 590.106 2120.35 603.275" stroke="white" stroke-width="23.617" stroke-miterlimit="1.5" stroke-linecap="round" stroke-linejoin="bevel"/>
<path d="M2073.53 611.301C2080.39 626.223 2089.28 664.536 2085.97 687" stroke="white" stroke-width="23.617" stroke-miterlimit="1.5" stroke-linecap="round" stroke-linejoin="bevel"/>
<path d="M1958.04 780.464C1997.47 789.852 2057.43 730.61 2117.44 719.979C2153.18 713.654 2223.56 730.085 2270.52 740.175C2309.5 748.556 2344.25 737.958 2392.19 742.173C2444.24 746.753 2475.64 771.734 2501.23 771.897C2517.37 771.994 2523.09 752.908 2521.79 736.299C2520.48 719.691 2503.9 708.365 2484.18 698.596C2464.47 688.837 2447.03 688.109 2426.5 679.678C2418.74 676.49 2394.42 666.474 2378.85 661.452C2363.28 656.431 2326.94 656.439 2326.94 656.439" stroke="white" stroke-width="23.617" stroke-miterlimit="1.5" stroke-linecap="round" stroke-linejoin="bevel"/>
<path d="M2699.91 1149.16C2714.84 1158.46 2727.06 1160.61 2771.95 1114.24C2836.73 1047.33 2844.8 992.607 2859.74 942.94C2873.44 897.404 2890.09 879.803 2890.09 879.803C2890.09 879.803 2909.72 887.757 2925.69 896.706C2946.87 908.575 2966.45 923.045 2998.24 938.963C3030.67 955.202 3072.35 964.25 3123.33 939.669C3155.63 924.094 3206.6 860.052 3229.5 812.146C3245.3 779.071 3242.85 723.42 3225.06 677.625" stroke="white" stroke-width="23.617" stroke-miterlimit="1.5" stroke-linecap="round" stroke-linejoin="round"/>
<path d="M3376.19 511.787C3385.17 505.923 3399.14 493.518 3405.09 483.246" stroke="white" stroke-width="23.617" stroke-miterlimit="1.5" stroke-linecap="round" stroke-linejoin="bevel"/>
<path d="M2822.63 637.5C2793.86 627.666 2760.88 629.289 2736.23 668.343C2719.03 695.562 2731.35 725.645 2745.13 743.473C2754.05 755.014 2781.73 777.921 2821.54 757.307C2849.2 742.983 2854.49 720.065 2860.1 684.166C2864.97 653.031 2893.04 605.802 2929.28 586.639C2973.57 563.21 3011.46 557.208 3085.13 546.405C3155.33 536.105 3207.18 529.657 3265.96 507.204C3310.86 490.043 3382.46 442.425 3419.58 412.244" stroke="white" stroke-width="23.617" stroke-miterlimit="1.5" stroke-linecap="round" stroke-linejoin="bevel"/>
<path d="M3344.49 468.209C3354.77 490.31 3365.29 520.13 3421.16 557.985" stroke="white" stroke-width="23.617" stroke-miterlimit="1.5" stroke-linecap="round" stroke-linejoin="bevel"/>
<path d="M3453.18 476.79C3462.24 470.018 3474.3 461.719 3481.04 451.23" stroke="white" stroke-width="23.6212" stroke-miterlimit="1.5" stroke-linecap="round" stroke-linejoin="bevel"/>
<path d="M3495.52 486.96C3487.38 497.997 3470.53 521.847 3456.2 493.056C3441.87 464.264 3439.81 449.77 3439.08 446.99C3438.35 444.21 3456.87 433.097 3464.44 416.515" stroke="white" stroke-width="23.6212" stroke-miterlimit="1.5" stroke-linecap="round" stroke-linejoin="bevel"/>
<path d="M3508.25 318.839C3491.96 301.93 3216.61 112.667 3193.48 117.257C3184.9 118.971 3153.79 155.709 3185.4 220.066C3220.41 291.355 3308.59 358.714 3427.79 363.653C3537.42 368.186 3542.49 346.494 3657.53 378.383C3736.86 400.368 3776.56 471.127 3767.53 509.093C3763.16 527.408 3753.91 545.243 3728.46 561.807C3709.55 574.111 3678.62 587.369 3650.3 590.871C3612.77 595.511 3579.75 597.143 3557.04 588.999C3530.99 579.654 3511.74 558.823 3496.62 535.212" stroke="white" stroke-width="23.617" stroke-miterlimit="1.5" stroke-linecap="round" stroke-linejoin="bevel"/>
<path d="M3269.45 650.176C3276.9 671.37 3282.02 707.296 3283.21 713.892C3284.39 720.488 3291.64 727.156 3301.29 725.15C3314.44 722.412 3321.33 715.02 3324.15 703.637C3326.96 692.254 3319.91 651.807 3312.24 630.137" stroke="white" stroke-width="23.617" stroke-miterlimit="1.5" stroke-linecap="round" stroke-linejoin="bevel"/>
<path d="M3351.47 623.445C3364.42 615.614 3372.09 611.416 3383.27 606.397C3394.29 601.44 3416.59 590.106 3429.35 603.275" stroke="white" stroke-width="23.617" stroke-miterlimit="1.5" stroke-linecap="round" stroke-linejoin="bevel"/>
<path d="M3382.53 611.301C3389.39 626.223 3398.28 664.536 3394.97 687" stroke="white" stroke-width="23.617" stroke-miterlimit="1.5" stroke-linecap="round" stroke-linejoin="bevel"/>
<path d="M3267.04 780.464C3306.47 789.852 3366.43 730.61 3426.44 719.979C3462.18 713.654 3532.56 730.085 3579.52 740.175C3618.5 748.556 3653.25 737.958 3701.19 742.173C3753.24 746.753 3784.64 771.734 3810.23 771.897C3826.37 771.994 3832.09 752.908 3830.79 736.299C3829.48 719.691 3812.9 708.365 3793.18 698.596C3773.47 688.837 3756.03 688.109 3735.5 679.678C3727.74 676.49 3703.42 666.474 3687.85 661.452C3672.28 656.431 3635.94 656.439 3635.94 656.439" stroke="white" stroke-width="23.617" stroke-miterlimit="1.5" stroke-linecap="round" stroke-linejoin="bevel"/>
</svg>
