<?xml version="1.0" encoding="UTF-8" standalone="no"?>
<!DOCTYPE svg PUBLIC "-//W3C//DTD SVG 1.1//EN" "http://www.w3.org/Graphics/SVG/1.1/DTD/svg11.dtd">
<svg width="100%" height="100%" viewBox="0 0 1182 1182" version="1.1" xmlns="http://www.w3.org/2000/svg" xmlns:xlink="http://www.w3.org/1999/xlink" xml:space="preserve" xmlns:serif="http://www.serif.com/" style="fill-rule:evenodd;clip-rule:evenodd;stroke-linejoin:round;stroke-miterlimit:2;">
    <g transform="matrix(1,0,0,1,-3081,-1008.6)">
        <g id="Artboard6" transform="matrix(3.17665,0,0,2.99013,-32729.4,-14964.7)">
            <rect x="11273" y="5342" width="371.807" height="395" style="fill:none;"/>
            <g>
                <g transform="matrix(0.532521,0,0,0.913266,-811.158,2874.18)">
                    <path d="M23038.4,2990.62L23014,2990.62L23014,3031C23014,3032.68 23011.7,3034.05 23009,3034.05L22951.4,3034.05C22948.7,3034.05 22946.5,3032.68 22946.5,3031C22946.5,3031 22946.5,2990.62 22946.5,2990.62L22866,2990.62C22863.2,2990.62 22861,2989.25 22861,2987.56L22861,2944.56C22861,2944.15 22861.2,2943.74 22861.4,2943.36L22940.2,2829.13C22940.9,2828 22942.7,2827.27 22944.7,2827.27L23009,2827.27C23011.7,2827.27 23014,2828.64 23014,2830.33L23014,2941.51L23038.4,2941.51C23041.2,2941.51 23043.4,2942.88 23043.4,2944.56L23043.4,2987.56C23043.4,2989.25 23041.2,2990.62 23038.4,2990.62ZM23033.5,2984.51L23033.5,2947.61L23009,2947.61C23006.3,2947.61 23004.1,2946.25 23004.1,2944.56L23004.1,2833.38L22947.9,2833.38L22870.9,2945.19C22870.9,2945.19 22870.9,2984.51 22870.9,2984.51L22951.4,2984.51C22954.2,2984.51 22956.4,2985.88 22956.4,2987.56L22956.4,3027.95L23004.1,3027.95L23004.1,2987.56C23004.1,2985.88 23006.3,2984.51 23009,2984.51L23033.5,2984.51ZM22951.4,2947.61L22911.8,2947.61C22910.2,2947.61 22908.7,2947.1 22907.8,2946.26C22906.8,2945.41 22906.7,2944.33 22907.3,2943.39L22946.9,2884.36C22947.8,2883.01 22950.1,2882.25 22952.4,2882.54C22954.7,2882.82 22956.4,2884.07 22956.4,2885.53L22956.4,2944.56C22956.4,2946.25 22954.2,2947.61 22951.4,2947.61ZM22946.5,2941.51L22946.5,2900.83L22919.2,2941.51L22946.5,2941.51Z" style="fill:white;"/>
                    <path d="M23044.9,2967.62L23099.4,2961.25C23100.7,2961.1 23102.1,2961.29 23103.2,2961.79C23104.3,2962.29 23105,2963.04 23105.2,2963.88C23106.5,2970.68 23108.8,2976.12 23112.2,2980.2C23116.5,2985.5 23122.7,2988.28 23130.9,2988.28C23137,2988.28 23142,2986.78 23145.8,2983.79C23150,2980.5 23151.9,2976.05 23151.9,2970.48C23151.9,2966.75 23150.8,2963.46 23148.5,2960.62C23146.4,2957.95 23144.2,2956.02 23141.7,2954.94C23139.3,2953.89 23135.1,2953.55 23129.3,2953.55L23103.8,2953.55C23101.1,2953.55 23098.9,2952.18 23098.9,2950.5L23098.9,2909.23C23098.9,2907.55 23101.1,2906.18 23103.8,2906.18L23125.3,2906.18C23134.3,2906.18 23140.4,2905.08 23143,2902.03C23145.9,2898.62 23147.3,2895.09 23147.3,2891.43C23147.3,2886.94 23145.6,2883.18 23142.1,2880.19C23139,2877.57 23135,2876.23 23130,2876.23C23123.3,2876.23 23118.3,2878.47 23114.7,2882.73C23111.8,2886.08 23109.9,2890.57 23108.7,2896.16C23108.5,2897.02 23107.8,2897.79 23106.6,2898.28C23105.5,2898.77 23104,2898.94 23102.7,2898.74L23052.1,2891.21C23049.6,2890.84 23048,2889.35 23048.4,2887.78C23053.2,2868.54 23063.4,2853.74 23078.8,2843.32C23094.7,2832.6 23113.5,2827.27 23135.2,2827.27C23159.7,2827.27 23179.3,2832.72 23194.1,2843.55C23208.7,2854.19 23216.1,2868.34 23216.1,2886.07C23216.1,2896.71 23213,2905.98 23206.8,2913.89C23202.1,2919.93 23196.4,2924.48 23189.8,2927.62C23211.4,2936.11 23222.6,2951.58 23222.6,2974.24C23222.6,2994.06 23214.4,3009.41 23198.4,3020.38C23182.2,3031.5 23161.2,3037.09 23135.4,3037.09C23084.3,3037.09 23052.4,3015.35 23040.9,2971.11C23040.5,2969.47 23042.2,2967.93 23044.9,2967.62ZM23051.4,2973.07C23062.4,3011.45 23090,3030.99 23135.4,3030.99C23158.2,3030.99 23176.8,3026.11 23191.1,3016.29C23205.6,3006.31 23212.7,2992.27 23212.7,2974.24C23212.7,2951.99 23201.4,2937.32 23177.9,2930.53C23176.1,2930.03 23175,2928.95 23175,2927.76C23175,2926.58 23176.1,2925.5 23177.9,2925C23186.1,2922.65 23192.7,2918.01 23198,2911.24C23203.5,2904.09 23206.3,2895.69 23206.3,2886.07C23206.3,2870.01 23199.8,2857.14 23186.6,2847.5C23173.7,2838.06 23156.5,2833.38 23135.2,2833.38C23116.3,2833.38 23099.9,2838.09 23086.1,2847.45C23072.6,2856.6 23063.6,2869.44 23058.9,2885.94C23058.9,2885.94 23099.8,2892.03 23099.8,2892.03C23104.1,2877.14 23114.8,2870.13 23130,2870.13C23138.3,2870.13 23145,2872.27 23150.1,2876.6C23154.7,2880.56 23157.2,2885.49 23157.2,2891.43C23157.2,2896.06 23155.3,2900.54 23151.7,2904.86C23147.7,2909.53 23139.1,2912.28 23125.3,2912.28L23108.8,2912.28C23108.8,2912.28 23108.8,2947.45 23108.8,2947.45L23129.3,2947.45C23137.9,2947.45 23143.9,2948.41 23147.4,2949.97C23150.9,2951.49 23154.3,2954.1 23157.3,2957.9C23160.3,2961.52 23161.8,2965.71 23161.8,2970.48C23161.8,2977.65 23158.9,2983.33 23153.5,2987.57C23147.7,2992.12 23140.2,2994.38 23130.9,2994.38C23113.1,2994.38 23100.8,2985.85 23096.2,2967.84L23051.4,2973.07Z" style="fill:white;"/>
                </g>
                <g transform="matrix(0.188009,0,0,0.122095,6946.58,5285.89)">
                    <path d="M23897,867.356L23681.4,866.013L23681.4,1708.66L23498,1708.66L23296.2,814.592L23296.2,1405.94L23364.6,1405.94L23364.6,1708.66L23040.3,1708.66C23027,1607.76 23018.3,1506.85 23015.2,1405.94L23132,1405.94L23135.4,873.534L23069.5,868.579C23094.3,778.492 23127.1,698.885 23167.8,632.306C23217.8,550.616 23279.8,497.769 23348,474.044L23567.3,1367.79L23567.3,866.013L23498,866.013L23413.9,460.32C23574.3,448.164 23757,582.804 23897,867.356ZM23968.5,1036.6L23966.5,1236.53L23966.5,1618.87C23966.5,1724.48 23983.8,1777.28 24018.3,1777.28C24029.9,1777.28 24047.9,1762.9 24047.9,1762.9L24037.1,1855.44L24177.3,1916.05C24177.3,1916.05 24191.3,1846.45 24202.5,1788.78L24203.4,1864.37L24195.5,1948.96C24175.6,2047.94 24111.6,2191.74 24003.4,2191.74C23967.7,2191.74 23910.5,2158.67 23910.5,2158.67C23910.5,2158.67 23905.7,1557.45 23905.7,1435.8L23798.9,1435.8L23798.9,1236.53L23709.9,1236.53L23708.3,891.716L23909.6,893.43C23930.3,937.734 23950,985.455 23968.5,1036.6ZM24263.1,624.404L24263.1,1236.53L24202.5,1236.53L24202.5,1452.41C24199,1452.84 24182.5,1462.61 24179,1464.53C24168.3,1470.42 24115.9,1538.93 24097.5,1583.78C24094.1,1591.98 24089.7,1598.87 24086.1,1606.75C24082.6,1614.38 24079.6,1622.5 24076.9,1630.88C24077,1625.11 24077.1,1619.17 24077.1,1613.06L24077.1,1236.53L24038.5,1236.53L24037.1,1036.84C24036.3,1034.66 24038.5,1024.32 24043.1,1007.95C24105.9,842.511 24182,714.792 24263.1,624.404ZM24984.8,1510.79C24980.9,1573.41 24974.9,1639.26 24965.8,1708.66L24472.8,1708.66C24434,1531.02 24368.3,1428.2 24263.1,1435.8L24263.1,1405.94L24489.9,1405.94L24489.9,866.013L24409.2,866.013L24409.2,1076.68L24307.4,1076.68L24303.4,582.832C24493.8,402.641 24703.7,420.733 24833.2,632.306C24903,746.456 24949.4,898.902 24972.4,1076.8L24734.7,1076.68L24734.7,866.013L24657.5,866.013L24657.5,1405.94L24988.8,1404.87C24988.2,1439.66 24986.8,1474.99 24984.8,1510.79ZM24001.8,3693.1C23920.1,3605.16 23843.6,3512.22 23770,3416.38L23770,3069.61L23827.9,3069.61L23827.9,2922.13L23909.2,2928.19L23910.8,2607.03C23945.7,2610 23989.2,2603.94 23989.2,2603.94L23992.7,2294.85C23986,2287.34 23907,2293.16 23912.4,2286.48L23912.6,2240.22L24177.9,2240.22L24179,2328.18L24251.7,2325.61L24251.7,2633.05C24211.7,2614.66 24182.6,2556.08 24170.3,2434.24L24013.6,2482.73L24013,2520.13L23995.5,2529.68L23995.5,2732.88L24142,2732.88L24142,2848.99L23995.5,2848.99L23995.5,3069.61L24113,3069.61L24113,2904.56L24263.1,2904.56L24263.1,3379.86C24204.8,3458.35 24144.3,3530.84 24082.1,3603.24C24055,3634.34 24028.2,3664.32 24001.8,3693.1ZM23642.8,1772.72L23572.3,2035.71L23479,2035.71L23479,2329.15L23626.3,2329.15L23628,2516.83L23479,2516.83L23479,2704.31L23663.2,2711.23L23669.9,3281.53C23587.8,3195.69 23426.3,2927.71 23321.6,2714.03L23378.5,2714.03L23370.2,2045.2L23095.6,2045.2C23091.3,2044.3 23048.7,1810.12 23048.4,1767.49L23642.8,1772.72ZM24954.1,1795.37C24931.3,1932.91 24904.7,2064.78 24870.4,2191.56L24584.6,2191.56L24582,2161.7C24578.5,2110.28 24563.3,2084.57 24536.4,2084.57C24503.6,2084.57 24487.2,2104.2 24487.2,2143.45C24487.2,2188.24 24515.6,2227.22 24572.3,2260.4C24661.8,2313.48 24729,2357.72 24743,2405.95C24794.4,2583.7 24535.7,3051.38 24472.3,2844.28L24472.3,3082.06C24422.6,3159.94 24372.6,3233.36 24322.3,3301.2L24322.3,2494.28L24472.3,2494.28L24472.3,2510.87C24472.3,2585.51 24493.1,2622.84 24534.6,2622.84C24573.2,2622.84 24592.5,2596.57 24592.5,2544.05C24592.5,2489.86 24570.6,2448.67 24526.7,2420.47L24439,2363.24C24351.2,2306.29 24307.4,2212.57 24307.4,2082.08C24307.4,1876.39 24360.9,1773.55 24467.9,1773.55C24521.2,1773.55 24563.3,1806.45 24594.3,1872.25L24594.3,1792.63L24954.1,1795.37Z" style="fill:white;"/>
                </g>
            </g>
        </g>
    </g>
</svg>
