<?xml version="1.0" encoding="UTF-8" standalone="no"?>
<!DOCTYPE svg PUBLIC "-//W3C//DTD SVG 1.1//EN" "http://www.w3.org/Graphics/SVG/1.1/DTD/svg11.dtd">
<svg width="100%" height="100%" viewBox="0 0 1160 741" version="1.1" xmlns="http://www.w3.org/2000/svg" xmlns:xlink="http://www.w3.org/1999/xlink" xml:space="preserve" xmlns:serif="http://www.serif.com/" style="fill-rule:evenodd;clip-rule:evenodd;stroke-linecap:round;stroke-linejoin:round;">
    <g transform="matrix(1,0,0,1,-3007,-153)">
        <g id="アートボード4" transform="matrix(1,0,0,1,-0.361233,87.9604)">
            <rect x="3007.36" y="65.04" width="1159.96" height="740.496" style="fill:none;"/>
            <clipPath id="_clip1">
                <rect x="3007.36" y="65.04" width="1159.96" height="740.496"/>
            </clipPath>
            <g clip-path="url(#_clip1)">
                <g id="following-step03.svg" transform="matrix(4.16667,0,0,4.16667,3587.7,435.327)">
                    <g transform="matrix(1,0,0,1,-139.196,-88.8595)">
                        <clipPath id="_clip2">
                            <rect x="0" y="0" width="278.391" height="177.719"/>
                        </clipPath>
                        <g clip-path="url(#_clip2)">
                            <g>
                                <g transform="matrix(1,0,0,1,-0.0240796,0.0136818)">
                                    <path d="M16.419,112.961C16.419,112.961 -27.156,74.761 27.773,56.71C55.165,47.714 61.603,43.086 82.902,25.668C113.37,0.719 153.294,-13.682 205.204,30.295C257.114,74.272 296.291,87.897 262.116,114.254C223.686,143.888 247.083,159.122 242.254,167.486C240.961,169.7 232.855,160.214 214.977,169.987C174.248,192.263 153.524,158.375 123.574,166.825C95.319,174.816 80.804,157.168 71.606,164.066C57.895,174.356 49.301,174.212 44.156,171.51C39.845,169.24 37.315,164.555 37.517,159.64C37.746,154.063 37.775,143.601 35.533,135.984C32.142,124.487 23.835,118.623 16.419,112.961Z" style="fill:rgb(255,142,86);fill-rule:nonzero;"/>
                                </g>
                                <path d="M16.908,113.421C16.908,113.421 -27.098,74.416 28.376,55.963C56.027,46.765 62.523,42.051 84.023,24.23C114.778,-1.236 155.076,-15.981 207.446,28.944C259.816,73.87 300.66,89.592 264.875,114.743C240.098,132.161 248.491,123.653 240.788,129.632C224.405,142.279 187.153,118.508 156.916,127.16C128.402,135.294 100.665,123.136 88.277,122.302C83.362,121.986 63.558,121.9 53.584,121.382C48.008,121.095 41.857,123.538 34.096,121.699C22.426,118.91 24.41,119.198 16.908,113.421Z" style="fill:rgb(255,201,123);fill-rule:nonzero;"/>
                                <g id="books">
                                    <path d="M64.19,40.902L49.905,50.53C49.704,50.645 49.387,48.605 49.186,48.691L39.471,52.428L39.356,122.245L100.148,121.497L99.688,26.875L81.177,27.019L64.19,40.902Z" style="fill:rgb(233,237,251);fill-rule:nonzero;"/>
                                    <path d="M59.476,43.172L44.587,50.473L44.559,52.428L94.141,52.14L93.939,34.291L72.554,34.003L67.783,37.654C66.95,38.286 65.915,38.976 64.621,39.838C62.466,41.246 61.172,42.195 59.476,43.172Z" style="fill:rgb(176,192,244);fill-rule:nonzero;"/>
                                    <path d="M44.587,55.331L44.587,72.95L94.227,72.864L94.227,55.331L44.587,55.331Z" style="fill:rgb(176,192,244);fill-rule:nonzero;"/>
                                    <path d="M44.731,76.112L44.731,93.731L94.342,93.616L94.371,76.112L44.731,76.112Z" style="fill:rgb(176,192,244);fill-rule:nonzero;"/>
                                    <path d="M44.99,97.181L44.99,114.8L94.629,114.714L94.629,97.181L44.99,97.181Z" style="fill:rgb(176,192,244);fill-rule:nonzero;"/>
                                    <path d="M61.862,86.115L64.19,83.068L72.842,90.771L70.657,93.904L61.862,86.115Z" style="fill:white;fill-rule:nonzero;"/>
                                    <path d="M44.702,79.532L50.307,79.561L50.336,93.76L44.731,93.703L44.702,79.532Z" style="fill:white;fill-rule:nonzero;"/>
                                    <path d="M56.947,81.947L59.246,80.653L65.081,92.323L62.811,93.875L56.947,81.947Z" style="fill:rgb(245,245,252);fill-rule:nonzero;"/>
                                    <path d="M54.245,77.98L56.976,77.98L57.033,93.818L54.245,93.731L54.245,77.98Z" style="fill:white;fill-rule:nonzero;"/>
                                    <path d="M50.336,82.809L54.303,82.895L54.245,93.789L50.279,93.703L50.336,82.809Z" style="fill:rgb(245,245,252);fill-rule:nonzero;"/>
                                    <path d="M72.066,79.504L77.642,79.532L77.699,93.731L72.066,93.645L72.066,79.504Z" style="fill:white;fill-rule:nonzero;"/>
                                    <path d="M81.609,77.951L84.31,77.951L84.397,93.76L81.58,93.703L81.609,77.951Z" style="fill:white;fill-rule:nonzero;"/>
                                    <path d="M77.699,82.78L81.666,82.838L81.58,93.731L77.613,93.674L77.699,82.78Z" style="fill:rgb(245,245,252);fill-rule:nonzero;"/>
                                    <path d="M44.99,98.647L49.273,98.675L49.301,114.944L45.019,114.858L44.99,98.647Z" style="fill:white;fill-rule:nonzero;"/>
                                    <path d="M49.273,101.09L52.176,101.061L52.089,114.886L49.215,114.858L49.273,101.09Z" style="fill:rgb(245,245,252);fill-rule:nonzero;"/>
                                    <path d="M52.176,103.935L56.113,103.993L56.027,114.886L52.061,114.829L52.176,103.935Z" style="fill:white;fill-rule:nonzero;"/>
                                    <path d="M76.32,50.042L76.32,52.083L92.186,52.198L92.186,50.042L76.32,50.042Z" style="fill:rgb(245,245,252);fill-rule:nonzero;"/>
                                    <path d="M76.291,48.432L76.349,50.071L86.696,50.128L86.61,48.375L76.291,48.432Z" style="fill:white;fill-rule:nonzero;"/>
                                    <path d="M44.616,58.751L50.221,58.78L50.25,72.979L44.616,72.893L44.616,58.751Z" style="fill:white;fill-rule:nonzero;"/>
                                    <path d="M88.219,61.022L85.863,59.728L79.798,71.398L82.183,72.921L88.219,61.022Z" style="fill:rgb(245,245,252);fill-rule:nonzero;"/>
                                    <path d="M91.554,57.055L94.284,57.055L94.342,72.864L91.554,72.806L91.554,57.055Z" style="fill:white;fill-rule:nonzero;"/>
                                    <path d="M87.817,61.97L91.784,62.028L91.726,72.921L87.76,72.864L87.817,61.97Z" style="fill:rgb(245,245,252);fill-rule:nonzero;"/>
                                    <path d="M61.115,70.881L61.115,72.921L76.981,73.036L76.981,70.881L61.115,70.881Z" style="fill:rgb(245,245,252);fill-rule:nonzero;"/>
                                    <path d="M63.587,69.214L63.673,70.852L74.02,70.909L73.934,69.156L63.587,69.214Z" style="fill:white;fill-rule:nonzero;"/>
                                </g>
                                <g id="flower">
                                    <path d="M214.287,142.451C214.287,142.451 209.516,148.085 213.425,148.229C217.334,148.372 225.353,152.914 226.877,148.861C228.4,144.808 231.475,142.767 229.607,142.307C227.739,141.848 226.043,139.95 222.105,140.267C218.167,140.583 214.287,142.451 214.287,142.451Z" style="fill:rgb(245,245,252);fill-rule:nonzero;"/>
                                    <path d="M213.051,115.059C213.051,115.059 210.809,115.289 210.809,118.077C210.809,120.865 212.246,144.837 217.707,145.325C221.243,145.642 225.008,145.613 226.877,145.44C227.681,145.354 228.457,142.94 228.601,141.963C229.32,137.191 230.239,125.579 230.441,118.824C230.469,117.445 229.55,115.634 229.061,115.174C226.33,112.673 213.051,115.059 213.051,115.059Z" style="fill:rgb(225,230,251);fill-rule:nonzero;"/>
                                    <path d="M239.466,68.667C238.604,67.863 237.397,68.955 237.856,70.076C238.288,71.168 238.604,73.036 236.85,75.048C234.149,78.181 224.405,88.759 224.52,95.571C224.635,102.383 222.508,104.28 224.52,106.867C226.532,109.454 234.637,109.368 236.764,103.849C238.891,98.33 244.266,96.117 244.151,88.242C244.036,80.366 243.116,76.917 242.139,74.215C241.564,72.519 240.587,69.731 239.466,68.667Z" style="fill:rgb(233,237,251);fill-rule:nonzero;"/>
                                    <path d="M224.721,114.053C224.721,114.053 225.583,101.722 235.212,96.347C241.248,92.984 241.651,81.314 240.213,78.67" style="fill:none;fill-rule:nonzero;stroke:white;stroke-width:0.86px;"/>
                                    <path d="M225.957,119.227C225.957,119.227 229.004,131.356 225.698,140.985" style="fill:rgb(186,197,244);fill-rule:nonzero;"/>
                                    <path d="M232.884,65.994C231.964,65.218 230.671,66.253 231.159,67.345C231.619,68.38 231.935,70.191 230.096,72.117C227.193,75.106 216.788,85.223 216.874,91.748C216.96,98.273 216.874,102.067 219.03,104.539C221.185,107.011 226.215,105.028 228.486,99.768C230.757,94.508 238.029,92.266 237.914,84.706C237.799,77.175 236.793,73.87 235.758,71.283C235.126,69.645 234.091,67 232.884,65.994Z" style="fill:rgb(186,197,244);fill-rule:nonzero;"/>
                                    <path d="M220.697,114.312C220.697,114.312 217.305,97.554 225.554,87.465C228.86,83.441 233.746,75.365 233.717,71.456" style="fill:none;fill-rule:nonzero;stroke:white;stroke-width:0.86px;"/>
                                    <path d="M207.159,68.667C207.992,67.863 209.199,68.955 208.768,70.076C208.337,71.168 208.05,73.036 209.774,75.048C212.447,78.181 222.105,88.759 222.019,95.571C221.933,102.383 222.019,106.35 220.007,108.965C217.995,111.581 213.367,109.483 211.269,103.964C209.171,98.445 202.445,96.117 202.531,88.242C202.617,80.366 203.566,76.917 204.514,74.215C205.089,72.519 206.038,69.731 207.159,68.667Z" style="fill:rgb(233,237,251);fill-rule:nonzero;"/>
                                    <path d="M217.995,114.599C217.995,114.599 221.875,99.365 214.23,89.305C211.183,85.281 206.268,79.302 206.325,75.422" style="fill:none;fill-rule:nonzero;stroke:white;stroke-width:0.86px;"/>
                                    <path d="M200.95,95.226C200.95,95.226 192.96,95.399 188.648,85.712C184.337,76.026 194.052,74.042 201.18,79.245C208.308,84.447 205.405,86.603 213.913,91.403C222.421,96.203 220.582,105.717 217.937,108.247C215.293,110.776 210.292,114.714 206.958,104.424C203.623,94.134 200.95,95.226 200.95,95.226Z" style="fill:rgb(176,192,244);fill-rule:nonzero;"/>
                                    <path d="M216.472,114.714C216.472,114.714 217.046,90.455 192.988,83.786" style="fill:none;fill-rule:nonzero;stroke:white;stroke-width:0.86px;"/>
                                    <path d="M213.051,115.059C213.051,115.059 222.852,113.478 226.675,114.312C230.498,115.145 219.921,116.122 219.921,116.122C219.921,116.122 214.862,116.352 213.051,115.059Z" style="fill:rgb(186,197,244);fill-rule:nonzero;"/>
                                </g>
                                <path d="M94.227,117.617C94.227,117.617 83.189,108.908 81.321,100.371C79.453,91.834 83.506,85.913 89.398,84.994C95.29,84.074 98.883,81.257 119.55,88.27C140.216,95.284 164.015,82.838 164.015,82.838C164.015,82.838 183.446,73.899 193.046,76.083C203.968,78.555 206.296,85.166 203.336,96.979C200.375,108.793 190.315,117.732 190.315,117.732L94.227,117.617Z" style="fill:rgb(186,197,244);fill-rule:nonzero;"/>
                                <path d="M89.226,116.697C89.226,116.697 87.501,116.697 87.213,118.422C86.926,120.146 87.501,125.608 88.363,127.332C89.226,129.057 93.278,128.971 93.278,128.971L191.839,128.769C191.839,128.769 195.115,128.798 195.863,126.183C196.466,124.084 197.329,121.986 197.415,120.52C197.501,118.796 196.265,117.301 194.569,117.071C193.506,116.927 192.413,116.87 191.35,116.87C183.848,116.87 89.226,116.697 89.226,116.697Z" style="fill:rgb(186,197,244);fill-rule:nonzero;"/>
                                <path d="M84.627,143.428L91.238,129.057L96.411,129.057L89.513,143.428L84.627,143.428Z" style="fill:white;fill-rule:nonzero;"/>
                                <path d="M186.377,129.057L192.413,143.716L196.725,143.428L190.976,129.057L186.377,129.057Z" style="fill:white;fill-rule:nonzero;"/>
                                <path d="M95.923,116.87C95.923,116.87 86.84,109.856 86.409,106.953C85.863,103.159 89.283,97.526 102.562,100.026C115.842,102.527 139.267,109.282 151.972,105.832C164.676,102.383 180.658,87.897 181.807,87.121C182.957,86.344 196.552,79.676 199.628,89.851C202.704,100.026 190.286,116.755 190.286,116.755L95.923,116.87Z" style="fill:rgb(176,192,244);fill-rule:nonzero;"/>
                                <path d="M140.101,0L140.475,19.459L140.934,19.373L141.337,0L140.101,0Z" style="fill:rgb(186,197,244);fill-rule:nonzero;"/>
                                <path d="M130.242,35.412C130.242,35.412 126.62,19.172 140.963,18.999C154.53,18.856 151.052,36.245 151.052,36.245L130.242,35.412Z" style="fill:rgb(186,197,244);fill-rule:nonzero;"/>
                                <path d="M130.098,35.412C130.098,35.412 141.624,30.41 151.052,36.188C151.052,36.188 141.136,41.448 130.098,35.412Z" style="fill:white;fill-rule:nonzero;"/>
                                <path d="M135.674,21.902C135.674,21.902 130.644,23.771 131.679,32.307" style="fill:white;fill-rule:nonzero;"/>
                                <path d="M130.098,35.412L119.923,72.002L161.543,71.599L151.052,36.188L130.098,35.412Z" style="fill:url(#_Linear3);fill-rule:nonzero;"/>
                            </g>
                            <g id="bag">
                                <path d="M200.979,132.621C200.979,132.621 197.788,144.204 198.306,145.498C198.823,146.791 201.41,147.05 202.56,147.309C203.71,147.567 214.143,150.298 215.207,150.356C216.27,150.413 216.184,150.557 216.644,150.557C217.104,150.557 222.91,148.602 223.111,147.912C223.312,147.223 223.485,146.763 223.312,145.9C223.14,145.038 220.496,134.001 219.777,133.771C219.058,133.541 200.979,132.621 200.979,132.621Z" style="fill:url(#_Linear4);fill-rule:nonzero;"/>
                                <path d="M200.433,134.69C200.433,134.69 200.663,132.88 200.979,132.621C201.295,132.362 202.186,131.184 203.048,131.126C203.911,131.069 217.794,132.822 218.311,132.937C218.828,133.052 219.518,133.311 219.748,133.742C219.978,134.173 217.736,134.69 217.305,136.07C216.874,137.45 208.941,140.353 206.986,140.554C205.032,140.755 200.433,134.69 200.433,134.69Z" style="fill:url(#_Linear5);fill-rule:nonzero;"/>
                                <path d="M204.974,131.586C204.974,131.586 206.469,128.338 207.187,127.735C207.82,127.189 210.091,126.01 211.47,127.763C213.022,129.747 212.879,132.046 212.879,132.334C212.879,132.621 211.355,132.362 211.355,132.362C211.355,132.362 211.844,130.005 211.413,129.201C211.01,128.453 210.78,127.562 209.343,127.648C207.906,127.735 207.389,128.539 206.958,129.287C206.584,130.034 206.296,130.81 206.038,131.615C205.98,131.701 204.974,131.586 204.974,131.586Z" style="fill:rgb(247,29,105);fill-rule:nonzero;"/>
                                <path d="M207.36,131.787C207.36,131.787 208.855,127.821 209.573,127.074C210.205,126.412 212.62,125.09 214,127.217C215.552,129.632 215.236,132.334 215.236,132.65C215.236,132.966 213.712,132.707 213.712,132.707C213.712,132.707 214.172,129.833 213.741,128.827C213.338,127.907 213.109,126.815 211.7,126.93C210.292,127.045 209.746,127.993 209.314,128.942C208.941,129.862 208.653,130.81 208.395,131.787C208.395,131.931 207.36,131.787 207.36,131.787Z" style="fill:rgb(247,29,105);fill-rule:nonzero;"/>
                                <path d="M216.701,136.875C216.701,136.875 215.379,147.999 215.552,148.746C215.724,149.493 216.155,150.557 216.472,150.557C216.788,150.557 217.305,150.499 217.104,150.241C216.443,149.292 216.155,148.114 216.328,146.993C216.529,145.182 217.305,136.07 217.305,136.07L216.701,136.875Z" style="fill:rgb(247,29,105);fill-rule:nonzero;"/>
                                <circle cx="206.641" cy="140.554" r="0.805" style="fill:white;"/>
                            </g>
                            <g id="Books">
                                <g id="Files">
                                    <path d="M67.467,48.289L73.819,48.289C73.877,48.289 73.934,48.346 73.934,48.403C73.934,48.461 73.877,48.518 73.819,48.518L67.467,48.518C67.409,48.518 67.352,48.461 67.352,48.403C67.352,48.346 67.409,48.289 67.467,48.289Z" style="fill:rgb(244,244,244);fill-rule:nonzero;"/>
                                    <path d="M67.467,48.691L73.819,48.691C73.877,48.691 73.934,48.748 73.934,48.806C73.934,48.863 73.877,48.921 73.819,48.921L67.467,48.921C67.409,48.921 67.352,48.863 67.352,48.806C67.352,48.72 67.409,48.691 67.467,48.691Z" style="fill:rgb(244,244,244);fill-rule:nonzero;"/>
                                    <path d="M67.467,49.065L73.819,49.065C73.877,49.065 73.934,49.122 73.934,49.18C73.934,49.237 73.877,49.295 73.819,49.295L67.467,49.295C67.409,49.295 67.352,49.237 67.352,49.18C67.352,49.122 67.409,49.065 67.467,49.065Z" style="fill:rgb(244,244,244);fill-rule:nonzero;"/>
                                    <path d="M68.933,50.301L74.739,50.301C74.796,50.301 74.854,50.358 74.854,50.416C74.854,50.473 74.796,50.53 74.739,50.53L68.933,50.53C68.875,50.53 68.818,50.473 68.818,50.416C68.818,50.358 68.847,50.301 68.933,50.301Z" style="fill:rgb(244,244,244);fill-rule:nonzero;"/>
                                    <path d="M68.933,50.674L74.739,50.674C74.796,50.674 74.854,50.732 74.854,50.789C74.854,50.847 74.796,50.904 74.739,50.904L68.933,50.904C68.875,50.904 68.818,50.847 68.818,50.789C68.818,50.732 68.847,50.674 68.933,50.674Z" style="fill:rgb(244,244,244);fill-rule:nonzero;"/>
                                    <path d="M68.933,51.077L74.739,51.077C74.796,51.077 74.854,51.134 74.854,51.192C74.854,51.249 74.796,51.307 74.739,51.307L68.933,51.307C68.875,51.307 68.818,51.249 68.818,51.192C68.818,51.105 68.847,51.077 68.933,51.077Z" style="fill:rgb(244,244,244);fill-rule:nonzero;"/>
                                </g>
                                <g id="book1">
                                    <path d="M58.93,47.886C58.93,47.886 58.068,47.944 58.068,48.806C58.068,49.668 58.959,49.697 58.959,49.697L74.078,49.726L74.078,49.467L67.323,49.467C67.323,49.467 67.122,49.496 67.151,49.18L67.151,48.289C67.151,48.174 67.237,48.087 67.323,48.087L67.352,48.087C67.668,48.087 73.963,48.174 73.963,48.174L73.963,47.829L58.93,47.886Z" style="fill:url(#_Linear6);fill-rule:nonzero;"/>
                                    <path d="M67.237,48.26L73.762,48.289" style="fill:none;fill-rule:nonzero;"/>
                                    <path d="M67.237,48.432L73.762,48.461" style="fill:none;fill-rule:nonzero;"/>
                                    <path d="M67.237,48.605L73.762,48.633" style="fill:none;fill-rule:nonzero;"/>
                                    <path d="M67.237,48.777L73.762,48.806" style="fill:none;fill-rule:nonzero;"/>
                                    <path d="M67.237,48.978L73.762,49.007" style="fill:none;fill-rule:nonzero;"/>
                                    <path d="M67.237,49.18L73.762,49.208" style="fill:none;fill-rule:nonzero;"/>
                                </g>
                                <g id="book2">
                                    <path d="M59.563,49.697C59.563,49.697 58.614,49.783 58.614,50.732C58.614,51.536 59.275,51.738 59.448,51.766L59.534,51.766L74.969,51.795L74.969,51.479L68.99,51.45C68.99,51.45 68.617,51.45 68.645,51.077L68.645,50.301C68.645,50.301 68.617,50.013 68.933,50.013C69.22,50.013 74.854,50.071 74.854,50.071L74.854,49.668L59.563,49.697Z" style="fill:url(#_Linear7);fill-rule:nonzero;"/>
                                    <path d="M68.76,50.214L74.452,50.243" style="fill:none;fill-rule:nonzero;"/>
                                    <path d="M68.76,50.387L74.452,50.416" style="fill:none;fill-rule:nonzero;"/>
                                    <path d="M68.76,50.559L74.452,50.588" style="fill:none;fill-rule:nonzero;"/>
                                    <path d="M68.76,50.732L74.452,50.76" style="fill:none;fill-rule:nonzero;"/>
                                    <path d="M68.76,50.933L74.452,50.962" style="fill:none;fill-rule:nonzero;"/>
                                    <path d="M68.76,51.163L74.452,51.192" style="fill:none;fill-rule:nonzero;"/>
                                    <path d="M68.76,51.335L74.452,51.364" style="fill:none;fill-rule:nonzero;"/>
                                    <path d="M68.272,48.289L68.789,48.289C68.933,48.403 69.048,48.547 69.077,48.72C69.163,49.007 69.077,49.093 69.249,49.438C69.364,49.639 69.479,49.783 69.536,49.898C69.565,49.927 69.565,50.128 69.565,50.157L69.594,50.674L69.393,50.559L69.192,50.76C69.192,50.76 69.192,50.071 69.105,49.956C69.019,49.841 68.674,49.352 68.732,49.007C68.789,48.633 68.645,48.518 68.272,48.289Z" style="fill:rgb(248,36,106);fill-rule:nonzero;"/>
                                </g>
                                <path d="M76.579,38.918L77.757,38.918C78.044,38.918 78.274,39.148 78.274,39.436L78.274,51.594C78.274,51.881 78.044,52.111 77.757,52.111L76.579,52.111C76.291,52.111 76.061,51.881 76.061,51.594L76.061,39.436C76.061,39.148 76.291,38.918 76.579,38.918Z" style="fill:url(#_Linear8);fill-rule:nonzero;"/>
                                <path d="M52.291,38.832L53.469,38.832C53.756,38.832 53.986,39.062 53.986,39.349L53.986,51.508C53.986,51.795 53.756,52.025 53.469,52.025L52.291,52.025C52.003,52.025 51.773,51.795 51.773,51.508L51.773,39.349C51.773,39.062 52.003,38.832 52.291,38.832Z" style="fill:url(#_Linear9);fill-rule:nonzero;"/>
                                <path d="M80.689,44.15L81.522,43.661C81.752,43.517 82.068,43.603 82.212,43.862L86.265,50.875C86.409,51.105 86.322,51.422 86.064,51.565L85.23,52.054C85,52.198 84.684,52.111 84.54,51.853L80.488,44.839C80.344,44.581 80.43,44.264 80.689,44.15Z" style="fill:url(#_Linear10);fill-rule:nonzero;"/>
                                <path d="M78.734,40.787L79.913,40.787C80.2,40.787 80.43,41.016 80.43,41.304L80.43,51.594C80.43,51.881 80.2,52.111 79.913,52.111L78.734,52.111C78.447,52.111 78.217,51.881 78.217,51.594L78.217,41.304C78.246,41.016 78.447,40.787 78.734,40.787Z" style="fill:url(#_Linear11);fill-rule:nonzero;"/>
                                <path d="M54.504,39.292L55.682,39.292C55.97,39.292 56.2,39.522 56.2,39.809L56.2,51.508C56.2,51.795 55.97,52.025 55.682,52.025L54.504,52.025C54.216,52.025 53.986,51.795 53.986,51.508L53.986,39.809C53.986,39.522 54.216,39.292 54.504,39.292Z" style="fill:url(#_Linear12);fill-rule:nonzero;"/>
                            </g>
                            <g id="Man">
                                <g>
                                    <path d="M191.005,146.82C190.574,145.009 190.43,142.681 190.143,142.624L189.827,142.624L186.78,142.652C186.78,142.652 186.147,145.555 185.831,146.763C185.803,146.849 185.745,147.05 185.688,147.194C185.63,147.395 185.63,147.625 185.63,147.826C185.688,148.918 186.119,149.867 187.096,150.356C188.188,150.902 189.022,151.419 190.143,150.356C191.264,149.292 191.436,148.631 191.005,146.82Z" style="fill:rgb(75,68,190);fill-rule:nonzero;"/>
                                    <path d="M181.376,142.911L177.525,143.112C177.525,143.112 176.001,145.757 173.759,146.389C171.661,146.993 168.183,148.458 169.735,149.292C170.885,149.953 178.301,149.349 180.111,149.493C181.462,149.608 181.836,148.775 181.692,146.964C181.577,145.613 181.376,142.911 181.376,142.911Z" style="fill:rgb(75,68,190);fill-rule:nonzero;"/>
                                </g>
                                <path d="M176.748,94.795C176.748,94.795 174.162,116.065 173.989,117.445C173.817,118.824 174.88,125.924 174.88,127.275C174.88,128.626 177.41,143.141 177.41,143.141L181.434,142.969C181.434,142.969 180.629,121.612 180.715,120.578C180.801,119.543 185.199,107.155 185.199,107.155C185.199,107.155 185.515,110.431 185.515,111.466C185.515,112.501 186.722,142.71 186.722,142.71L190.229,142.71L195.202,98.215L195.115,97.353L176.748,94.795Z" style="fill:url(#_Linear13);fill-rule:nonzero;"/>
                                <path d="M188.591,53.721C188.591,53.721 184.739,55.216 183.877,55.561C183.014,55.905 182.526,56.969 182.526,56.969C182.526,56.969 182.095,56.71 182.095,57.429C182.095,58.147 182.44,59.786 182.727,60.217C183.187,60.936 183.589,61.654 183.963,62.401C184.308,63.149 184.193,64.701 183.819,64.931C183.446,65.161 176.95,71.024 176.95,71.024L171.546,87.667L172.265,92.927L173.357,98.1C173.357,98.1 173.127,98.474 173.587,98.905C174.047,99.336 176.001,102.556 176.001,102.556L176.662,97.813L174.449,90.771L173.673,84.85L178.847,74.272L196.782,77.463L198.737,88.989L195.115,98.819L194.483,103.619L197.53,100.946C197.702,100.802 198.047,100.055 198.22,99.653L200.03,94.536L201.381,86.373C201.381,86.373 190.057,65.966 189.482,64.758C189.223,64.212 189.51,62.89 189.654,62.229C189.798,61.625 190.085,60.849 190.373,60.619C190.804,60.159 191.005,59.498 191.12,58.895C191.12,58.464 191.292,56.796 190.861,57.199C190.775,57.314 190.459,56.796 190.315,56.135C190.057,55.158 189.367,54.353 188.591,53.721Z" style="fill:url(#_Linear14);fill-rule:nonzero;"/>
                                <path d="M187.125,70.363C186.837,70.622 186.406,70.593 186.147,70.335C185.946,70.018 185.745,69.702 185.601,69.386C185.314,68.811 183.101,65.563 183.101,65.563C183.101,65.563 177.841,66.914 177.007,67.46C176.145,68.035 175.369,68.811 175.081,69.817C174.794,70.823 170.741,82.637 170.54,83.355C170.339,84.074 169.304,85.223 169.793,88.127C170.281,91.03 173.012,98.474 173.299,98.56C173.587,98.647 176.49,97.209 176.49,97.209C176.49,97.209 174.19,87.954 174.19,87.034C174.19,86.115 176.26,83.499 177.093,81.717C177.927,79.935 178.531,78.383 178.818,77.607C179.105,76.83 176.346,92.984 176.346,92.984C176.346,92.984 176.289,95.916 176.835,96.203C177.352,96.462 183.532,98.819 184.969,99.365C185.113,99.423 185.285,99.336 185.371,99.193L186.291,96.577C186.291,96.548 186.32,96.52 186.349,96.548C186.377,96.548 186.377,96.577 186.377,96.577L187.24,99.423C187.268,99.566 187.441,99.653 187.585,99.624L195.202,97.985C195.202,97.985 195.087,83.93 195.23,81.573C195.345,79.274 195.058,77.98 195.489,78.613C195.949,79.302 197.875,85.626 197.875,86.689C197.875,87.753 195.719,97.094 195.719,97.094L198.565,98.675C198.565,98.675 202.416,88.414 202.617,87.063C202.818,85.712 202.905,84.994 202.272,83.643C201.64,82.292 198.133,70.018 198.133,70.018C198.133,70.018 197.788,68.524 195.202,67.748C192.615,66.972 190.689,65.822 190.229,65.851C189.769,65.879 188.332,68.581 187.7,69.386C187.412,69.702 187.47,69.846 187.125,70.363Z" style="fill:url(#_Linear15);fill-rule:nonzero;"/>
                                <path d="M188.562,53.75C188.562,53.75 184.222,55.331 183.331,55.992C182.67,56.48 182.526,56.94 182.526,56.94C182.526,56.94 182.066,56.739 182.095,57.4C182.123,58.061 181.577,56.365 181.434,55.819C181.319,55.273 181.29,53.75 182.468,52.629C183.647,51.508 184.94,50.674 186.032,50.732C187.125,50.789 188.016,51.105 188.878,51.939C189.74,52.772 189.942,52.715 190.114,52.801C190.286,52.887 191.178,53.836 191.292,54.871C191.407,55.905 191.091,57.429 191.091,57.429C191.091,57.429 190.89,57.199 190.66,57.371C190.43,57.544 190.373,56.394 189.625,54.986C189.079,53.951 188.562,53.75 188.562,53.75Z" style="fill:url(#_Linear16);fill-rule:nonzero;"/>
                                <path d="M185.803,104.97C185.314,106.407 183.388,109.224 182.123,110.92C180.859,112.616 176.978,116.18 177.237,120.52C177.496,124.86 180.111,136.041 180.111,137.047C180.111,138.053 179.134,142.796 178.387,144.262C177.639,145.728 177.295,148.343 177.668,148.343C178.358,148.315 179.077,148.229 179.766,148.056C180.399,147.912 181.031,147.769 181.635,147.567C181.893,147.452 181.951,146.619 181.951,146.619C181.98,146.274 181.922,145.9 181.836,145.584C181.664,145.038 181.52,144.492 181.434,143.946C181.29,139.864 180.916,130.408 181.002,129.747C181.146,128.511 180.14,122.273 181.06,119.198C181.98,116.122 185.803,104.97 185.803,104.97Z" style="fill-opacity:0.07;fill-rule:nonzero;"/>
                                <path d="M176.49,97.209L175.829,102.326C175.829,102.326 176.49,103.389 176.691,102.498C176.892,101.607 178.272,99.94 177.41,98.733C176.547,97.526 176.49,97.209 176.49,97.209Z" style="fill-opacity:0.07;fill-rule:nonzero;"/>
                                <path d="M195.173,98.618L194.943,101.061L194.655,103.418C194.655,103.418 193.678,104.136 193.707,103.217C193.736,102.297 192.069,100.917 193.333,99.997C194.598,99.078 195.173,98.618 195.173,98.618Z" style="fill-opacity:0.07;fill-rule:nonzero;"/>
                                <path d="M183.072,65.592C183.244,65.563 182.238,65.822 183.129,65.534C184.653,65.046 184.02,62.171 184.02,62.171C184.02,62.171 184.164,63.235 185.601,63.666C187.039,64.097 187.412,63.781 185.256,64.787C183.101,65.793 184.222,66.138 184.365,67.46" style="fill-opacity:0.07;fill-rule:nonzero;"/>
                                <path d="M178.76,78.584L176.346,93.243C176.346,93.243 176.375,95.858 176.835,96.232C177.295,96.606 178.847,96.864 179.192,97.123C179.537,97.382 183.273,98.618 182.296,96.52C182.066,96.06 177.036,93.243 179.278,90.282C181.52,87.322 181.117,83.24 180.054,80.395C179.422,78.728 179.105,76.945 179.192,75.163L178.76,78.584Z" style="fill-opacity:0.07;fill-rule:nonzero;"/>
                            </g>
                            <g id="woman_check_phone">
                                <g>
                                    <path d="M92.703,141.618L90.232,142.192C90.232,142.192 89.628,144.147 89.34,145.21C89.312,145.268 89.254,145.469 89.226,145.555C89.197,145.757 89.168,145.9 89.168,146.102C89.226,147.05 89.57,147.855 90.404,148.257C91.324,148.717 92.042,149.148 93.02,148.257C93.997,147.366 94.169,146.791 93.767,145.239C93.365,143.687 92.703,141.646 92.703,141.618" style="fill:rgb(75,68,190);fill-rule:nonzero;"/>
                                    <path d="M107.132,144.866C105.465,144.348 104.747,142.279 104.747,142.279L101.384,142.106C101.384,142.106 101.298,144.204 101.211,145.354C101.096,146.878 101.384,147.567 102.39,147.452C103.741,147.337 109.288,147.826 110.151,147.28C111.3,146.59 108.713,145.354 107.132,144.866" style="fill:rgb(75,68,190);fill-rule:nonzero;"/>
                                </g>
                                <path d="M87.501,94.076C87.501,94.076 86.236,95.801 85.834,100.486C85.431,105.143 86.322,114.024 86.725,115.749C87.127,117.473 88.794,133.483 89.197,134.662C89.599,135.84 90.174,142.221 90.174,142.221L92.847,142.307C92.847,142.307 93.652,133.972 93.652,131.787C93.652,129.603 94.773,108.735 94.687,107.212C94.6,105.689 94.974,106.177 94.974,106.177C94.974,106.177 97.302,113.622 97.992,114.886C98.682,116.151 99.918,118.566 99.918,118.566C99.918,118.566 100.205,126.384 100.55,130.896C100.895,135.409 101.24,142.537 101.24,142.537L104.833,142.451C104.833,142.451 105.667,130.551 105.667,128.051C105.667,125.55 106.414,119.543 106.414,118.853C106.414,118.163 104.086,106.005 104.086,106.005L102.447,94.134L87.501,94.076Z" style="fill:url(#_Linear17);fill-rule:nonzero;"/>
                                <path d="M91.755,54.813C90.519,55.273 88.967,61.338 88.967,61.338L88.938,61.309L88.248,61.999L88.536,63.292L89.714,83.355L95.865,82.033L101.24,76.342L104.603,77.923C104.603,77.923 104.862,85.223 104.891,85.597C104.919,85.971 105.494,97.008 105.494,97.727C105.523,98.503 108.8,101.952 109.346,101.578C110.955,100.457 108.282,98.359 107.621,97.842C107.247,97.554 106.443,87.293 106.385,86.086C106.328,84.879 108.253,81.803 104.919,77.75C102.476,74.79 101.183,67.202 99.142,58.579C98.078,54.095 97.417,52.772 96.383,52.772C95.405,52.801 94.083,53.951 91.755,54.813" style="fill:url(#_Linear18);fill-rule:nonzero;"/>
                                <path d="M90.72,71.887C90.691,71.944 88.392,73.036 87.386,74.272C86.38,75.508 85.575,77.262 85.575,77.262C85.575,77.262 84.109,80.74 83.103,83.298C82.557,84.677 80.775,90.311 82.902,90.512C84.943,90.713 89.427,85.913 90.145,85.022L90.921,83.298C90.979,83.068 89.714,80.74 89.743,80.538C89.772,80.193 92.732,78.498 93.163,79.504C93.307,79.849 93.709,80.826 93.824,81.113C94.112,81.861 89.829,83.269 89.829,83.93C89.829,84.735 89.484,87.724 88.881,89.19C88.306,90.656 87.415,94.134 87.415,94.134L102.447,94.163C102.447,94.163 101.93,87.465 102.16,85.252C102.16,85.252 102.792,77.951 103.166,77.262C103.54,76.543 104.172,86.258 104.086,88.27C103.999,89.65 105.264,98.014 105.638,98.33C106.213,98.79 107.592,97.87 107.592,97.87C107.592,97.87 107.535,88.701 107.477,87.178C107.42,85.655 107.506,73.324 105.494,71.111C103.482,68.897 102.936,68.955 101.269,69.53C99.602,70.105 98.768,70.679 96.498,71.053C95.118,71.312 93.652,71.111 92.359,70.536C92.703,69.242 91.956,71.427 92.071,70.823" style="fill:url(#_Linear19);fill-rule:nonzero;"/>
                                <path d="M92.933,51.364C92.933,51.364 89.944,51.479 89.082,54.382C88.248,57.314 88.105,61.395 88.076,62.056C88.047,62.746 88.392,67.316 88.018,68.61C87.673,69.731 86.725,71.829 86.121,73.266C85.891,73.841 85.719,74.445 85.604,75.048L85.518,75.537C85.661,76.054 86.207,76.342 86.754,76.169C86.782,76.141 86.84,76.141 86.84,76.141C87.127,75.997 87.415,75.853 87.702,75.681C88.593,75.135 89.743,73.697 90.663,73.238C91.611,72.778 92.703,70.593 92.876,70.421C93.02,70.248 92.962,69.702 92.991,69.185C93.077,66.454 92.588,63.954 91.927,62.631C91.295,61.309 89.829,58.722 90.835,57.256C91.841,55.762 93.968,54.583 94.083,54.238C94.169,53.893 94.227,55.676 95.377,56.308C96.498,56.94 98.078,58.665 98.078,59.038C98.078,59.412 98.452,60.648 97.389,62.775C96.325,64.902 95.463,67.604 96.957,69.645C98.452,71.685 102.189,74.502 102.447,75.135C102.706,75.767 102.447,78.613 102.361,80.222C102.275,81.832 105.379,77.492 105.293,75.393C105.178,73.295 105.552,72.404 103.425,69.214C101.298,66.023 99.889,60.533 99.86,59.182C99.832,57.831 99.171,54.152 97.877,53.089C96.785,52.198 96.526,51.307 94.256,51.307C93.824,51.278 93.365,51.335 92.933,51.364" style="fill:url(#_Linear20);fill-rule:nonzero;"/>
                                <g>
                                    <g>
                                        <g opacity="0.07">
                                            <g>
                                                <g>
                                                    <g>
                                                        <path d="M91.784,79.36C91.324,79.561 90.893,79.762 90.49,79.992L90.03,80.222C90.03,80.222 85.259,85.223 85.46,84.936C86.38,83.786 89.254,77.693 90.203,76.284C91.209,74.818 91.784,75.393 92.905,79.302" style="fill:none;fill-rule:nonzero;"/>
                                                    </g>
                                                </g>
                                            </g>
                                        </g>
                                        <g opacity="0.07">
                                            <path d="M91.554,142.164C91.582,142.221 91.582,142.279 91.582,142.336C91.611,142.739 91.582,143.773 91.123,144.434C90.548,145.297 91.899,147.194 91.899,147.682C91.899,148.171 91.266,148.573 90.835,148.458C90.404,148.315 88.593,147.309 89.312,145.124C89.599,144.233 89.772,143.457 89.944,142.969C90.03,142.71 90.117,142.48 90.203,142.221C90.232,142.106 90.232,141.991 90.232,141.876C90.203,141.733 90.203,141.56 90.203,141.388C90.117,140.554 86.524,114.11 86.409,113.104C86.294,112.213 85.776,106.608 85.834,103.332C85.805,103.044 85.805,102.757 85.805,102.498C85.805,102.412 85.834,102.096 85.834,101.981C85.863,101.693 85.863,101.377 85.92,101.09C85.863,100.831 85.891,100.831 85.92,100.457C85.949,100.084 85.92,99.825 85.949,99.595C86.294,97.382 87.127,94.852 87.501,94.134L87.616,93.731C87.616,93.731 88.507,90.369 88.823,89.765C89.082,89.19 89.829,86.23 89.772,85.626C89.743,85.281 90.95,83.959 90.95,83.959L91.209,83.758C91.324,83.729 91.467,83.758 91.554,83.786C91.812,83.901 92.847,83.01 92.991,83.585C94.198,87.437 94.687,89.075 92.56,91.375C90.433,93.674 92.387,95.715 92.416,97.353C92.502,101.348 90.576,100.917 90.461,103.389C90.346,105.861 90.893,107.672 90.921,108.965C91.008,113.248 90.95,114.082 90.72,115.749C90.49,117.416 89.34,120.606 90.634,126.872C91.927,133.138 91.726,133.684 91.582,137.22C91.439,140.755 91.554,142.164 91.554,142.164" style="fill-rule:nonzero;"/>
                                        </g>
                                        <path d="M89.57,77.578L89.599,77.549C89.743,77.463 90.634,77.032 91.266,76.773C91.956,76.486 92.818,78.871 93.02,79.331C93.048,79.36 93.048,79.36 92.876,79.389C92.359,79.446 91.87,79.532 91.381,79.676C90.663,79.849 89.858,80.423 89.829,80.423C89.8,80.452 89.57,79.992 89.168,78.929C89.082,78.67 88.881,78.038 89.053,77.894L89.57,77.578Z" style="fill:rgb(239,239,239);fill-rule:nonzero;"/>
                                    </g>
                                    <path d="M94.974,64.988C95.434,65.161 95.951,65.046 96.296,64.701C96.9,64.097 96.066,66.196 96.21,66.655C96.354,67.115 94.974,64.988 94.974,64.988Z" style="fill-opacity:0.07;fill-rule:nonzero;"/>
                                    <path d="M90.893,83.096C90.893,83.096 93.738,81.228 93.767,81.314C93.853,81.487 94.083,82.148 94.083,82.148C94.083,82.148 94.313,82.579 94.227,82.723C94.141,82.867 91.467,84.016 91.467,84.016C91.352,83.988 91.266,83.93 91.209,83.844C91.094,83.585 91.008,83.355 90.893,83.096Z" style="fill:rgb(239,239,239);fill-rule:nonzero;"/>
                                </g>
                            </g>
                        </g>
                    </g>
                </g>
            </g>
        </g>
    </g>
    <defs>
        <linearGradient id="_Linear3" x1="0" y1="0" x2="1" y2="0" gradientUnits="userSpaceOnUse" gradientTransform="matrix(0.0862295,63.7408,-63.7408,0.0862295,140.663,15.688)"><stop offset="0" style="stop-color:rgb(255,235,0);stop-opacity:1"/><stop offset="1" style="stop-color:white;stop-opacity:0"/></linearGradient>
        <linearGradient id="_Linear4" x1="0" y1="0" x2="1" y2="0" gradientUnits="userSpaceOnUse" gradientTransform="matrix(24.469,11.3334,-11.3334,24.469,193.643,132.753)"><stop offset="0" style="stop-color:rgb(248,197,71);stop-opacity:1"/><stop offset="1" style="stop-color:rgb(247,29,105);stop-opacity:1"/></linearGradient>
        <linearGradient id="_Linear5" x1="0" y1="0" x2="1" y2="0" gradientUnits="userSpaceOnUse" gradientTransform="matrix(16.2629,7.53356,-7.53356,16.2629,197.428,129.75)"><stop offset="0" style="stop-color:rgb(248,197,71);stop-opacity:1"/><stop offset="1" style="stop-color:rgb(247,29,105);stop-opacity:1"/></linearGradient>
        <linearGradient id="_Linear6" x1="0" y1="0" x2="1" y2="0" gradientUnits="userSpaceOnUse" gradientTransform="matrix(16.0052,0,0,16.0052,58.057,48.7858)"><stop offset="0" style="stop-color:rgb(75,70,189);stop-opacity:1"/><stop offset="1" style="stop-color:rgb(92,212,238);stop-opacity:1"/></linearGradient>
        <linearGradient id="_Linear7" x1="0" y1="0" x2="1" y2="0" gradientUnits="userSpaceOnUse" gradientTransform="matrix(16.3552,0,0,16.3552,58.6204,50.7363)"><stop offset="0" style="stop-color:rgb(248,197,71);stop-opacity:1"/><stop offset="1" style="stop-color:rgb(247,29,105);stop-opacity:1"/></linearGradient>
        <linearGradient id="_Linear8" x1="0" y1="0" x2="1" y2="0" gradientUnits="userSpaceOnUse" gradientTransform="matrix(8.92493,-11.1358,11.1358,8.92493,73.813,49.6792)"><stop offset="0" style="stop-color:rgb(75,70,189);stop-opacity:1"/><stop offset="1" style="stop-color:rgb(92,212,238);stop-opacity:1"/></linearGradient>
        <linearGradient id="_Linear9" x1="0" y1="0" x2="1" y2="0" gradientUnits="userSpaceOnUse" gradientTransform="matrix(8.92493,-11.1358,11.1358,8.92493,49.5278,49.5939)"><stop offset="0" style="stop-color:rgb(75,70,189);stop-opacity:1"/><stop offset="1" style="stop-color:rgb(92,212,238);stop-opacity:1"/></linearGradient>
        <linearGradient id="_Linear10" x1="0" y1="0" x2="1" y2="0" gradientUnits="userSpaceOnUse" gradientTransform="matrix(2.72883,-10.4883,10.4883,2.72883,82.3477,51.818)"><stop offset="0" style="stop-color:rgb(75,70,189);stop-opacity:1"/><stop offset="1" style="stop-color:rgb(92,212,238);stop-opacity:1"/></linearGradient>
        <linearGradient id="_Linear11" x1="0" y1="0" x2="1" y2="0" gradientUnits="userSpaceOnUse" gradientTransform="matrix(7.76186,-9.68464,9.68464,7.76186,76.4123,50.074)"><stop offset="0" style="stop-color:rgb(248,197,71);stop-opacity:1"/><stop offset="1" style="stop-color:rgb(247,29,105);stop-opacity:1"/></linearGradient>
        <linearGradient id="_Linear12" x1="0" y1="0" x2="1" y2="0" gradientUnits="userSpaceOnUse" gradientTransform="matrix(8.63425,-10.773,10.773,8.63425,51.8424,49.6929)"><stop offset="0" style="stop-color:rgb(248,197,71);stop-opacity:1"/><stop offset="1" style="stop-color:rgb(247,29,105);stop-opacity:1"/></linearGradient>
        <linearGradient id="_Linear13" x1="0" y1="0" x2="1" y2="0" gradientUnits="userSpaceOnUse" gradientTransform="matrix(21.2313,0,0,21.2313,173.958,118.973)"><stop offset="0" style="stop-color:rgb(75,69,189);stop-opacity:1"/><stop offset="1" style="stop-color:rgb(88,202,234);stop-opacity:1"/></linearGradient>
        <linearGradient id="_Linear14" x1="0" y1="0" x2="1" y2="0" gradientUnits="userSpaceOnUse" gradientTransform="matrix(29.8354,0,0,29.8354,171.533,78.6755)"><stop offset="0" style="stop-color:rgb(248,123,88);stop-opacity:1"/><stop offset="0.41" style="stop-color:rgb(248,148,83);stop-opacity:1"/><stop offset="0.71" style="stop-color:rgb(248,197,72);stop-opacity:1"/><stop offset="1" style="stop-color:rgb(248,156,81);stop-opacity:1"/></linearGradient>
        <linearGradient id="_Linear15" x1="0" y1="0" x2="1" y2="0" gradientUnits="userSpaceOnUse" gradientTransform="matrix(33.1519,0,0,33.1519,169.65,82.6017)"><stop offset="0" style="stop-color:rgb(147,223,147);stop-opacity:1"/><stop offset="1" style="stop-color:rgb(33,194,193);stop-opacity:1"/></linearGradient>
        <linearGradient id="_Linear16" x1="0" y1="0" x2="1" y2="0" gradientUnits="userSpaceOnUse" gradientTransform="matrix(9.96888,0,0,9.96888,181.368,54.1453)"><stop offset="0" style="stop-color:rgb(75,69,189);stop-opacity:1"/><stop offset="1" style="stop-color:rgb(88,202,234);stop-opacity:1"/></linearGradient>
        <linearGradient id="_Linear17" x1="0" y1="0" x2="1" y2="0" gradientUnits="userSpaceOnUse" gradientTransform="matrix(20.7184,0,0,20.7184,85.7548,118.274)"><stop offset="0" style="stop-color:rgb(75,69,189);stop-opacity:1"/><stop offset="1" style="stop-color:rgb(88,202,234);stop-opacity:1"/></linearGradient>
        <linearGradient id="_Linear18" x1="0" y1="0" x2="1" y2="0" gradientUnits="userSpaceOnUse" gradientTransform="matrix(21.5817,0,0,21.5817,88.2644,77.2007)"><stop offset="0" style="stop-color:rgb(248,123,88);stop-opacity:1"/><stop offset="0.5" style="stop-color:rgb(248,197,72);stop-opacity:1"/><stop offset="1" style="stop-color:rgb(248,156,81);stop-opacity:1"/></linearGradient>
        <linearGradient id="_Linear19" x1="0" y1="0" x2="1" y2="0" gradientUnits="userSpaceOnUse" gradientTransform="matrix(25.7163,0,0,25.7163,81.8679,83.7906)"><stop offset="0" style="stop-color:rgb(147,223,147);stop-opacity:1"/><stop offset="1" style="stop-color:rgb(33,194,193);stop-opacity:1"/></linearGradient>
        <linearGradient id="_Linear20" x1="0" y1="0" x2="1" y2="0" gradientUnits="userSpaceOnUse" gradientTransform="matrix(19.737,0,0,19.737,85.5717,65.9114)"><stop offset="0" style="stop-color:rgb(75,69,189);stop-opacity:1"/><stop offset="1" style="stop-color:rgb(88,202,234);stop-opacity:1"/></linearGradient>
    </defs>
</svg>
