<?xml version="1.0" encoding="UTF-8" standalone="no"?>
<!DOCTYPE svg PUBLIC "-//W3C//DTD SVG 1.1//EN" "http://www.w3.org/Graphics/SVG/1.1/DTD/svg11.dtd">
<svg width="100%" height="100%" viewBox="0 0 4942 2416" version="1.1" xmlns="http://www.w3.org/2000/svg" xmlns:xlink="http://www.w3.org/1999/xlink" xml:space="preserve" xmlns:serif="http://www.serif.com/" style="fill-rule:evenodd;clip-rule:evenodd;stroke-linejoin:round;stroke-miterlimit:2;fill:#fff;opacity:0.4">
    <g id="アートボード1" transform="matrix(0.977219,0,0,1,-2058.22,-3431.02)">
        <rect x="2106.2" y="3431.02" width="5057.09" height="2415.9" style="fill:none;"/>
        <g transform="matrix(1.02331,0,0,1,-176.427,0.0233014)">
            <g id="右" transform="matrix(1,0,0,1,3051.98,3146.77)">
                <path d="M2629.26,938.476C2783.98,761.019 3011.72,648.785 3265.47,648.785C3731.23,648.785 4109.37,1026.92 4109.37,1492.68L4005.63,1492.68C4005.63,1084.17 3673.98,752.517 3265.47,752.517C3031.97,752.517 2823.57,860.878 2687.85,1030.04C2684.2,1020.27 2679.21,1010.95 2672.91,1002.37C2667.89,985.273 2659.27,966.276 2644.6,951.469C2644.6,951.469 2644.59,951.458 2644.59,951.458C2639.83,946.652 2634.7,942.315 2629.26,938.476ZM2548.02,1310.16C2536.52,1355.42 2529.19,1402.37 2526.49,1450.54C2506.49,1437.05 2482.91,1427.77 2457.23,1423.98C2452.39,1408.99 2443.33,1395.56 2430.97,1385.37L2430.16,1384.7L2428.62,1383.17C2431.64,1359.94 2435.61,1337 2440.48,1314.36C2474.1,1337.15 2517.72,1334.38 2548.02,1310.16Z"/>
            </g>
            <g transform="matrix(1,0,0,1,3051.98,3146.77)">
                <path d="M2768.53,2041.03C2752.82,2072.89 2735.77,2103.99 2717.47,2134.26C2864.95,2260.38 3056.38,2336.58 3265.47,2336.58C3731.23,2336.58 4109.37,1958.44 4109.37,1492.68L4005.63,1492.68C4005.63,1901.19 3673.98,2232.85 3265.47,2232.85C3074.27,2232.85 2899.91,2160.2 2768.53,2041.03ZM2697.82,2069.28C2692.04,2079.71 2686.12,2090.04 2680.04,2100.27L2680.04,2100.27L2680.9,2098.82L2681.76,2097.36L2682.88,2095.47L2683.67,2094.11L2684.47,2092.75L2685.59,2090.83C2689.74,2083.69 2693.81,2076.51 2697.82,2069.28ZM2698.35,2068.33L2697.93,2069.08L2698.55,2067.96L2698.35,2068.33ZM2699.23,2066.72L2698.68,2067.72L2699.28,2066.64L2699.71,2065.85L2699.23,2066.72ZM2700.12,2065.11L2700.01,2065.3L2700.39,2064.6L2700.12,2065.11ZM2701,2063.5L2700.84,2063.79L2701.17,2063.18L2701,2063.5ZM2701.88,2061.89L2701.7,2062.21L2701.96,2061.74L2701.88,2061.89ZM2703.63,2058.67L2703.61,2058.69L2703.66,2058.61L2703.63,2058.67ZM2704.5,2057.05L2704.46,2057.12L2704.54,2056.98L2704.5,2057.05ZM2718.12,2031.01L2718.11,2031.01L2718.12,2031.01ZM2720.6,2026.08L2720.55,2026.18L2720.71,2025.85L2720.6,2026.08ZM2721.42,2024.44L2721.29,2024.71L2721.56,2024.16L2721.42,2024.44ZM2722.24,2022.79L2722.01,2023.25L2722.34,2022.59L2722.24,2022.79ZM2723.06,2021.14L2722.68,2021.92L2723.04,2021.19L2723.67,2019.92L2723.06,2021.14ZM2723.88,2019.5L2723.69,2019.87L2724.31,2018.61L2723.88,2019.5ZM2731.1,2004.61C2728.88,2009.26 2726.63,2013.9 2724.35,2018.53C2726.08,2015.02 2727.78,2011.52 2729.47,2008L2730.2,2006.48C2730.5,2005.85 2730.8,2005.23 2731.1,2004.61L2731.1,2004.61Z"/>
            </g>
            <g id="中内" transform="matrix(1,0,0,1,3051.98,3146.77)">
                <path d="M2033.36,2331.67C2016.41,2339.36 1999.21,2346.55 1981.75,2353.22L1961.68,2373.28C1934.39,2400.58 1893.57,2406.18 1860.73,2390.09C1794.13,2405.43 1724.75,2413.54 1653.5,2413.54C1599.21,2413.54 1546.02,2408.83 1494.34,2399.81C1483.56,2399.72 1473.09,2397.64 1463.37,2393.85C1398.45,2380.21 1336.05,2359.71 1276.95,2333.17L1252.6,2367.94C1374.7,2424.01 1510.48,2455.26 1653.5,2455.26C1800.07,2455.26 1939.04,2422.43 2063.46,2363.72C2058.08,2360.31 2052.99,2356.26 2048.3,2351.57C2042.25,2345.52 2037.27,2338.81 2033.36,2331.67ZM973.629,2113.53C962.462,2123.34 950.781,2131.38 939.441,2137.94C947.177,2146.5 955.047,2154.89 963.062,2163.14L979.873,2139.13L979.873,2120.3C977.784,2118.05 975.701,2115.8 973.629,2113.53ZM2577.22,1764.12C2561.25,1774.91 2543.86,1782.89 2525.89,1788.08C2522.61,1797.74 2519.19,1807.31 2515.61,1816.81L2515.61,1898.93L2515.61,1921.06C2540.53,1871.04 2561.22,1818.58 2577.22,1764.12ZM729.65,1759.44L728.659,1760.33C728.988,1760.03 729.319,1759.73 729.65,1759.44ZM752.292,1700.05C753.899,1701.3 755.482,1702.62 757.031,1704.02C759.355,1713.9 761.839,1723.72 764.492,1733.53C752.6,1740.8 741.518,1749.03 731.288,1757.99C732.006,1757.36 732.73,1756.73 733.459,1756.11C740.453,1737.77 746.744,1719.07 752.292,1700.05ZM752.114,1699.91L752.197,1699.98L752.019,1699.84L752.114,1699.91ZM751.658,1699.56L751.772,1699.65L751.593,1699.51L751.658,1699.56ZM751.202,1699.22L751.333,1699.32L751.169,1699.19L751.202,1699.22ZM750.744,1698.88L750.765,1698.89L750.608,1698.77L750.744,1698.88ZM750.285,1698.54L750.342,1698.58L750.15,1698.44L750.285,1698.54ZM749.825,1698.2L749.918,1698.27L749.717,1698.12L749.825,1698.2ZM749.364,1697.87L749.491,1697.96L749.29,1697.82L749.364,1697.87ZM748.902,1697.54L749.055,1697.65L748.863,1697.51L748.902,1697.54ZM748.44,1697.21L748.495,1697.25L748.279,1697.1L748.44,1697.21ZM747.976,1696.89L748.037,1696.93L747.83,1696.79L747.976,1696.89ZM747.512,1696.57L747.609,1696.64L747.397,1696.49L747.512,1696.57ZM747.047,1696.26L747.179,1696.35L746.967,1696.2L747.047,1696.26ZM746.581,1695.94L746.742,1696.05L746.539,1695.92L746.581,1695.94ZM746.115,1695.63L746.221,1695.7L745.946,1695.52L746.115,1695.63ZM745.648,1695.33L745.709,1695.37L745.497,1695.23L745.648,1695.33ZM745.18,1695.02L745.278,1695.09L745.063,1694.95L745.18,1695.02ZM744.712,1694.72L744.845,1694.81L744.631,1694.67L744.712,1694.72ZM744.244,1694.42L744.404,1694.53L744.201,1694.4L744.244,1694.42ZM743.775,1694.13L743.883,1694.2L743.612,1694.03L743.775,1694.13ZM743.306,1693.84L743.365,1693.87L743.157,1693.74L743.306,1693.84ZM742.837,1693.55L742.931,1693.6L742.72,1693.47L742.837,1693.55ZM742.367,1693.26L742.495,1693.34L742.287,1693.21L742.367,1693.26ZM741.897,1692.97L742.05,1693.07L741.855,1692.95L741.897,1692.97ZM740.72,1692.27C740.852,1692.35 740.985,1692.43 741.116,1692.51C741.248,1692.58 741.38,1692.66 741.512,1692.74L740.72,1692.27ZM739.912,1691.8C740.029,1691.86 740.146,1691.93 740.262,1692C740.379,1692.07 740.495,1692.14 740.612,1692.21L739.912,1691.8ZM738.372,1690.91C738.851,1691.18 739.33,1691.46 739.809,1691.74L739.09,1691.32L738.372,1690.91ZM737.565,1690.45C737.681,1690.52 737.796,1690.58 737.912,1690.65C738.027,1690.71 738.143,1690.78 738.258,1690.85L737.565,1690.45ZM736.655,1689.95C736.788,1690.02 736.921,1690.09 737.055,1690.17C737.188,1690.24 737.321,1690.32 737.455,1690.39L736.655,1689.95ZM735.796,1689.47L735.87,1689.51L735.572,1689.35L735.796,1689.47ZM734.863,1688.96L734.998,1689.04L734.667,1688.86L734.863,1688.96ZM733.932,1688.46L734.117,1688.56L733.793,1688.38L733.932,1688.46ZM733.004,1687.96L733.206,1688.07L732.932,1687.92L733.004,1687.96ZM731.158,1686.98L731.223,1687.02L730.935,1686.87L731.158,1686.98ZM729.14,1685.93C729.354,1686.04 729.568,1686.15 729.783,1686.26C729.997,1686.38 730.212,1686.49 730.428,1686.6L729.14,1685.93ZM727.178,1684.9C727.234,1684.93 727.291,1684.96 727.348,1684.99C727.404,1685.02 727.461,1685.05 727.518,1685.08L727.178,1684.9ZM723.037,1682.6C723.091,1682.63 723.145,1682.66 723.2,1682.69C723.255,1682.73 723.309,1682.76 723.364,1682.79L723.037,1682.6ZM708.033,1674.28L708.203,1673.66L708.668,1671.93C708.226,1671.53 707.789,1671.12 707.357,1670.71C707.58,1671.9 707.806,1673.09 708.033,1674.28ZM732.621,1492.68L732.2,1492.68C732.2,1504.46 731.905,1516.17 731.322,1527.77L717.862,1537.12C717.82,1537.14 717.779,1537.17 717.738,1537.2C707.719,1544.18 699.532,1552.98 693.425,1562.92C691.75,1539.77 690.896,1516.32 690.896,1492.68L732.621,1492.68ZM2575.11,1492.68C2575.11,1492.68 2574.38,1492.38 2574.38,1492.38C2574.55,1492.45 2574.72,1492.52 2574.89,1492.59C2574.89,1429.86 2583.28,1369.07 2599,1311.29C2610.22,1370.04 2616.09,1430.68 2616.09,1492.68C2616.09,1502.99 2615.93,1513.26 2615.61,1523.49C2609.57,1516.74 2602.86,1510.44 2595.49,1504.65C2589.14,1499.66 2582.28,1495.67 2575.11,1492.68ZM733.465,1224.03L733.465,1452.95C732.904,1466.12 732.621,1479.37 732.621,1492.68L690.896,1492.68C690.896,1398.49 704.455,1307.44 729.712,1221.43L733.465,1224.03ZM2555.17,1303.79L2555.06,1303.9L2555.27,1303.69L2555.17,1303.79ZM2555.45,1303.51L2555.4,1303.56L2555.61,1303.35L2555.45,1303.51ZM2556.3,1302.65L2556.16,1302.79L2556.36,1302.59L2556.3,1302.65ZM2556.58,1302.36L2556.5,1302.44L2556.68,1302.25L2556.58,1302.36ZM2556.86,1302.07L2556.83,1302.1L2557.03,1301.89L2556.86,1302.07ZM2557.42,1301.48L2557.2,1301.71L2557.44,1301.45L2557.42,1301.48ZM2557.7,1301.18L2557.58,1301.3L2557.76,1301.11L2557.7,1301.18ZM2557.97,1300.89L2557.91,1300.96L2558.08,1300.76L2557.97,1300.89ZM2558.24,1300.59L2558.22,1300.61L2558.48,1300.34L2558.24,1300.59ZM2558.79,1299.99L2558.62,1300.17L2558.83,1299.95L2558.79,1299.99ZM2559.06,1299.68L2558.96,1299.8L2559.14,1299.6L2559.06,1299.68ZM2559.33,1299.38L2559.28,1299.44L2559.47,1299.22L2559.33,1299.38ZM2560.13,1298.46L2559.99,1298.63L2560.18,1298.4L2560.13,1298.46ZM2560.4,1298.15L2560.31,1298.25L2560.5,1298.03L2560.4,1298.15ZM2560.66,1297.84L2560.62,1297.89L2560.84,1297.63L2560.66,1297.84ZM2561.45,1296.9L2561.32,1297.06L2561.51,1296.81L2561.45,1296.9ZM2561.7,1296.58L2561.63,1296.67L2561.83,1296.43L2561.7,1296.58ZM2562.47,1295.62L2562.26,1295.89L2562.52,1295.57L2562.47,1295.62ZM2562.73,1295.3L2562.62,1295.44L2562.82,1295.19L2562.73,1295.3ZM2562.98,1294.97L2562.92,1295.05L2563.13,1294.78L2562.98,1294.97ZM2563.74,1293.99L2563.56,1294.22L2563.79,1293.92L2563.74,1293.99ZM2563.98,1293.66L2563.89,1293.79L2564.08,1293.52L2563.98,1293.66ZM2564.23,1293.33L2564.18,1293.4L2564.41,1293.08L2564.23,1293.33ZM2564.96,1292.33L2564.82,1292.52L2565.03,1292.23L2564.96,1292.33ZM2565.21,1291.99L2565.12,1292.1L2565.32,1291.82L2565.21,1291.99ZM2194.76,696.784L2430.51,924.68C2365.54,835.988 2285.73,758.792 2194.76,696.784ZM1296.84,598.442C1407.18,554.35 1527.53,530.102 1653.5,530.102C1711.46,530.102 1768.23,535.236 1823.4,545.078L1796.86,582.941C1750.1,575.622 1702.24,571.827 1653.5,571.827C1540.56,571.827 1432.35,592.199 1332.29,629.485C1328.71,625.898 1324.76,622.577 1320.47,619.572C1318.98,618.527 1317.47,617.536 1315.92,616.609C1310.64,609.793 1304.27,603.646 1296.84,598.442Z"/>
            </g>
            <g transform="matrix(1,0,0,1,3051.98,3146.77)">
                <path d="M460.581,1492.68C460.581,1072.35 678.498,702.511 1007.43,490.049L941.427,584.308C917.895,617.916 921.405,669.39 947.866,699.254C947.866,699.254 979.873,735.378 979.873,735.378L979.873,754.111C975.845,757.786 971.846,761.494 967.896,765.219L871.603,765.219C822.982,765.219 777.419,788.938 749.531,828.765C712.296,881.943 635.05,992.261 635.05,992.261C609.588,1028.62 617.102,1078.57 652.136,1105.83C653.345,1106.77 654.571,1107.67 655.816,1108.52C660.538,1115.29 666.312,1121.48 673.094,1126.88C675.724,1128.97 678.438,1130.88 681.228,1132.61L680.869,1136.13C679.385,1157.49 685.821,1178.42 698.737,1195.08C669.417,1289.09 653.615,1389.06 653.615,1492.68C653.615,1579.15 664.617,1663.07 685.308,1743.15C654.563,1822.03 609.721,1893.89 553.896,1955.61C493.81,1813.26 460.581,1656.82 460.581,1492.68Z"/>
            </g>
            <g transform="matrix(1,0,0,1,3051.98,3146.77)">
                <path d="M2653.37,1492.68C2653.37,1406.26 2642.38,1322.39 2621.72,1242.36C2635.67,1206.55 2652.53,1172.17 2672.01,1139.54L2634.48,1193.11L2674.37,1136.18L2674.34,1136.19L2674.37,1136.15C2677.59,1131.55 2680.43,1126.79 2682.89,1121.91C2703.73,1089.25 2727.25,1058.46 2753.13,1029.83C2813.19,1172.14 2846.41,1328.57 2846.41,1492.68C2846.41,2150.99 2311.88,2685.46 1653.5,2685.46C1235.1,2685.46 866.724,2469.62 653.746,2143.3C665.65,2132.09 677.254,2120.56 688.536,2108.72C688.64,2108.85 688.746,2108.99 688.852,2109.13C702.054,2126.21 724.987,2144.33 756.247,2155.62C787.554,2166.92 828.722,2172.13 868.716,2165.11C869.567,2164.97 884.145,2162.38 904.404,2154.62C917.452,2169.37 930.93,2183.73 944.817,2197.68C936.161,2228.25 942.937,2264 963.285,2286.96C963.285,2286.96 1081.56,2420.45 1081.56,2420.45C1102.25,2443.8 1129.3,2452.32 1154.95,2450.4C1179.19,2448.58 1204.15,2437.14 1221.55,2412.28L1230.92,2398.9C1359.3,2458.91 1502.51,2492.45 1653.5,2492.45C1822.14,2492.45 1981.09,2450.61 2120.58,2376.72L2121.16,2376.66L2123.42,2378.02C2124.66,2378.69 2125.91,2379.36 2127.15,2380.03L2128.85,2380.85C2154.46,2409.87 2197.27,2419.43 2233.65,2401.52C2370.22,2334.27 2421.25,2276.69 2463.36,2205.48C2515.75,2116.91 2515.61,2006.82 2515.61,2006.82L2515.61,1999.11C2567.94,1910.28 2606.94,1812.7 2629.84,1709.12C2654.03,1669.79 2659.83,1625.38 2649.13,1585.36C2651.94,1554.81 2653.37,1523.91 2653.37,1492.68Z"/>
            </g>
            <g transform="matrix(1,0,0,1,3051.98,3146.77)">
                <path d="M2580.89,918.837C2571.83,917.408 2562.56,917.056 2553.25,917.849C2529.52,919.869 2507.27,929.182 2489.37,944.151C2389.64,792.607 2249.81,669.749 2085.05,590.718L1980.17,489.331C1962.65,472.387 1938.58,463.967 1914.31,466.29C1890.04,468.614 1868.01,481.446 1854.02,501.408L1846.85,511.633C1784.34,499.36 1719.66,492.92 1653.5,492.92C1516.8,492.92 1386.48,520.406 1267.8,570.128L1166.05,455.285C1152.04,439.472 1135.11,430.464 1117.68,426.89C1278.81,345.667 1460.85,299.909 1653.5,299.909C2071.89,299.909 2440.26,515.748 2653.28,842.13C2627.65,866.259 2603.46,891.866 2580.83,918.827L2580.89,918.837Z"/>
            </g>
            <g transform="matrix(1.57652,0,0,1.57652,-10934.4,-4346.32)">
                <path d="M9546.06,5380.33L9546.06,5366.26L9376.87,5366.26C9364.75,5366.26 9353.23,5371.54 9345.32,5380.72C9333.57,5394.33 9317.77,5412.65 9317.77,5412.65C9317.77,5412.65 9366.77,5342.67 9390.39,5308.94C9398.19,5297.81 9410.93,5291.17 9424.52,5291.17L9546.06,5291.17L9546.06,5199.34L9512.46,5161.42C9510.73,5159.46 9510.57,5156.08 9512.11,5153.88L9565.79,5077.22C9567.33,5075.02 9569.99,5074.82 9571.73,5076.78L9646.75,5161.45C9648.48,5163.4 9648.64,5166.78 9647.1,5168.98L9613.6,5216.82L9613.6,5291.17L9627.45,5291.17L9627.45,5223.69C9627.45,5223.09 9627.64,5222.49 9627.98,5222L9659.81,5176.54C9660.75,5175.21 9662.59,5174.88 9663.92,5175.82C9665.26,5176.75 9665.58,5178.6 9664.65,5179.93C9664.65,5179.93 9633.35,5224.62 9633.35,5224.62L9633.35,5291.17L9644.27,5291.17L9644.27,5234.5C9644.27,5233.89 9644.46,5233.3 9644.81,5232.8L9674.81,5189.95C9675.75,5188.62 9677.59,5188.29 9678.93,5189.23C9680.26,5190.16 9680.59,5192.01 9679.65,5193.34C9679.65,5193.34 9650.18,5235.43 9650.18,5235.43L9650.18,5291.17L9762.92,5291.17C9775.03,5291.17 9786.55,5285.9 9794.47,5276.72C9807.37,5261.76 9825.66,5240.55 9825.66,5240.55C9825.66,5240.55 9774.35,5313.83 9750.08,5348.49C9742.28,5359.63 9729.54,5366.26 9715.95,5366.26L9613.6,5366.26L9613.6,5471.39L9627.34,5471.39L9627.26,5383.05C9627.26,5382.27 9627.57,5381.52 9628.13,5380.97C9628.68,5380.41 9629.43,5380.1 9630.22,5380.1C9630.22,5380.1 9743.43,5380.1 9743.43,5380.1L9834.17,5255.6C9835.13,5254.29 9836.98,5254 9838.3,5254.96C9839.62,5255.92 9839.91,5257.77 9838.95,5259.08L9747.32,5384.79C9746.76,5385.55 9745.87,5386.01 9744.93,5386.01C9744.93,5386.01 9633.17,5386.01 9633.17,5386.01L9633.24,5471.39L9643.42,5471.39L9643.36,5399.15C9643.36,5398.37 9643.67,5397.62 9644.23,5397.06C9644.78,5396.51 9645.53,5396.2 9646.32,5396.2C9646.32,5396.2 9755.06,5396.2 9755.06,5396.2L9845.81,5271.7C9846.77,5270.39 9848.62,5270.1 9849.93,5271.06C9851.25,5272.02 9851.54,5273.86 9850.58,5275.18L9758.95,5400.89C9758.4,5401.65 9757.51,5402.1 9756.56,5402.1C9756.56,5402.1 9649.27,5402.1 9649.27,5402.1L9649.32,5471.39L9678.18,5471.39C9690.12,5464.57 9702.16,5455.98 9712.17,5443.13C9722.77,5429.53 9731.12,5412.61 9734.7,5404.84C9735.03,5404.09 9735.77,5403.61 9736.59,5403.61C9737.42,5403.61 9738.16,5404.1 9738.49,5404.84C9742.07,5412.61 9750.42,5429.53 9761.02,5443.13C9773.2,5458.76 9788.37,5468.09 9802.74,5475.58C9803.39,5475.92 9803.81,5476.55 9803.86,5477.25C9803.91,5477.96 9803.57,5478.64 9802.98,5479.05L9770.37,5501.69L9770.37,5748.72L9802.98,5771.36C9803.57,5771.77 9803.91,5772.45 9803.86,5773.16C9803.81,5773.86 9803.39,5774.49 9802.74,5774.83C9788.37,5782.32 9773.2,5791.65 9761.02,5807.28C9750.42,5820.88 9742.07,5837.8 9738.49,5845.57C9738.16,5846.31 9737.42,5846.8 9736.59,5846.8C9735.77,5846.8 9735.03,5846.32 9734.7,5845.57C9731.82,5839.32 9725.85,5827.15 9718.11,5815.55L9649.79,5815.55L9649.79,5883.34L9762.76,5883.34C9774.88,5883.34 9786.4,5878.06 9794.31,5868.89C9807.22,5853.92 9825.5,5832.72 9825.5,5832.72C9825.5,5832.72 9774.19,5906 9749.92,5940.66C9742.13,5951.8 9729.39,5958.43 9715.79,5958.43L9613.6,5958.43L9613.6,6120.09L9627.9,6136.23L9627.9,5975.79C9627.9,5974.16 9629.23,5972.84 9630.86,5972.84C9630.86,5972.84 9743.91,5972.84 9743.91,5972.84L9833.04,5848.36C9833.99,5847.04 9835.83,5846.73 9837.16,5847.68C9838.48,5848.63 9838.79,5850.48 9837.84,5851.8L9747.83,5977.51C9747.27,5978.29 9746.38,5978.74 9745.43,5978.74C9745.43,5978.74 9633.81,5978.74 9633.81,5978.74L9633.81,6142.9L9646.79,6157.55L9646.79,5995.14C9646.79,5993.5 9648.11,5992.18 9649.74,5992.18C9649.74,5992.18 9752.72,5992.18 9752.72,5992.18C9762.03,5979.18 9841.85,5867.71 9841.85,5867.71C9842.8,5866.38 9844.65,5866.08 9845.97,5867.03C9847.3,5867.98 9847.6,5869.82 9846.65,5871.15L9756.64,5996.85C9756.09,5997.63 9755.19,5998.09 9754.24,5998.09C9754.24,5998.09 9652.69,5998.09 9652.69,5998.09L9652.69,6164.21L9656.53,6168.54C9658.26,6170.5 9658.42,6173.88 9656.88,6176.08L9603.2,6252.74C9601.66,6254.94 9599,6255.14 9597.26,6253.19L9522.24,6168.52C9520.51,6166.56 9520.35,6163.18 9521.89,6160.98L9546.06,6126.47L9546.06,6005.34C9545.29,6005.36 9542.19,6005.38 9529.64,6005.34C9524,6005.32 9514.21,6004.71 9504.76,6006.14C9498.84,6007.03 9493.04,6008.69 9488.65,6011.98C9476.02,6021.44 9472.46,6032.82 9462.82,6045.01C9443.98,6068.84 9414.43,6074.07 9413.56,6074.21C9397.83,6076.97 9381.62,6074.99 9369.31,6070.54C9360.75,6067.45 9354.04,6063.12 9350.43,6058.44C9349.43,6057.15 9349.67,6055.3 9350.96,6054.3C9352.25,6053.31 9354.1,6053.54 9355.1,6054.83C9358.18,6058.82 9364.01,6062.35 9371.31,6064.98C9382.79,6069.13 9397.89,6070.97 9412.55,6068.4C9412.56,6068.4 9412.56,6068.39 9412.57,6068.39C9412.57,6068.39 9440.49,6063.73 9458.19,6041.35C9468.18,6028.72 9472.02,6017.05 9485.11,6007.26C9490.24,6003.41 9496.97,6001.34 9503.88,6000.3C9513.67,5998.82 9523.81,5999.42 9529.66,5999.44C9544.36,5999.48 9545.95,5999.44 9545.95,5999.44C9545.95,5999.44 9544.23,6000.14 9544.21,6000.15C9543.14,6001.08 9543.22,6001.86 9543.2,6002.14L9543.2,6002.14C9543.32,6000.67 9544.55,5999.77 9546.06,6005.05L9546.06,5980.82L9425.22,5980.82C9425.19,5980.82 9425.16,5980.82 9425.14,5980.82C9409.46,5980.38 9400.27,5986.32 9395.39,5995.93C9393.16,6000.32 9392.3,6005.48 9392.24,6011.23C9395.74,6017.7 9401.71,6023.34 9410.44,6027.08C9427.8,6034.52 9447.64,6019.88 9442.41,6017C9435.88,6013.39 9430.23,6002.06 9439.48,5996.03C9442.98,5993.75 9451.02,5992.93 9454.53,5997.56C9458.46,6002.72 9458.1,6009.59 9456.97,6015.32C9450.71,6047.03 9368.37,6091.89 9337.58,6000.59C9322.88,5957.04 9364.03,5881.51 9438.79,5883.32C9439.11,5883.33 9439.44,5883.33 9439.76,5883.33C9443.74,5883.33 9489.36,5883.34 9546.06,5883.34L9546.06,5815.55L9487.58,5815.55L9438.94,5866.79C9437.81,5867.97 9435.94,5868.02 9434.76,5866.9C9433.58,5865.77 9433.53,5863.9 9434.65,5862.72L9484.17,5810.56C9484.73,5809.97 9485.5,5809.64 9486.31,5809.64L9546.06,5809.64L9546.06,5798.54L9481.13,5798.54L9447.03,5835.21C9445.92,5836.4 9444.05,5836.47 9442.86,5835.36C9441.67,5834.25 9441.6,5832.38 9442.71,5831.19L9477.68,5793.57C9478.24,5792.98 9479.02,5792.63 9479.84,5792.63L9546.06,5792.63L9546.06,5779.02L9481.95,5779.02C9470,5785.84 9457.97,5794.43 9447.95,5807.28C9437.35,5820.88 9429.01,5837.8 9425.43,5845.57C9425.09,5846.31 9424.35,5846.8 9423.53,5846.8C9422.71,5846.8 9421.97,5846.32 9421.63,5845.57C9418.05,5837.8 9409.71,5820.88 9399.11,5807.28C9386.93,5791.65 9371.76,5782.32 9357.39,5774.83C9356.74,5774.49 9356.32,5773.86 9356.27,5773.16C9356.22,5772.45 9356.55,5771.77 9357.15,5771.36L9389.76,5748.72L9389.76,5501.69L9357.15,5479.05C9356.55,5478.64 9356.22,5477.96 9356.27,5477.25C9356.32,5476.55 9356.74,5475.92 9357.39,5475.58C9371.76,5468.09 9386.93,5458.76 9399.11,5443.13C9409.71,5429.53 9418.05,5412.61 9421.63,5404.84C9421.88,5404.28 9422.36,5403.87 9422.93,5403.7L9376.06,5403.7L9349.83,5436.82C9348.82,5438.09 9346.96,5438.31 9345.68,5437.3C9344.41,5436.29 9344.19,5434.43 9345.2,5433.15L9372.31,5398.91C9372.87,5398.21 9373.73,5397.8 9374.63,5397.8L9546.06,5397.8L9546.06,5386.24L9367.15,5386.24L9335.65,5425.86C9334.63,5427.14 9332.77,5427.35 9331.5,5426.34C9330.22,5425.32 9330.01,5423.47 9331.02,5422.19L9363.41,5381.45C9363.97,5380.74 9364.82,5380.33 9365.72,5380.33L9546.06,5380.33ZM10410,5824.61C10409.1,5825.13 10408.6,5826.06 10408.6,5827.11L10408.6,6026.15C10408.6,6026.15 10408.6,6026.16 10408.6,6026.16C10408.6,6026.16 10408.9,6079.28 10383.6,6121.97C10361.6,6159.23 10334,6188.32 10262.5,6223.51C10261.1,6224.23 10260.5,6226.01 10261.2,6227.47C10261.9,6228.93 10263.7,6229.53 10265.1,6228.81C10338.1,6192.87 10366.2,6163.03 10388.7,6124.98C10414.7,6080.93 10414.5,6026.13 10414.5,6026.13L10414.5,5831.68C10435.9,5845.05 10467.3,5840.28 10486.7,5819.73C10507.7,5797.6 10506.9,5765.87 10485.4,5748.92C10484.3,5748.06 10482.7,5748.08 10481.7,5748.96C10480.6,5749.84 10480.3,5751.35 10480.9,5752.58C10487.9,5766.28 10483.4,5787.73 10467.8,5804.16C10452,5820.79 10429.1,5827.98 10413,5823.65C10411.9,5823.35 10410.7,5823.74 10410,5824.61ZM9944.94,5872.18L9931.01,5859.83L9931.01,6055.26C9931.01,6065.64 9927.14,6075.65 9920.15,6083.32C9911.57,6092.46 9901.64,6101.75 9889.47,6111.16C9877.74,6120.23 9868.06,6144.61 9858.73,6156.29C9851.03,6165.92 9835.9,6178.37 9827.13,6182.57C9813.51,6189.11 9805.42,6191.34 9794.91,6192.75C9782.79,6194.39 9767.29,6192 9760.88,6190.53C9745.8,6187.06 9735.82,6180.44 9730.22,6173.94C9724.42,6167.84 9720.85,6159.59 9720.85,6150.51C9720.85,6131.74 9736.09,6116.5 9754.86,6116.5C9773.63,6116.5 9788.87,6131.74 9788.87,6150.51C9788.87,6165.35 9779.34,6177.99 9766.06,6182.63C9780.03,6184.59 9806.35,6181.41 9821.66,6169.69C9835.76,6158.9 9846.89,6143.16 9849.43,6138.62C9859.5,6120.56 9862.15,6108.07 9862.15,6087.39C9862.15,6034.21 9862.41,5826.48 9862.21,5762.39C9862.18,5751.3 9866.57,5740.66 9874.41,5732.81C9902.12,5705.1 9967.19,5640.04 9967.19,5640.04L9966.24,5641.14L10010.5,5596.91L10083.8,5670.3L10114.1,5640.04L10114,5640.14L10157.2,5596.91L10230.7,5670.37L10304,5596.91L10377.6,5670.44L10380,5672.48C10374.7,5678.66 10371.9,5686.6 10372.1,5694.75C10372.2,5701.3 10372.6,5720.84 10372.6,5720.84C10372.6,5720.84 10378.6,5716.55 10385.9,5713.57C10412.5,5702.69 10438.9,5707.87 10453.4,5724.51C10457.8,5729.65 10464.6,5737.59 10465.4,5750.63C10466.1,5761.42 10464.7,5776.51 10455.7,5785.27C10448.4,5792.28 10438.7,5801.23 10418.3,5799.71C10409.1,5799.03 10401.3,5794.65 10396.8,5789.3C10393.4,5785.22 10391.9,5778.67 10392.7,5771.69C10393.4,5765.79 10395.8,5761.56 10399.6,5758.44C10405.3,5753.65 10411.1,5753.84 10415.6,5754.43C10421.8,5755.24 10425.3,5755.61 10428.5,5761.42C10431.1,5766.1 10422.9,5775.05 10416.7,5767.94C10409.1,5759.39 10402.7,5765.48 10401.9,5771.69C10401,5778.25 10407,5787.4 10419.5,5786.99C10427,5786.75 10436.7,5782.01 10439.9,5776.93C10446.8,5766.17 10446.7,5753.55 10437.8,5743.24C10427.8,5731.74 10409.5,5730.2 10392.7,5741.36C10378.8,5750.6 10372.9,5769.36 10373.4,5799.01C10374.6,5873.89 10375.8,5946.79 10373.7,6012.26C10373.2,6026.64 10373.4,6036.31 10369,6058.6C10367.9,6063.61 10366.1,6069.62 10363.8,6076.11C10348.4,6118.62 10318.4,6154.3 10279.2,6176.79C10257.6,6189.2 10237.5,6200.78 10237.5,6200.78C10237.5,6200.78 10246.5,6191.52 10257.8,6179.87C10286.7,6150.19 10302.9,6110.4 10302.9,6068.97L10302.9,5871.17L10269.4,5894.65C10268.4,5895.35 10267.1,5895.62 10265.8,5895.46L10265.8,6110.68C10265.8,6112.31 10264.5,6113.63 10262.9,6113.63C10261.3,6113.63 10259.9,6112.31 10259.9,6110.68L10259.9,5891.38L10247,5879.88L10247,6114.19L10262.5,6129.74L10198.4,6193.8L10124,6119.37L10156,6087.39L10156,5870.9L10122.6,5894.29C10121.3,5895.21 10119.4,5895.38 10117.9,5894.83L10117.9,6106.82C10117.9,6108.45 10116.6,6109.77 10115,6109.77C10113.3,6109.77 10112,6108.45 10112,6106.82L10112,5890.02L10099,5878.53L10099,6113.27L10115.5,6129.74L10051.4,6193.8L9977.02,6119.37L10009.1,6087.32L10009.1,5870.9L9975.68,5894.29C9973.9,5895.53 9971.17,5895.41 9969.58,5894.01L9968.5,5893.05L9968.5,6093.14C9968.5,6094.11 9968.02,6095.02 9967.23,6095.57C9944.32,6111.38 9917.33,6132.58 9909.65,6147.39C9909.6,6147.47 9909.56,6147.54 9909.51,6147.62C9870.33,6208.65 9842.51,6217.86 9820.62,6222.23C9819.02,6222.54 9817.47,6221.51 9817.15,6219.91C9816.83,6218.31 9817.87,6216.75 9819.47,6216.43C9840.48,6212.25 9866.87,6203.05 9904.47,6144.55C9912.36,6129.48 9939.2,6107.85 9962.6,6091.6L9962.6,5887.82L9950.85,5877.41L9950.85,6082.47C9950.85,6083.44 9950.37,6084.35 9949.57,6084.9C9926.67,6100.71 9899.68,6121.91 9891.99,6136.71C9891.95,6136.79 9891.91,6136.87 9891.86,6136.95C9852.6,6198.09 9824.13,6205.65 9795.4,6208.11C9793.77,6208.25 9792.34,6207.05 9792.2,6205.42C9792.07,6203.8 9793.27,6202.37 9794.9,6202.23C9822.37,6199.88 9849.3,6192.26 9886.81,6133.87C9894.71,6118.81 9921.55,6097.18 9944.94,6080.92L9944.94,5872.18ZM10138.5,6152.71L10074.4,6216.77C10073.3,6217.92 10073.3,6219.79 10074.4,6220.95C10075.6,6222.1 10077.4,6222.1 10078.6,6220.95L10142.7,6156.89C10143.8,6155.73 10143.8,6153.86 10142.7,6152.71C10141.5,6151.56 10139.6,6151.56 10138.5,6152.71ZM10389.4,5812.17L10389.4,6011.2C10389.4,6011.24 10389.4,6011.27 10389.4,6011.31C10389.4,6011.31 10391.3,6066.05 10366.1,6108.71C10344,6145.97 10316.5,6175.06 10245,6210.25C10243.5,6210.97 10242.9,6212.74 10243.6,6214.2C10244.4,6215.66 10246.1,6216.27 10247.6,6215.55C10320.6,6179.61 10348.7,6149.77 10371.2,6111.71C10396.9,6068.23 10395.3,6012.61 10395.3,6011.13C10395.3,6007.74 10395.3,5812.17 10395.3,5812.17C10395.3,5810.54 10393.9,5809.22 10392.3,5809.22C10390.7,5809.22 10389.4,5810.54 10389.4,5812.17ZM10126.3,6140.53L10062.2,6204.59C10061.1,6205.74 10061.1,6207.61 10062.2,6208.76C10063.4,6209.91 10065.3,6209.91 10066.4,6208.76L10130.5,6144.7C10131.6,6143.55 10131.6,6141.68 10130.5,6140.53C10129.3,6139.38 10127.4,6139.38 10126.3,6140.53ZM10271.2,6140.12L10208.3,6202.99C10207.1,6204.15 10207.1,6206.02 10208.3,6207.17C10209.4,6208.32 10211.3,6208.32 10212.5,6207.17L10275.3,6144.29C10276.5,6143.14 10276.5,6141.27 10275.3,6140.12C10274.2,6138.97 10272.3,6138.97 10271.2,6140.12ZM10241.1,5874.65L10241.1,6108.29L10214.1,6081.3C10221,6073.66 10224.9,6063.7 10224.9,6053.34L10224.9,5860.29L10241.1,5874.65ZM10093.1,5873.3L10093.1,6107.36L10067.1,6081.35C10074.1,6073.69 10077.9,6063.72 10077.9,6053.34L10077.9,5859.83L10093.1,5873.3ZM9546.06,5974.91L9546.06,5958.43L9430.94,5958.43C9403.84,5957.75 9387.66,5977.93 9388.44,5997.31C9388.91,5995.9 9389.47,5994.55 9390.12,5993.25C9395.93,5981.84 9406.65,5974.4 9425.26,5974.91L9546.06,5974.91ZM9704.29,5798.37C9703.98,5798.48 9703.66,5798.54 9703.32,5798.54C9703.32,5798.54 9633.38,5798.54 9633.38,5798.54L9633.38,5883.34L9643.88,5883.34L9643.88,5812.59C9643.88,5810.96 9645.2,5809.64 9646.84,5809.64L9713.96,5809.64C9713.38,5808.84 9712.78,5808.06 9712.17,5807.28C9709.66,5804.06 9707.02,5801.1 9704.29,5798.37ZM9698.03,5792.63C9691.63,5787.24 9684.89,5782.85 9678.18,5779.02L9613.6,5779.02L9613.6,5883.34L9627.48,5883.34L9627.48,5795.59C9627.48,5793.95 9628.8,5792.63 9630.43,5792.63L9698.03,5792.63ZM9769.99,5873.64C9780.6,5842.24 9800.6,5820.05 9829.85,5806.93C9831.34,5806.26 9832.01,5804.51 9831.34,5803.02C9830.67,5801.54 9828.92,5800.87 9827.44,5801.54C9796.64,5815.35 9775.57,5838.69 9764.39,5871.74C9763.87,5873.29 9764.7,5874.97 9766.24,5875.49C9767.79,5876.01 9769.46,5875.18 9769.99,5873.64ZM9757.04,5860.69C9767.65,5829.29 9787.65,5807.1 9816.9,5793.98C9818.39,5793.31 9819.06,5791.56 9818.39,5790.07C9817.72,5788.59 9815.97,5787.92 9814.49,5788.59C9783.69,5802.4 9762.62,5825.74 9751.44,5858.8C9750.92,5860.34 9751.75,5862.02 9753.29,5862.54C9754.84,5863.06 9756.51,5862.23 9757.04,5860.69ZM10489.7,5762.06C10500.2,5777.55 10497.7,5799.52 10482.4,5815.66C10467.3,5831.63 10444.3,5837.2 10425.9,5830.66C10441.4,5829.72 10459,5822.02 10472.1,5808.23C10485.5,5794.05 10491.3,5776.46 10489.7,5762.06L10489.7,5762.06ZM10265.8,5708.32L10276.6,5697.58L10302.9,5723.92L10302.9,5820.98L10265.8,5788.13L10265.8,5708.32ZM10117.9,5706.75L10128.4,5696.23L10156,5723.78L10156,5820.51L10117.9,5786.77L10117.9,5706.75ZM9968.5,5707.16L9980.55,5695.11L10009.1,5723.64L10009.1,5820.51L9969.56,5785.5C9969.25,5785.23 9968.89,5785 9968.5,5784.82L9968.5,5707.16ZM10258.1,5679.12L10243.4,5664.43L10236.7,5672.19C10230.2,5679.74 10224.9,5687.57 10224.9,5697.55L10224.9,5808.22L10241.1,5796.88L10241.1,5697.4C10241.1,5696.62 10241.4,5695.87 10241.9,5695.31L10258.1,5679.12ZM9962.07,5676.64L9950.85,5665.42L9944.05,5673.33C9937.54,5680.89 9931.01,5687.57 9931.01,5697.55L9931.01,5807.95L9944.94,5798.19L9944.94,5694.99C9944.94,5694.21 9945.26,5693.46 9945.81,5692.9L9962.07,5676.64ZM10110.1,5677.85L10098.1,5665.93L10091,5673.33C10084.5,5680.89 10077.9,5687.57 10077.9,5697.55L10077.9,5807.95L10093.1,5797.31L10093.1,5696.01C10093.1,5695.23 10093.4,5694.48 10094,5693.93L10110.1,5677.85ZM9950.85,5696.21L9950.85,5794.06L9962.6,5785.84L9962.6,5705.94C9962.6,5705.15 9962.91,5704.4 9963.46,5703.85L9976.37,5690.94L9966.25,5680.82L9950.85,5696.21ZM10099,5697.24L10099,5793.18L10110.4,5785.22C10110.9,5784.89 10111.4,5784.65 10112,5784.51L10112,5705.53C10112,5704.75 10112.3,5703.99 10112.9,5703.44L10124.3,5692.05L10114.2,5682.03L10099,5697.24ZM10247,5698.62L10247,5792.74L10257.2,5785.58C10258,5785.03 10259,5784.74 10259.9,5784.72L10259.9,5707.1C10259.9,5706.32 10260.2,5705.56 10260.8,5705.01L10272.4,5693.41L10262.3,5683.29L10247,5698.62ZM9806.79,5756.43L9806.79,5521.21C9806.79,5521.21 9823.99,5509.27 9823.99,5509.27C9825.33,5508.34 9825.66,5506.5 9824.73,5505.16C9823.8,5503.82 9821.96,5503.49 9820.62,5504.42L9802.15,5517.24C9801.36,5517.79 9800.88,5518.7 9800.88,5519.66L9800.88,5756.43C9800.88,5758.06 9802.21,5759.38 9803.84,5759.38C9805.47,5759.38 9806.79,5758.06 9806.79,5756.43ZM9702.82,5664.43L9702.82,5654.28L9665.15,5680.66C9663.37,5681.9 9660.64,5681.78 9659.06,5680.38L9613.6,5640.1L9613.6,5750.87L9627.04,5750.87L9627.04,5671.95C9627.04,5670.8 9627.72,5669.74 9628.77,5669.27C9629.82,5668.78 9631.06,5668.96 9631.93,5669.72C9631.93,5669.72 9661.11,5695.03 9661.11,5695.03L9702.82,5664.43ZM9546.06,5658.61L9546.06,5646.9L9497.85,5680.66C9496.07,5681.9 9493.34,5681.78 9491.76,5680.38L9457.3,5649.85L9457.3,5748.72L9460.41,5750.87L9468.43,5750.87L9468.43,5680.68C9468.43,5679.53 9469.11,5678.48 9470.16,5678C9471.21,5677.52 9472.45,5677.7 9473.32,5678.45C9473.32,5678.45 9494.26,5696.61 9494.26,5696.61L9546.06,5658.61ZM9546.06,5665.93L9495.85,5702.76C9494.74,5703.58 9493.21,5703.52 9492.17,5702.61C9492.17,5702.61 9474.34,5687.15 9474.34,5687.15L9474.34,5750.87L9484.74,5750.87L9484.74,5716.08C9484.74,5714.92 9485.42,5713.87 9486.47,5713.39C9487.52,5712.91 9488.76,5713.09 9489.63,5713.85C9489.63,5713.85 9494.19,5717.8 9494.19,5717.8L9546.06,5679.76L9546.06,5665.93ZM9546.06,5687.08L9495.78,5723.96C9494.67,5724.77 9493.15,5724.71 9492.1,5723.81C9492.1,5723.81 9490.65,5722.55 9490.65,5722.55L9490.65,5750.87L9546.06,5750.87L9546.06,5687.08ZM9702.82,5671.75L9662.7,5701.18C9661.59,5702 9660.07,5701.93 9659.02,5701.03C9659.02,5701.03 9632.95,5678.42 9632.95,5678.42L9632.95,5750.87L9643.35,5750.87L9643.35,5708.3C9643.35,5707.16 9644,5706.13 9645.02,5705.64C9646.04,5705.15 9647.25,5705.28 9648.14,5705.98C9648.14,5705.98 9660.44,5715.73 9660.44,5715.73L9702.82,5684.65L9702.82,5671.75ZM9702.82,5691.97L9662.12,5721.83C9661.05,5722.62 9659.58,5722.59 9658.54,5721.76C9658.54,5721.76 9649.26,5714.4 9649.26,5714.4L9649.26,5750.87L9699.72,5750.87L9702.82,5748.72L9702.82,5691.97ZM9790.07,5742.98L9790.07,5512.76C9790.07,5512.76 9812.13,5497.44 9812.13,5497.44C9813.47,5496.52 9813.8,5494.67 9812.87,5493.34C9811.94,5492 9810.1,5491.66 9808.76,5492.59L9785.44,5508.79C9784.64,5509.34 9784.17,5510.24 9784.17,5511.21L9784.17,5742.98C9784.17,5744.61 9785.49,5745.94 9787.12,5745.94C9788.75,5745.94 9790.07,5744.61 9790.07,5742.98ZM9490.82,5571.26L9490.82,5534.96L9546.06,5534.96L9546.06,5620L9491.74,5571.87C9491.46,5571.63 9491.15,5571.42 9490.82,5571.26ZM9649.05,5534.96L9702.82,5534.96L9702.82,5610.67L9659.03,5571.87C9657.45,5570.47 9654.72,5570.35 9652.94,5571.59L9649.05,5574.32L9649.05,5534.96ZM9702.82,5513.09L9702.82,5501.69L9699.72,5499.54L9613.6,5499.54L9613.6,5599.14L9626.93,5589.81C9626.92,5589.78 9626.92,5589.75 9626.92,5589.72L9626.92,5516.05C9626.92,5514.41 9628.25,5513.09 9629.88,5513.09L9702.82,5513.09ZM10330.5,5518.33L10281.2,5588.97C10280.3,5590.3 10280.6,5592.15 10281.9,5593.08C10283.3,5594.01 10285.1,5593.68 10286,5592.35L10335.3,5521.71C10336.3,5520.37 10335.9,5518.53 10334.6,5517.6C10333.3,5516.66 10331.4,5516.99 10330.5,5518.33ZM10235.1,5423.12L10304.6,5490.28L10252.1,5565.19L10222,5536.1L10043.6,5536.1L10005.4,5590.67C10004.4,5592.01 10002.6,5592.33 10001.3,5591.4C9999.92,5590.46 9999.59,5588.62 10000.5,5587.28L10039.6,5531.45C10040.2,5530.66 10041.1,5530.19 10042,5530.19L10215.9,5530.19L10203.6,5518.24L10033.1,5518.24L9993.22,5575.13C9992.28,5576.46 9990.44,5576.79 9989.1,5575.85C9987.77,5574.92 9987.44,5573.07 9988.38,5571.74L10029.1,5513.59C10029.6,5512.8 10030.6,5512.33 10031.5,5512.33L10197.5,5512.33L10184.2,5499.54L10020.3,5499.54L9974.33,5565.19L9904.86,5498.04L9957.32,5423.12L10007.2,5471.39L10201.3,5471.39L10235.1,5423.12ZM9546.06,5513.09L9546.06,5499.54L9460.41,5499.54L9457.3,5501.69L9457.3,5591.44L9469.76,5582.72C9469.4,5582.23 9469.19,5581.63 9469.19,5580.98L9469.19,5516.05C9469.19,5514.41 9470.51,5513.09 9472.14,5513.09L9546.06,5513.09ZM9632.83,5519L9632.83,5585.68L9643.14,5578.46L9643.14,5532C9643.14,5530.37 9644.46,5529.05 9646.09,5529.05L9702.82,5529.05L9702.82,5519L9632.83,5519ZM10316.2,5504.81L10266.4,5576.05C10265.5,5577.39 10265.8,5579.23 10267.2,5580.16C10268.5,5581.1 10270.3,5580.77 10271.3,5579.43L10321,5508.19C10321.9,5506.85 10321.6,5505.01 10320.3,5504.07C10318.9,5503.14 10317.1,5503.47 10316.2,5504.81ZM9475.09,5578.98L9484.91,5572.11L9484.91,5532C9484.91,5530.37 9486.23,5529.05 9487.86,5529.05L9546.06,5529.05L9546.06,5519L9475.09,5519L9475.09,5578.98ZM9902.51,5573.04L9925.03,5540.82C9925.96,5539.48 9925.64,5537.64 9924.3,5536.71C9922.97,5535.77 9921.12,5536.1 9920.19,5537.44L9897.67,5569.66C9896.74,5570.99 9897.06,5572.83 9898.4,5573.77C9899.73,5574.7 9901.58,5574.37 9902.51,5573.04ZM9897.22,5509.14L9871.31,5546.08L9886.57,5560.84L9912.48,5523.89L9897.22,5509.14ZM10059.7,5206.93L10050.1,5197.72L9832.29,5508.36L9816.38,5492.98L10091,5101.32L10446.6,5445.16L10478.6,5399.49L10478.7,5399.54C10478.7,5399.54 10479.6,5398.23 10481,5396.25C10484.4,5391.4 10489.8,5388.3 10495.7,5387.8C10501.6,5387.29 10507.4,5389.44 10511.6,5393.65C10511.6,5393.65 10511.6,5393.65 10511.6,5393.65C10519.3,5401.46 10518.9,5414.76 10518.9,5414.76C10518.9,5414.76 10519.4,5415.11 10520.2,5415.71C10528.9,5422.13 10531,5434.38 10524.7,5443.28C10524.7,5443.28 10524.7,5443.28 10524.7,5443.28L10524.7,5443.29C10524.7,5443.29 10468.8,5523.09 10455.8,5541.69C10454.3,5543.81 10451.4,5544.32 10449.3,5542.84C10449.3,5542.84 10449.3,5542.84 10449.3,5542.83C10447.1,5541.35 10446.6,5538.42 10448.1,5536.3C10459,5520.81 10499.5,5462.99 10511.4,5445.95C10512.3,5444.69 10512.6,5443.13 10512.4,5441.61C10512.1,5440.1 10511.2,5438.75 10510,5437.87C10510,5437.87 10510,5437.87 10510,5437.87C10507.4,5436.03 10503.7,5436.67 10501.9,5439.29C10494.7,5449.52 10478,5473.46 10471.4,5482.81C10469.9,5484.93 10467,5485.45 10464.9,5483.96C10464.9,5483.96 10464.9,5483.96 10464.9,5483.96C10462.8,5482.47 10462.2,5479.55 10463.7,5477.42C10469.8,5468.77 10484.6,5447.65 10492.4,5436.43C10493.8,5434.5 10494.3,5432.12 10493.9,5429.8C10493.5,5427.48 10492.2,5425.41 10490.3,5424.06C10490.3,5424.06 10490.3,5424.06 10490.3,5424.06C10486.2,5421.25 10480.7,5422.22 10477.9,5426.24L10457.4,5455.54L10457.4,5455.54L10400.6,5536.56L10118.8,5264.12L10000.1,5433.73C9999.12,5435.07 9997.27,5435.4 9995.94,5434.46C9994.6,5433.53 9994.28,5431.68 9995.21,5430.35L10114.5,5259.96L10104.4,5250.2L9980.39,5427.06L9965.13,5412.3L10089.2,5235.44L10079.5,5226.09L9863.71,5534.24C9862.78,5535.58 9860.93,5535.9 9859.6,5534.97C9858.26,5534.03 9857.94,5532.19 9858.87,5530.86L10075.2,5221.94L10064,5211.09L9848.41,5518.94C9847.47,5520.27 9845.63,5520.6 9844.29,5519.66C9842.96,5518.73 9842.63,5516.89 9843.57,5515.55L10059.7,5206.93ZM9546.06,5403.7L9546.06,5471.39L9481.95,5471.39C9470,5464.57 9457.97,5455.98 9447.95,5443.13C9437.35,5429.53 9429.01,5412.61 9425.43,5404.84C9425.18,5404.28 9424.7,5403.87 9424.13,5403.7L9546.06,5403.7Z"/>
            </g>
            <g id="左" transform="matrix(1,0,0,1,3051.98,3146.77)">
                <path d="M538.483,944.259C407.096,825.135 232.77,752.517 41.618,752.517C-366.89,752.517 -698.547,1084.17 -698.547,1492.68L-802.28,1492.68C-802.28,1026.92 -424.142,648.785 41.618,648.785C250.661,648.785 442.053,724.957 589.545,851.055C571.245,881.309 554.199,912.404 538.483,944.259ZM733.465,1229.27L733.465,1224.03L733.465,1229.27ZM626.982,885.04C643.645,901.095 659.666,917.845 674.984,935.23L635.05,992.261C626.625,1004.29 621.81,1017.81 620.409,1031.51C606.355,1013.9 591.515,996.941 575.93,980.682C591.524,947.963 608.564,916.064 626.982,885.04Z"/>
            </g>
            <g id="左1" serif:id="左" transform="matrix(1,0,0,1,3051.98,3146.77)">
                <path d="M670.506,2055.18C670.526,2048.27 671.356,2041.39 672.975,2034.68C666.554,2022.47 660.702,2008.82 655.567,1993.6C647.882,1970.82 645.148,1944.63 647.745,1917.37C513.788,2108.1 292.156,2232.85 41.618,2232.85C-366.89,2232.85 -698.547,1901.19 -698.547,1492.68L-802.28,1492.68C-802.28,1958.44 -424.142,2336.58 41.618,2336.58C291.358,2336.58 515.907,2227.86 670.506,2055.18ZM752.292,1700.05C746.748,1719.06 740.458,1737.76 733.459,1756.11C746.163,1745.24 760.154,1735.5 775.345,1727.27C772.441,1722.55 769.234,1717.83 765.801,1713.42C761.684,1708.14 757.092,1703.78 752.292,1700.05Z"/>
            </g>
        </g>
    </g>
</svg>
