<?xml version="1.0" encoding="UTF-8" standalone="no"?>
<!DOCTYPE svg PUBLIC "-//W3C//DTD SVG 1.1//EN" "http://www.w3.org/Graphics/SVG/1.1/DTD/svg11.dtd">
<svg width="100%" height="100%" viewBox="0 0 762 130" version="1.1" xmlns="http://www.w3.org/2000/svg" xmlns:xlink="http://www.w3.org/1999/xlink" xml:space="preserve" xmlns:serif="http://www.serif.com/" style="fill-rule:evenodd;clip-rule:evenodd;stroke-linejoin:round;stroke-miterlimit:2;">
    <g transform="matrix(1,0,0,1,0,-2184)">
        <g id="アートボード9" transform="matrix(1,0,0,1,1.45215,-0.321447)">
            <rect x="-1.452" y="2184.32" width="761.534" height="129.465" style="fill:none;"/>
            <clipPath id="_clip1">
                <rect x="-1.452" y="2184.32" width="761.534" height="129.465"/>
            </clipPath>
            <g clip-path="url(#_clip1)">
                <g transform="matrix(1,0,0,1,-2793.37,-681.253)">
                    <path d="M2900.42,2867.35L2793.92,2867.35L2793.92,2985.92L2900.42,2985.92L2900.42,2867.35ZM2847.83,2970.36C2843.58,2970.36 2839.79,2969.38 2836.46,2967.42C2833.12,2965.47 2830.52,2962.74 2828.64,2959.24C2826.77,2955.74 2825.83,2951.74 2825.83,2947.24L2825.83,2903.11C2825.83,2896.28 2827.81,2890.74 2831.77,2886.49C2835.73,2882.24 2840.96,2880.11 2847.46,2880.11C2853.71,2880.11 2858.81,2882.22 2862.77,2886.42C2866.73,2890.63 2868.79,2896.11 2868.96,2902.86C2868.96,2904.03 2868.41,2904.61 2867.33,2904.61L2859.33,2904.61C2858.33,2904.61 2857.75,2904.03 2857.58,2902.86C2857.41,2899.03 2856.43,2896.05 2854.64,2893.92C2852.85,2891.8 2850.46,2890.74 2847.46,2890.74C2844.29,2890.74 2841.79,2891.82 2839.96,2893.99C2838.12,2896.15 2837.21,2899.07 2837.21,2902.74L2837.21,2947.74C2837.21,2951.4 2838.18,2954.32 2840.14,2956.49C2842.1,2958.65 2844.71,2959.74 2847.96,2959.74C2851.04,2959.74 2853.58,2958.69 2855.58,2956.61C2857.58,2954.53 2858.58,2951.86 2858.58,2948.61L2858.58,2931.61L2849.96,2931.61C2848.79,2931.61 2848.21,2931.07 2848.21,2929.99L2848.21,2923.36C2848.21,2922.19 2848.79,2921.61 2849.96,2921.61L2864.71,2921.61C2866.37,2921.61 2867.64,2922.05 2868.52,2922.92C2869.39,2923.8 2869.83,2925.07 2869.83,2926.74L2869.83,2947.99C2869.83,2952.24 2868.89,2956.07 2867.02,2959.49C2865.14,2962.9 2862.54,2965.57 2859.21,2967.49C2855.87,2969.4 2852.08,2970.36 2847.83,2970.36Z" style="fill:rgb(4,1,1);"/>
                    <path d="M2901.87,2867.35C2901.87,2866.55 2901.22,2865.9 2900.42,2865.9L2793.92,2865.9C2793.12,2865.9 2792.47,2866.55 2792.47,2867.35L2792.47,2985.92C2792.47,2986.73 2793.12,2987.38 2793.92,2987.38L2900.42,2987.38C2901.22,2987.38 2901.87,2986.73 2901.87,2985.92L2901.87,2867.35ZM2900.42,2867.35L2793.92,2867.35L2793.92,2985.92L2900.42,2985.92L2900.42,2867.35ZM2847.83,2970.36C2843.58,2970.36 2839.79,2969.38 2836.46,2967.42C2833.12,2965.47 2830.52,2962.74 2828.64,2959.24C2826.77,2955.74 2825.83,2951.74 2825.83,2947.24L2825.83,2903.11C2825.83,2896.28 2827.81,2890.74 2831.77,2886.49C2835.73,2882.24 2840.96,2880.11 2847.46,2880.11C2853.71,2880.11 2858.81,2882.22 2862.77,2886.42C2866.73,2890.63 2868.79,2896.11 2868.96,2902.86C2868.96,2904.03 2868.41,2904.61 2867.33,2904.61L2859.33,2904.61C2858.33,2904.61 2857.75,2904.03 2857.58,2902.86C2857.41,2899.03 2856.43,2896.05 2854.64,2893.92C2852.85,2891.8 2850.46,2890.74 2847.46,2890.74C2844.29,2890.74 2841.79,2891.82 2839.96,2893.99C2838.12,2896.15 2837.21,2899.07 2837.21,2902.74L2837.21,2947.74C2837.21,2951.4 2838.18,2954.32 2840.14,2956.49C2842.1,2958.65 2844.71,2959.74 2847.96,2959.74C2851.04,2959.74 2853.58,2958.69 2855.58,2956.61C2857.58,2954.53 2858.58,2951.86 2858.58,2948.61L2858.58,2931.61L2849.96,2931.61C2848.79,2931.61 2848.21,2931.07 2848.21,2929.99L2848.21,2923.36C2848.21,2922.19 2848.79,2921.61 2849.96,2921.61L2864.71,2921.61C2866.37,2921.61 2867.64,2922.05 2868.52,2922.92C2869.39,2923.8 2869.83,2925.07 2869.83,2926.74L2869.83,2947.99C2869.83,2952.24 2868.89,2956.07 2867.02,2959.49C2865.14,2962.9 2862.54,2965.57 2859.21,2967.49C2855.87,2969.4 2852.08,2970.36 2847.83,2970.36ZM2867.47,2903.15C2867.49,2903.07 2867.5,2902.96 2867.5,2902.9C2867.35,2896.54 2865.43,2891.38 2861.71,2887.42C2858.03,2883.5 2853.27,2881.56 2847.46,2881.56C2841.4,2881.56 2836.52,2883.52 2832.83,2887.47C2829.11,2891.47 2827.28,2896.69 2827.28,2903.11L2827.28,2947.24C2827.28,2951.48 2828.16,2955.25 2829.92,2958.55C2831.67,2961.81 2834.09,2964.35 2837.19,2966.17C2840.31,2968 2843.86,2968.91 2847.83,2968.91C2851.81,2968.91 2855.36,2968.02 2858.48,2966.23C2861.58,2964.44 2864,2961.96 2865.74,2958.79C2867.51,2955.58 2868.38,2951.98 2868.38,2947.99L2868.38,2926.74C2868.38,2925.53 2868.13,2924.58 2867.49,2923.95C2866.86,2923.32 2865.91,2923.06 2864.71,2923.06L2849.96,2923.06C2849.87,2923.06 2849.76,2923.08 2849.69,2923.09C2849.68,2923.16 2849.66,2923.28 2849.66,2923.36L2849.66,2929.99C2849.66,2930.03 2849.66,2930.08 2849.67,2930.13C2849.75,2930.14 2849.87,2930.16 2849.96,2930.16L2858.58,2930.16C2859.38,2930.16 2860.03,2930.81 2860.03,2931.61L2860.03,2948.61C2860.03,2952.27 2858.88,2955.27 2856.63,2957.62C2854.35,2959.99 2851.47,2961.19 2847.96,2961.19C2844.25,2961.19 2841.3,2959.93 2839.07,2957.46C2836.89,2955.05 2835.75,2951.82 2835.75,2947.74C2835.75,2947.74 2835.75,2902.74 2835.75,2902.74C2835.75,2898.67 2836.81,2895.45 2838.85,2893.05C2840.95,2890.56 2843.82,2889.28 2847.46,2889.28C2850.92,2889.28 2853.68,2890.53 2855.75,2892.99C2857.71,2895.31 2858.83,2898.54 2859.03,2902.72C2859.06,2902.97 2859.11,2903.16 2859.33,2903.16L2867.33,2903.16C2867.37,2903.16 2867.43,2903.15 2867.47,2903.15Z"/>
                </g>
                <g transform="matrix(1,0,0,1,-2942.62,-681.253)">
                    <path d="M3406.51,2867.35L3300.01,2867.35L3300.01,2985.92L3406.51,2985.92L3406.51,2867.35ZM3369.21,2880.11C3375.46,2880.11 3380.41,2882.22 3384.08,2886.42C3387.75,2890.63 3389.58,2896.28 3389.58,2903.36L3389.58,2967.24C3389.58,2968.4 3389,2968.99 3387.83,2968.99L3379.96,2968.99C3378.87,2968.99 3378.33,2968.4 3378.33,2967.24L3378.33,2902.86C3378.33,2898.94 3377.54,2895.94 3375.96,2893.86C3374.37,2891.78 3372.12,2890.74 3369.21,2890.74C3366.37,2890.74 3364.12,2891.8 3362.46,2893.92C3360.79,2896.05 3359.96,2899.03 3359.96,2902.86L3359.96,2967.24C3359.96,2968.4 3359.41,2968.99 3358.33,2968.99L3350.46,2968.99C3349.37,2968.99 3348.83,2968.4 3348.83,2967.24L3348.83,2902.86C3348.83,2899.03 3348,2896.05 3346.33,2893.92C3344.66,2891.8 3342.46,2890.74 3339.71,2890.74C3336.71,2890.74 3334.41,2891.78 3332.83,2893.86C3331.25,2895.94 3330.46,2898.94 3330.46,2902.86L3330.46,2967.24C3330.46,2968.4 3329.91,2968.99 3328.83,2968.99L3320.96,2968.99C3319.87,2968.99 3319.33,2968.4 3319.33,2967.24L3319.33,2903.36C3319.33,2896.28 3321.16,2890.63 3324.83,2886.42C3328.5,2882.22 3333.46,2880.11 3339.71,2880.11C3343.04,2880.11 3345.87,2880.8 3348.21,2882.17C3350.54,2883.55 3352.62,2885.49 3354.46,2887.99C3358.29,2882.74 3363.21,2880.11 3369.21,2880.11Z" style="fill:rgb(4,1,1);"/>
                </g>
                <g transform="matrix(125,0,0,125,112.986,2287.73)">
                    <path d="M0.061,-0C0.052,-0 0.047,-0.005 0.047,-0.014L0.047,-0.327C0.047,-0.38 0.063,-0.423 0.094,-0.455C0.125,-0.486 0.167,-0.502 0.218,-0.502L0.255,-0.502C0.264,-0.502 0.268,-0.497 0.268,-0.488L0.268,-0.434C0.268,-0.425 0.264,-0.421 0.255,-0.421L0.219,-0.421C0.193,-0.421 0.172,-0.413 0.157,-0.398C0.141,-0.382 0.133,-0.361 0.133,-0.334L0.133,-0.014C0.133,-0.005 0.128,-0 0.119,-0L0.061,-0Z" style="fill-rule:nonzero;"/>
                </g>
                <g transform="matrix(125,0,0,125,153.422,2287.73)">
                    <path d="M0.199,0.011C0.151,0.011 0.112,-0.004 0.083,-0.035C0.054,-0.065 0.039,-0.104 0.039,-0.152L0.039,-0.348C0.039,-0.396 0.054,-0.435 0.083,-0.466C0.112,-0.496 0.151,-0.511 0.199,-0.511C0.247,-0.511 0.286,-0.496 0.315,-0.466C0.344,-0.435 0.359,-0.396 0.359,-0.348L0.359,-0.152C0.359,-0.104 0.344,-0.065 0.315,-0.035C0.286,-0.004 0.247,0.011 0.199,0.011ZM0.199,-0.07C0.222,-0.07 0.24,-0.077 0.253,-0.092C0.266,-0.106 0.273,-0.125 0.273,-0.149L0.273,-0.351C0.273,-0.375 0.266,-0.394 0.253,-0.408C0.24,-0.423 0.222,-0.43 0.199,-0.43C0.176,-0.43 0.159,-0.423 0.146,-0.408C0.133,-0.394 0.126,-0.375 0.126,-0.351L0.126,-0.149C0.126,-0.125 0.133,-0.106 0.146,-0.092C0.159,-0.077 0.176,-0.07 0.199,-0.07Z" style="fill-rule:nonzero;"/>
                </g>
                <g transform="matrix(125,0,0,125,204.233,2287.73)">
                    <path d="M0.119,-0.5C0.128,-0.5 0.133,-0.496 0.133,-0.487L0.133,-0.149C0.133,-0.125 0.139,-0.106 0.152,-0.092C0.164,-0.077 0.181,-0.07 0.203,-0.07C0.225,-0.07 0.242,-0.077 0.255,-0.092C0.267,-0.106 0.273,-0.125 0.273,-0.149L0.273,-0.487C0.273,-0.496 0.278,-0.5 0.287,-0.5L0.345,-0.5C0.354,-0.5 0.359,-0.496 0.359,-0.487L0.359,-0.152C0.359,-0.104 0.344,-0.065 0.316,-0.035C0.286,-0.004 0.249,0.011 0.203,0.011C0.157,0.011 0.119,-0.004 0.091,-0.035C0.062,-0.065 0.047,-0.104 0.047,-0.152L0.047,-0.487C0.047,-0.496 0.052,-0.5 0.061,-0.5L0.119,-0.5Z" style="fill-rule:nonzero;"/>
                </g>
                <g transform="matrix(125,0,0,125,255.044,2287.73)">
                    <path d="M0.207,-0.511C0.254,-0.511 0.293,-0.496 0.322,-0.466C0.351,-0.435 0.366,-0.396 0.366,-0.348L0.366,-0.152C0.366,-0.121 0.36,-0.093 0.347,-0.068C0.334,-0.043 0.317,-0.024 0.295,-0.01C0.272,0.004 0.248,0.011 0.221,0.011C0.187,0.011 0.158,-0 0.133,-0.023L0.133,0.187C0.133,0.196 0.129,0.2 0.12,0.2L0.061,0.2C0.052,0.2 0.047,0.196 0.047,0.187L0.047,-0.348C0.047,-0.396 0.062,-0.435 0.091,-0.466C0.12,-0.496 0.159,-0.511 0.207,-0.511ZM0.28,-0.351C0.28,-0.375 0.274,-0.394 0.261,-0.408C0.248,-0.422 0.23,-0.429 0.207,-0.429C0.184,-0.429 0.166,-0.422 0.153,-0.408C0.14,-0.394 0.133,-0.375 0.133,-0.351L0.133,-0.149C0.133,-0.125 0.14,-0.106 0.153,-0.092C0.166,-0.078 0.184,-0.071 0.207,-0.071C0.23,-0.071 0.248,-0.078 0.261,-0.092C0.274,-0.106 0.28,-0.125 0.28,-0.149L0.28,-0.351Z" style="fill-rule:nonzero;"/>
                </g>
                <g transform="matrix(125,0,0,125,471.7,2287.73)">
                    <path d="M0.194,0.01C0.146,0.01 0.107,-0.005 0.077,-0.035C0.047,-0.065 0.032,-0.104 0.032,-0.151C0.032,-0.178 0.039,-0.203 0.052,-0.226C0.065,-0.248 0.084,-0.266 0.108,-0.279C0.132,-0.292 0.159,-0.298 0.19,-0.298L0.265,-0.298L0.265,-0.353C0.265,-0.376 0.259,-0.394 0.246,-0.408C0.233,-0.422 0.215,-0.429 0.193,-0.429C0.172,-0.429 0.156,-0.423 0.145,-0.41C0.133,-0.398 0.126,-0.381 0.125,-0.36C0.124,-0.355 0.123,-0.352 0.121,-0.35C0.119,-0.349 0.116,-0.348 0.111,-0.348L0.053,-0.348C0.049,-0.348 0.046,-0.349 0.043,-0.352C0.041,-0.355 0.04,-0.358 0.04,-0.362C0.043,-0.406 0.059,-0.442 0.086,-0.469C0.114,-0.497 0.15,-0.511 0.194,-0.511C0.241,-0.511 0.278,-0.496 0.307,-0.466C0.336,-0.435 0.35,-0.396 0.35,-0.349L0.35,-0.148C0.35,-0.101 0.336,-0.063 0.308,-0.034C0.279,-0.005 0.241,0.01 0.194,0.01ZM0.193,-0.072C0.216,-0.072 0.233,-0.079 0.246,-0.093C0.259,-0.106 0.265,-0.125 0.265,-0.148L0.265,-0.221L0.193,-0.221C0.17,-0.221 0.152,-0.214 0.139,-0.201C0.125,-0.188 0.118,-0.171 0.118,-0.151C0.118,-0.127 0.125,-0.108 0.138,-0.094C0.151,-0.079 0.17,-0.072 0.193,-0.072Z" style="fill-rule:nonzero;"/>
                </g>
                <g transform="matrix(125,0,0,125,521.386,2287.73)">
                    <path d="M0.061,-0C0.052,-0 0.047,-0.005 0.047,-0.014L0.047,-0.348C0.047,-0.396 0.062,-0.435 0.091,-0.466C0.119,-0.496 0.157,-0.511 0.203,-0.511C0.249,-0.511 0.286,-0.496 0.316,-0.466C0.344,-0.435 0.359,-0.396 0.359,-0.348L0.359,-0.014C0.359,-0.005 0.354,-0 0.345,-0L0.287,-0C0.278,-0 0.273,-0.005 0.273,-0.014L0.273,-0.351C0.273,-0.375 0.267,-0.394 0.255,-0.408C0.242,-0.423 0.225,-0.43 0.203,-0.43C0.181,-0.43 0.164,-0.423 0.152,-0.408C0.139,-0.394 0.133,-0.375 0.133,-0.351L0.133,-0.014C0.133,-0.005 0.128,-0 0.119,-0L0.061,-0Z" style="fill-rule:nonzero;"/>
                </g>
                <g transform="matrix(125,0,0,125,574.072,2287.73)">
                    <path d="M0.194,0.01C0.146,0.01 0.107,-0.005 0.077,-0.035C0.047,-0.065 0.032,-0.104 0.032,-0.151C0.032,-0.178 0.039,-0.203 0.052,-0.226C0.065,-0.248 0.084,-0.266 0.108,-0.279C0.132,-0.292 0.159,-0.298 0.19,-0.298L0.265,-0.298L0.265,-0.353C0.265,-0.376 0.259,-0.394 0.246,-0.408C0.233,-0.422 0.215,-0.429 0.193,-0.429C0.172,-0.429 0.156,-0.423 0.145,-0.41C0.133,-0.398 0.126,-0.381 0.125,-0.36C0.124,-0.355 0.123,-0.352 0.121,-0.35C0.119,-0.349 0.116,-0.348 0.111,-0.348L0.053,-0.348C0.049,-0.348 0.046,-0.349 0.043,-0.352C0.041,-0.355 0.04,-0.358 0.04,-0.362C0.043,-0.406 0.059,-0.442 0.086,-0.469C0.114,-0.497 0.15,-0.511 0.194,-0.511C0.241,-0.511 0.278,-0.496 0.307,-0.466C0.336,-0.435 0.35,-0.396 0.35,-0.349L0.35,-0.148C0.35,-0.101 0.336,-0.063 0.308,-0.034C0.279,-0.005 0.241,0.01 0.194,0.01ZM0.193,-0.072C0.216,-0.072 0.233,-0.079 0.246,-0.093C0.259,-0.106 0.265,-0.125 0.265,-0.148L0.265,-0.221L0.193,-0.221C0.17,-0.221 0.152,-0.214 0.139,-0.201C0.125,-0.188 0.118,-0.171 0.118,-0.151C0.118,-0.127 0.125,-0.108 0.138,-0.094C0.151,-0.079 0.17,-0.072 0.193,-0.072Z" style="fill-rule:nonzero;"/>
                </g>
                <g transform="matrix(125,0,0,125,624.758,2287.73)">
                    <path d="M0.199,-0.511C0.246,-0.511 0.285,-0.496 0.314,-0.466C0.343,-0.435 0.358,-0.396 0.358,-0.348L0.358,0.048C0.358,0.097 0.344,0.137 0.315,0.166C0.286,0.196 0.248,0.211 0.199,0.211C0.152,0.211 0.115,0.196 0.086,0.167C0.057,0.138 0.042,0.099 0.04,0.05L0.04,0.048C0.04,0.04 0.044,0.036 0.053,0.036L0.112,0.036C0.121,0.036 0.125,0.041 0.126,0.05C0.127,0.075 0.135,0.094 0.148,0.108C0.161,0.122 0.178,0.129 0.199,0.129C0.222,0.129 0.239,0.122 0.253,0.108C0.266,0.095 0.272,0.076 0.272,0.051L0.272,-0.048C0.25,-0.025 0.223,-0.013 0.192,-0.013C0.147,-0.013 0.111,-0.028 0.082,-0.059C0.053,-0.09 0.039,-0.129 0.039,-0.176L0.039,-0.348C0.039,-0.396 0.054,-0.435 0.083,-0.466C0.112,-0.496 0.151,-0.511 0.199,-0.511ZM0.199,-0.094C0.222,-0.094 0.239,-0.101 0.253,-0.116C0.266,-0.13 0.272,-0.149 0.272,-0.173L0.272,-0.351C0.272,-0.375 0.266,-0.394 0.253,-0.408C0.239,-0.422 0.222,-0.429 0.199,-0.429C0.176,-0.429 0.158,-0.422 0.145,-0.408C0.132,-0.394 0.125,-0.375 0.125,-0.351L0.125,-0.173C0.125,-0.149 0.132,-0.13 0.145,-0.116C0.158,-0.101 0.176,-0.094 0.199,-0.094Z" style="fill-rule:nonzero;"/>
                </g>
                <g transform="matrix(125,0,0,125,676.444,2287.73)">
                    <path d="M0.197,0.01C0.15,0.01 0.112,-0.005 0.083,-0.035C0.054,-0.065 0.039,-0.104 0.039,-0.153L0.039,-0.349C0.04,-0.397 0.055,-0.436 0.084,-0.466C0.113,-0.495 0.152,-0.51 0.2,-0.51C0.246,-0.51 0.284,-0.495 0.314,-0.466C0.343,-0.436 0.358,-0.398 0.358,-0.352C0.358,-0.308 0.343,-0.272 0.314,-0.244C0.285,-0.215 0.246,-0.201 0.199,-0.201L0.125,-0.201L0.125,-0.149C0.125,-0.126 0.132,-0.107 0.145,-0.093C0.158,-0.078 0.175,-0.071 0.198,-0.071C0.218,-0.071 0.234,-0.078 0.248,-0.092C0.261,-0.105 0.268,-0.123 0.269,-0.145C0.27,-0.154 0.274,-0.158 0.283,-0.158L0.342,-0.158C0.351,-0.158 0.355,-0.154 0.355,-0.145C0.352,-0.098 0.337,-0.061 0.308,-0.033C0.279,-0.004 0.242,0.01 0.197,0.01ZM0.199,-0.279C0.222,-0.279 0.239,-0.285 0.253,-0.299C0.266,-0.312 0.272,-0.329 0.272,-0.35C0.272,-0.374 0.265,-0.393 0.252,-0.407C0.239,-0.422 0.221,-0.429 0.198,-0.429C0.175,-0.429 0.157,-0.422 0.144,-0.408C0.131,-0.394 0.125,-0.375 0.125,-0.35L0.125,-0.279L0.199,-0.279Z" style="fill-rule:nonzero;"/>
                </g>
                <g transform="matrix(125,0,0,125,727.13,2287.73)">
                    <path d="M0.061,-0C0.052,-0 0.047,-0.005 0.047,-0.014L0.047,-0.327C0.047,-0.38 0.063,-0.423 0.094,-0.455C0.125,-0.486 0.167,-0.502 0.218,-0.502L0.255,-0.502C0.264,-0.502 0.268,-0.497 0.268,-0.488L0.268,-0.434C0.268,-0.425 0.264,-0.421 0.255,-0.421L0.219,-0.421C0.193,-0.421 0.172,-0.413 0.157,-0.398C0.141,-0.382 0.133,-0.361 0.133,-0.334L0.133,-0.014C0.133,-0.005 0.128,-0 0.119,-0L0.061,-0Z" style="fill-rule:nonzero;"/>
                </g>
            </g>
        </g>
    </g>
</svg>
