<?xml version="1.0" encoding="UTF-8" standalone="no"?>
<!DOCTYPE svg PUBLIC "-//W3C//DTD SVG 1.1//EN" "http://www.w3.org/Graphics/SVG/1.1/DTD/svg11.dtd">
<svg width="100%" height="100%" viewBox="0 0 360 360" version="1.1" xmlns="http://www.w3.org/2000/svg" xmlns:xlink="http://www.w3.org/1999/xlink" xml:space="preserve" xmlns:serif="http://www.serif.com/" style="fill-rule:evenodd;clip-rule:evenodd;stroke-linejoin:round;stroke-miterlimit:2;">
    <g transform="matrix(1,0,0,1,-1704,0)">
        <g id="アートボード4" transform="matrix(1,0,0,1,-0.333333,0)">
            <rect x="1704.33" y="0" width="360" height="360" style="fill:none;"/>
            <g transform="matrix(1,0,0,1,0.440936,4.0253)">
                <path d="M1790.89,282.506L1797.38,282.699C1822.22,282.699 1849.1,275.697 1878.02,261.695C1906.94,247.692 1932.36,229.533 1954.26,207.216L1877.3,207.216L1896.85,183.915L2000.88,183.915C1969.36,221.219 1933.43,250.837 1893.09,272.771C1852.76,294.705 1814.21,305.671 1777.45,305.671L1771.56,305.542L1790.89,282.506ZM1756.64,168.804C1757.1,177.789 1758.56,186.581 1760.94,195.043C1752.86,207.159 1747.44,218.847 1744.7,230.107C1740.71,246.462 1743.38,259.315 1752.71,268.669C1761.02,277.001 1773.74,281.621 1790.89,282.506L1771.56,305.542C1730.83,304.272 1710.22,289.097 1709.73,260.054C1709.35,236.643 1722.06,209.568 1747.85,178.828C1750.69,175.451 1753.62,172.109 1756.64,168.804ZM1793.37,157.415C1788.53,161.978 1783.97,166.606 1779.69,171.298C1779.22,165.934 1779.18,160.475 1779.62,154.961L1793.37,157.415ZM1807.02,123.455C1806.93,123.893 1806.84,124.332 1806.77,124.775L1804.08,139.841L1789.65,137.267C1795.22,132.583 1801,127.979 1807.02,123.455ZM1937.53,58.476C1954.65,54.258 1971,52.15 1986.57,52.15C2007.03,52.15 2023.18,55.842 2035.04,63.226C2046.89,70.61 2054.57,82.452 2058.07,98.752L2024.49,116.474C2022.14,103.237 2015.82,93.2 2005.53,86.363C1995.24,79.526 1982.5,76.107 1967.29,76.107C1965.21,76.107 1963.09,76.163 1960.94,76.276C1953.95,69.463 1946.11,63.468 1937.53,58.476ZM1879.78,92.066C1875.8,89.336 1871.29,87.313 1866.27,85.986C1871.57,83.237 1876.9,80.636 1882.25,78.181L1879.78,92.066ZM1903.94,69.081C1905.65,70.386 1907.3,71.948 1908.89,73.793C1908.89,73.793 1908.89,73.793 1908.89,73.794C1911.54,76.868 1913.94,80.658 1916.06,85.05C1911.33,86.533 1906.49,88.202 1901.52,90.055C1900.84,90.309 1900.16,90.565 1899.48,90.823L1903.32,69.316L1903.94,69.081Z"/>
            </g>
            <g transform="matrix(1,0,0,1,0.440936,4.0253)">
                <path d="M1928.42,233.948L1924.62,233.27C1926.15,232.115 1927.67,230.943 1929.17,229.757L1928.42,233.948ZM1896.36,211.383L1893.45,227.707L1919,232.266C1922.84,229.447 1926.6,226.527 1930.28,223.509L1932.45,211.383L1896.36,211.383ZM1886.32,211.383L1883.71,225.97L1848.74,219.729L1862.39,143.234C1863.06,139.501 1863.18,136.947 1862.78,135.571C1862.37,134.195 1861.25,133.343 1859.41,133.015C1855.97,132.4 1853.69,135.222 1852.57,141.482L1838.92,217.976L1803.94,211.736L1819.07,126.971C1820.95,116.462 1825.67,108.445 1833.23,102.921C1840.79,97.397 1849.66,95.542 1859.82,97.355C1871.88,99.507 1880.17,106.704 1884.68,118.946C1889.71,113.681 1894.72,110.175 1899.71,108.429C1904.7,106.683 1910.53,106.404 1917.19,107.593C1927.76,109.479 1935.26,114.254 1939.7,121.92C1944.14,129.586 1945.24,139.679 1943.01,152.198L1938.09,179.749L1902.01,179.749L1907.1,151.212C1907.77,147.422 1907.92,144.856 1907.54,143.513C1907.15,142.171 1906.05,141.336 1904.21,141.008C1900.76,140.393 1898.52,143.014 1897.47,148.872L1891.17,184.204L1874.1,204.538C1873.06,205.778 1872.84,207.51 1873.52,208.977C1874.2,210.445 1875.68,211.383 1877.3,211.383L1886.32,211.383ZM1897.1,207.216L1901.26,183.915L1937.35,183.915L1933.19,207.216L1897.1,207.216ZM1877.3,207.216L1889.7,192.437L1887.06,207.216L1877.3,207.216Z" style="fill-rule:nonzero;"/>
            </g>
            <g transform="matrix(1,0,0,1,0.440936,4.0253)">
                <path d="M1910.27,243.407L1910.71,243.484C1905.46,251.188 1899.73,257.771 1893.6,262.972C1907.95,260.59 1921.48,255.173 1933.36,247.258C1920.47,256.683 1907.04,265.186 1893.09,272.771C1889.21,274.885 1885.33,276.898 1881.48,278.807C1873.28,279.12 1864.91,278.564 1856.51,277.063C1852.88,276.417 1849.33,275.609 1845.86,274.649C1856.28,271.346 1867,267.028 1878.02,261.695C1889.31,256.231 1900.06,250.134 1910.27,243.407ZM1983.48,209.253C1967.18,246.53 1932.37,272.511 1892.42,277.867C1893.31,277.394 1894.19,276.916 1895.09,276.432C1927.34,258.895 1956.8,236.505 1983.48,209.253ZM1838.74,272.436C1847.12,270.068 1855.71,267.011 1864.51,263.269L1869.35,236.105L1858.62,234.189L1853.72,261.65L1848.8,260.374C1846.37,258.724 1844.05,256.644 1841.85,254.076C1836.65,248.039 1832.27,239.416 1829.14,228.93L1817.29,226.814L1818.98,233.088C1821.01,239.652 1823.54,245.655 1826.55,251.001C1813.29,243.443 1802.03,233.061 1793.46,220.774C1791.55,218.028 1789.78,215.181 1788.14,212.261L1791.55,212.87C1791.39,211.786 1791.44,210.667 1791.64,209.54L1792.98,202.051L1782.38,200.16L1782.38,200.16C1776.22,184.717 1773.77,167.618 1775.95,150.102L1801.43,154.649L1803.35,143.917L1777.87,139.37C1781.88,122.18 1790.1,106.984 1801.21,94.624L1819.97,97.972C1821.75,96.089 1823.72,94.386 1825.86,92.827C1827.85,91.371 1829.91,90.094 1832.06,89.054L1810.8,85.261C1813.35,83.088 1816,81.03 1818.74,79.115C1831.04,70.545 1845.2,64.698 1860.27,62.196C1853.08,68.296 1846.44,76.297 1840.48,85.776C1844.95,84.512 1849.69,84.02 1854.69,84.276L1855.6,83.013C1862,74.639 1868.9,68.365 1875.66,64.603C1878.62,62.957 1881.51,61.808 1884.36,61.098C1886.04,61.222 1887.73,61.393 1889.42,61.605L1883.47,94.962C1885.22,96.471 1886.84,98.162 1888.34,100.017C1890.27,98.881 1892.2,97.937 1894.14,97.22L1900.15,63.52C1901.81,63.906 1903.45,64.332 1905.07,64.795C1907.49,66.449 1909.82,68.525 1912.03,71.093C1917.27,77.182 1921.68,85.903 1924.8,96.512L1929.6,98.076C1931.09,98.74 1932.59,99.405 1934.08,100.069L1937.42,102.02C1936.73,98.577 1935.87,95.256 1934.89,92.081C1932.86,85.517 1930.33,79.514 1927.32,74.168C1940.58,81.73 1951.84,92.108 1960.41,104.394C1962.32,107.141 1964.1,109.988 1965.73,112.908L1945.99,109.385C1947.71,111.282 1949.2,113.387 1950.52,115.656C1951.63,117.573 1952.6,119.606 1953.36,121.775L1971.49,125.011C1977.65,140.453 1980.1,157.552 1977.92,175.068L1952.44,170.521L1950.79,179.749L1991.95,179.749C2001.24,117.722 1959.51,59.198 1897.36,48.105C1834.13,36.826 1773.74,78.929 1762.45,142.156C1752.27,199.251 1785.61,254.034 1838.74,272.436ZM1904.26,242.334L1898.84,241.367L1898.27,242.156C1896.13,244.963 1893.92,247.534 1891.69,249.853C1895.97,247.447 1900.16,244.941 1904.26,242.334ZM1991.25,183.915C1990.27,189.159 1988.96,194.256 1987.33,199.19C1973.36,214.172 1958.6,227.757 1943.03,239.941L1943.07,239.908L1939.66,239.3C1940.18,238.336 1940.53,237.271 1940.73,236.144L1942.06,228.654L1952.66,230.546C1963.78,218.186 1971.99,202.99 1976,185.8L1965.44,183.915L1991.25,183.915Z"/>
            </g>
        </g>
    </g>
</svg>
