<?xml version="1.0" encoding="utf-8"?>
<!-- Generator: Adobe Illustrator 25.0.0, SVG Export Plug-In . SVG Version: 6.00 Build 0)  -->
<svg version="1.1" id="レイヤー_1" xmlns:serif="http://www.serif.com/"
	 xmlns="http://www.w3.org/2000/svg" xmlns:xlink="http://www.w3.org/1999/xlink" x="0px" y="0px" viewBox="0 0 595.3 841.9"
	 style="enable-background:new 0 0 595.3 841.9;" xml:space="preserve">
<style type="text/css">
	.st0{fill:none;}
	.st1{fill-rule:evenodd;clip-rule:evenodd;fill:#FFFFFF;}
	.st2{fill:#FFFFFF;}
</style>
<g transform="matrix(1,0,0,1,-1704,0)">
	<g id="アートボード4" transform="matrix(1,0,0,1,-0.333333,0)">
		<rect x="1704.3" y="123.3" class="st0" width="595.3" height="595.3"/>
		<g transform="matrix(1,0,0,1,0.440936,4.0253)">
			<path class="st1" d="M1847.7,593.1l10.7,0.3c41.1,0,85.5-11.6,133.3-34.7c47.8-23.2,89.9-53.2,126.1-90.1h-127.3L2023,430h172
				c-52.1,61.7-111.5,110.7-178.2,146.9c-66.7,36.3-130.4,54.4-191.2,54.4l-9.7-0.2L1847.7,593.1z M1791.1,405.1
				c0.8,14.9,3.2,29.4,7.1,43.4c-13.4,20-22.3,39.4-26.9,58c-6.6,27-2.2,48.3,13.2,63.8c13.7,13.8,34.8,21.4,63.1,22.9l-32,38.1
				c-67.3-2.1-101.4-27.2-102.2-75.2c-0.6-38.7,20.4-83.5,63-134.3C1781.3,416.1,1786.1,410.5,1791.1,405.1z M1851.8,386.2
				c-8,7.5-15.5,15.2-22.6,23c-0.8-8.9-0.8-17.9-0.1-27L1851.8,386.2z M1874.4,330.1c-0.1,0.7-0.3,1.5-0.4,2.2l-4.4,24.9l-23.9-4.3
				C1854.9,345.2,1864.5,337.6,1874.4,330.1z M2090.2,222.6c28.3-7,55.3-10.5,81.1-10.5c33.8,0,60.5,6.1,80.1,18.3
				c19.6,12.2,32.3,31.8,38.1,58.7l-55.5,29.3c-3.9-21.9-14.3-38.5-31.4-49.8c-17-11.3-38.1-17-63.2-17c-3.4,0-6.9,0.1-10.5,0.3
				C2117.4,240.8,2104.4,230.9,2090.2,222.6z M1994.7,278.2c-6.6-4.5-14-7.9-22.3-10.1c8.8-4.5,17.6-8.8,26.4-12.9L1994.7,278.2z
				 M2034.7,240.2c2.8,2.2,5.6,4.7,8.2,7.8c0,0,0,0,0,0c4.4,5.1,8.4,11.3,11.9,18.6c-7.8,2.5-15.8,5.2-24,8.3
				c-1.1,0.4-2.2,0.8-3.4,1.3l6.3-35.6L2034.7,240.2z"/>
		</g>
		<g transform="matrix(1,0,0,1,0.440936,4.0253)">
			<path class="st2" d="M2075.2,512.8l-6.3-1.1c2.5-1.9,5-3.8,7.5-5.8L2075.2,512.8z M2022.1,475.5l-4.8,27l42.2,7.5
				c6.3-4.7,12.6-9.5,18.7-14.5l3.6-20.1H2022.1z M2005.5,475.5l-4.3,24.1l-57.8-10.3l22.6-126.5c1.1-6.2,1.3-10.4,0.6-12.7
				c-0.7-2.3-2.5-3.7-5.6-4.2c-5.7-1-9.5,3.6-11.3,14l-22.6,126.5l-57.8-10.3l25-140.2c3.1-17.4,10.9-30.6,23.4-39.8
				c12.5-9.1,27.2-12.2,44-9.2c19.9,3.6,33.6,15.5,41.1,35.7c8.3-8.7,16.6-14.5,24.9-17.4c8.3-2.9,17.9-3.3,28.9-1.4
				c17.5,3.1,29.9,11,37.2,23.7c7.3,12.7,9.2,29.4,5.5,50.1l-8.1,45.6h-59.7l8.4-47.2c1.1-6.3,1.4-10.5,0.7-12.7
				c-0.6-2.2-2.5-3.6-5.5-4.1c-5.7-1-9.4,3.3-11.1,13l-10.4,58.4l-28.2,33.6c-1.7,2.1-2.1,4.9-1,7.3c1.1,2.4,3.6,4,6.3,4H2005.5z
				 M2023.4,468.6l6.9-38.5h59.7l-6.9,38.5H2023.4z M1990.6,468.6l20.5-24.4l-4.4,24.4H1990.6z"/>
		</g>
		<g transform="matrix(1,0,0,1,0.440936,4.0253)">
			<path class="st1" d="M2045.1,528.4l0.7,0.1c-8.7,12.7-18.2,23.6-28.3,32.2c23.7-3.9,46.1-12.9,65.7-26
				c-21.3,15.6-43.5,29.6-66.6,42.2c-6.4,3.5-12.8,6.8-19.2,10c-13.6,0.5-27.4-0.4-41.3-2.9c-6-1.1-11.9-2.4-17.6-4
				c17.2-5.5,35-12.6,53.2-21.4C2010.5,549.6,2028.3,539.5,2045.1,528.4z M2166.2,471.9c-27,61.6-84.5,104.6-150.6,113.5
				c1.5-0.8,2.9-1.6,4.4-2.4C2073.4,554,2122.1,517,2166.2,471.9z M1926.9,576.4c13.9-3.9,28.1-9,42.6-15.2l8-44.9l-17.7-3.2
				l-8.1,45.4l-8.1-2.1c-4-2.7-7.9-6.2-11.5-10.4c-8.6-10-15.8-24.2-21-41.6l-19.6-3.5l2.8,10.4c3.4,10.9,7.5,20.8,12.5,29.6
				c-21.9-12.5-40.5-29.7-54.7-50c-3.2-4.5-6.1-9.2-8.8-14.1l5.6,1c-0.3-1.8-0.2-3.6,0.1-5.5l2.2-12.4l-17.5-3.1l0,0
				c-10.2-25.5-14.2-53.8-10.6-82.8l42.1,7.5l3.2-17.7l-42.1-7.5c6.6-28.4,20.2-53.6,38.6-74l31,5.5c2.9-3.1,6.2-5.9,9.7-8.5
				c3.3-2.4,6.7-4.5,10.3-6.2l-35.2-6.3c4.2-3.6,8.6-7,13.1-10.2c20.3-14.2,43.8-23.8,68.7-28c-11.9,10.1-22.9,23.3-32.7,39
				c7.4-2.1,15.2-2.9,23.5-2.5l1.5-2.1c10.6-13.8,22-24.2,33.2-30.4c4.9-2.7,9.7-4.6,14.4-5.8c2.8,0.2,5.6,0.5,8.4,0.8l-9.8,55.2
				c2.9,2.5,5.6,5.3,8.1,8.4c3.2-1.9,6.4-3.4,9.6-4.6l9.9-55.7c2.7,0.6,5.5,1.3,8.1,2.1c4,2.7,7.9,6.2,11.5,10.4
				c8.7,10.1,16,24.5,21.1,42l7.9,2.6c2.5,1.1,4.9,2.2,7.4,3.3l5.5,3.2c-1.1-5.7-2.6-11.2-4.2-16.4c-3.4-10.9-7.5-20.8-12.5-29.6
				c21.9,12.5,40.5,29.7,54.7,50c3.2,4.5,6.1,9.2,8.8,14.1l-32.6-5.8c2.8,3.1,5.3,6.6,7.5,10.4c1.8,3.2,3.4,6.5,4.7,10.1l30,5.4
				c10.2,25.5,14.2,53.8,10.6,82.8l-42.1-7.5l-2.7,15.3h68.1c15.4-102.6-53.6-199.3-156.4-217.7c-104.6-18.7-204.4,51-223.1,155.5
				C1783.9,455.4,1839,546,1926.9,576.4z M2035.2,526.6l-9-1.6l-0.9,1.3c-3.5,4.6-7.2,8.9-10.9,12.7
				C2021.5,535.1,2028.4,531,2035.2,526.6z M2179.1,430c-1.6,8.7-3.8,17.1-6.5,25.3c-23.1,24.8-47.5,47.2-73.3,67.4l0.1-0.1l-5.6-1
				c0.9-1.6,1.4-3.4,1.8-5.2l2.2-12.4l17.5,3.1c18.4-20.4,32-45.6,38.6-74l-17.5-3.1H2179.1z"/>
		</g>
	</g>
</g>
</svg>
