<?xml version="1.0" encoding="UTF-8" standalone="no"?>
<!DOCTYPE svg PUBLIC "-//W3C//DTD SVG 1.1//EN" "http://www.w3.org/Graphics/SVG/1.1/DTD/svg11.dtd">
<svg width="100%" height="100%" viewBox="0 0 1160 871" version="1.1" xmlns="http://www.w3.org/2000/svg" xmlns:xlink="http://www.w3.org/1999/xlink" xml:space="preserve" xmlns:serif="http://www.serif.com/" style="fill-rule:evenodd;clip-rule:evenodd;stroke-linejoin:round;stroke-miterlimit:2;">
    <g transform="matrix(1,0,0,1,-1600,-88)">
        <g id="アートボード3" transform="matrix(1,0,0,1,-0.0842081,99.3538)">
            <rect x="1600.08" y="-11.354" width="1159.96" height="870.575" style="fill:none;"/>
            <clipPath id="_clip1">
                <rect x="1600.08" y="-11.354" width="1159.96" height="870.575"/>
            </clipPath>
            <g clip-path="url(#_clip1)">
                <g id="following-step02.svg" transform="matrix(4.16667,0,0,4.16667,2180.15,424.58)">
                    <g transform="matrix(1,0,0,1,-139.196,-104.469)">
                        <clipPath id="_clip2">
                            <rect x="0" y="0" width="278.391" height="208.938"/>
                        </clipPath>
                        <g clip-path="url(#_clip2)">
                            <g>
                                <g transform="matrix(0.7071,-0.7071,0.7071,0.7071,-34.5861,27.1879)">
                                    <rect x="10.449" y="50.551" width="10.213" height="9.528" style="fill:rgb(225,230,251);"/>
                                </g>
                                <g transform="matrix(0.7071,-0.7071,0.7071,0.7071,-38.3018,35.3424)">
                                    <rect x="18.38" y="59.11" width="10.213" height="9.528" style="fill:rgb(225,230,251);"/>
                                </g>
                                <g transform="matrix(0.7071,-0.7071,0.7071,0.7071,-25.6956,31.5378)">
                                    <rect x="20.092" y="41.993" width="10.213" height="9.528" style="fill:rgb(225,230,251);"/>
                                </g>
                                <g transform="matrix(0.7071,-0.7071,0.7071,0.7071,-45.9944,229.016)">
                                    <rect x="248.372" y="165.233" width="10.213" height="9.528" style="fill:rgb(225,230,251);"/>
                                </g>
                                <g transform="matrix(0.7071,-0.7071,0.7071,0.7071,-49.706,237.168)">
                                    <rect x="256.302" y="173.792" width="10.213" height="9.528" style="fill:rgb(225,230,251);"/>
                                </g>
                                <g transform="matrix(0.7071,-0.7071,0.7071,0.7071,-58.2656,233.624)">
                                    <rect x="247.744" y="182.35" width="10.213" height="9.528" style="fill:rgb(225,230,251);"/>
                                </g>
                                <rect x="71.214" y="15.519" width="69.608" height="35.945" style="fill:rgb(225,230,251);"/>
                                <rect x="29.563" y="150.171" width="26.246" height="58.197" style="fill:rgb(225,230,251);"/>
                                <path d="M42.115,155.306C42.115,155.306 19.293,118.219 18.152,108.52C17.011,98.82 15.87,95.397 15.87,95.397C15.87,95.397 22.716,94.256 24.999,99.391C27.281,104.526 34.127,98.25 36.41,111.943C36.41,111.943 36.98,118.79 42.115,116.508C47.25,114.226 42.115,155.306 42.115,155.306Z" style="fill:rgb(121,203,118);fill-rule:nonzero;"/>
                                <path d="M44.968,161.011C44.968,161.011 28.65,130.772 23.287,118.79C19.293,109.889 15.87,95.397 15.87,95.397C15.87,95.397 8.966,97.908 9.593,103.385C10.164,108.52 5.029,110.232 6.17,116.508C7.425,123.297 17.239,124.553 11.305,130.772C7.711,134.537 10.392,140.928 13.017,145.036C14.671,147.66 22.944,150.057 21.005,149.03C16.554,146.747 44.968,161.011 44.968,161.011Z" style="fill:rgb(95,182,87);fill-rule:nonzero;"/>
                                <g transform="matrix(0.9084,-0.4182,0.4182,0.9084,-48.5004,23.0807)">
                                    <ellipse cx="28.422" cy="122.213" rx="1.141" ry="14.834" style="fill:rgb(113,188,118);"/>
                                </g>
                                <path d="M49.875,179.554C49.875,179.554 15.128,153.309 10.563,144.693C5.999,136.078 3.66,133.282 3.66,133.282C3.66,133.282 9.651,129.745 13.644,133.682C17.638,137.618 21.746,129.288 28.821,141.213C28.821,141.213 29.62,149.6 34.755,147.888C40.004,146.12 49.875,179.554 49.875,179.554Z" style="fill:rgb(124,204,132);fill-rule:nonzero;"/>
                                <path d="M54.61,183.833C54.61,183.833 28.422,161.582 19.065,152.396C12.104,145.549 3.66,133.282 3.66,133.282C3.66,133.282 -1.818,138.132 0.693,142.982C3.089,147.546 -1.076,151.026 2.29,156.447C5.885,162.323 15.527,159.927 12.275,167.858C10.278,172.651 15.128,177.671 19.065,180.524C21.575,182.35 30.134,181.551 27.965,181.323C22.944,180.867 54.61,183.833 54.61,183.833Z" style="fill:rgb(95,182,87);fill-rule:nonzero;"/>
                                <g transform="matrix(0.6942,-0.7198,0.7198,0.6942,-108.996,64.6794)">
                                    <ellipse cx="21.632" cy="160.612" rx="1.141" ry="14.834" style="fill:rgb(121,203,118);"/>
                                </g>
                                <path d="M230.97,109.718C230.97,109.718 258.071,65.614 259.84,53.861C261.609,42.107 263.035,37.999 263.035,37.999C263.035,37.999 255.504,36.287 252.708,42.449C249.912,48.611 242.666,40.681 239.471,57.227C239.471,57.227 238.501,65.557 232.909,62.533C227.318,59.509 230.97,109.718 230.97,109.718Z" style="fill:rgb(121,203,118);fill-rule:nonzero;"/>
                                <path d="M227.546,116.508C227.546,116.508 247.116,80.449 253.678,66.128C258.528,55.515 263.035,37.999 263.035,37.999C263.035,37.999 270.566,41.365 269.596,47.984C268.683,54.203 274.332,56.542 272.734,64.131C271.023,72.347 260.068,73.431 266.344,81.247C270.11,85.983 266.858,93.685 263.72,98.535C261.723,101.616 252.48,104.184 254.648,103.043C259.669,100.475 227.546,116.508 227.546,116.508Z" style="fill:rgb(98,194,89);fill-rule:nonzero;"/>
                                <path d="M246.66,69.437C242.495,78.337 239.642,85.812 240.27,86.154C240.897,86.496 244.777,79.593 248.942,70.692C253.107,61.791 255.96,54.317 255.332,53.918C254.705,53.518 250.825,60.536 246.66,69.437Z" style="fill:rgb(113,188,118);fill-rule:nonzero;"/>
                                <path d="M221.156,138.874C221.156,138.874 260.981,108.52 266.458,98.193C271.936,87.866 274.674,84.614 274.674,84.614C274.674,84.614 268.227,80.049 263.605,84.671C258.984,89.292 254.876,78.965 246.375,93.172C246.375,93.172 245.119,103.328 239.471,100.989C233.708,98.649 221.156,138.874 221.156,138.874Z" style="fill:rgb(121,203,118);fill-rule:nonzero;"/>
                                <path d="M215.736,143.894C215.736,143.894 245.861,117.991 256.702,107.208C264.747,99.22 274.731,84.671 274.731,84.671C274.731,84.671 280.551,90.833 277.527,96.652C274.617,102.13 279.068,106.523 275.131,112.97C270.852,119.931 260.296,116.622 263.548,126.435C265.488,132.369 259.897,138.246 255.389,141.555C252.537,143.666 243.065,142.297 245.519,142.126C250.939,141.669 215.736,143.894 215.736,143.894Z" style="fill:rgb(98,194,89);fill-rule:nonzero;"/>
                                <path d="M255.732,113.769C249.227,120.73 244.321,126.778 244.777,127.348C245.234,127.919 250.939,122.727 257.443,115.766C263.948,108.805 268.855,102.757 268.398,102.187C267.942,101.616 262.236,106.808 255.732,113.769Z" style="fill:rgb(113,188,118);fill-rule:nonzero;"/>
                                <rect x="60.373" y="150.171" width="43.933" height="58.197" style="fill:rgb(186,197,244);"/>
                                <rect x="156.227" y="150.741" width="43.933" height="58.197" style="fill:rgb(225,230,251);"/>
                                <rect x="144.815" y="15.519" width="28.528" height="36.516" style="fill:rgb(225,230,251);"/>
                                <rect x="40.404" y="45.759" width="199.124" height="146.633" style="fill:rgb(186,197,244);"/>
                                <rect x="45.539" y="45.759" width="193.989" height="146.633" style="fill:rgb(248,248,255);"/>
                                <rect x="47.25" y="48.041" width="189.996" height="10.27" style="fill:white;"/>
                                <rect x="47.25" y="57.74" width="189.996" height="132.369" style="fill:rgb(255,252,138);"/>
                            </g>
                            <g id="Layer_3">
                                <rect x="78.631" y="62.875" width="23.393" height="26.246" style="fill:rgb(186,197,244);"/>
                                <rect x="104.876" y="62.875" width="23.393" height="26.246" style="fill:rgb(186,197,244);"/>
                                <rect x="130.552" y="62.875" width="23.393" height="26.246" style="fill:rgb(186,197,244);"/>
                                <rect x="156.797" y="62.875" width="23.393" height="26.246" style="fill:white;"/>
                                <rect x="182.472" y="62.875" width="23.393" height="26.246" style="fill:white;"/>
                                <rect x="208.718" y="62.875" width="23.393" height="26.246" style="fill:white;"/>
                                <rect x="78.631" y="93.115" width="23.393" height="26.246" style="fill:white;"/>
                                <rect x="104.876" y="93.115" width="23.393" height="26.246" style="fill:white;"/>
                                <rect x="130.552" y="93.115" width="23.393" height="26.246" style="fill:rgb(248,248,255);"/>
                                <rect x="156.797" y="93.115" width="23.393" height="26.246" style="fill:white;"/>
                                <rect x="182.472" y="93.115" width="23.393" height="26.246" style="fill:white;"/>
                                <rect x="208.718" y="93.115" width="23.393" height="26.246" style="fill:white;"/>
                                <rect x="78.631" y="122.213" width="23.393" height="26.246" style="fill:white;"/>
                                <rect x="104.876" y="122.213" width="23.393" height="26.246" style="fill:white;"/>
                                <rect x="130.552" y="122.213" width="23.393" height="26.246" style="fill:rgb(248,248,255);"/>
                                <rect x="156.797" y="122.213" width="23.393" height="26.246" style="fill:white;"/>
                                <rect x="182.472" y="122.213" width="23.393" height="26.246" style="fill:rgb(248,248,255);"/>
                                <rect x="208.718" y="122.213" width="23.393" height="26.246" style="fill:white;"/>
                                <rect x="79.201" y="151.882" width="23.393" height="26.246" style="fill:rgb(248,248,255);"/>
                                <rect x="105.447" y="151.882" width="23.393" height="26.246" style="fill:rgb(248,248,255);"/>
                                <rect x="131.122" y="151.882" width="23.393" height="26.246" style="fill:white;"/>
                                <rect x="157.368" y="151.882" width="23.393" height="26.246" style="fill:white;"/>
                                <rect x="183.043" y="151.882" width="23.393" height="26.246" style="fill:rgb(186,197,244);"/>
                                <rect x="209.288" y="151.882" width="23.393" height="26.246" style="fill:white;"/>
                                <circle cx="52.671" cy="53.461" r="1.997" style="fill:rgb(186,197,244);"/>
                                <circle cx="58.947" cy="53.461" r="1.997" style="fill:rgb(186,197,244);"/>
                                <circle cx="65.223" cy="53.461" r="1.997" style="fill:rgb(186,197,244);"/>
                                <path d="M55.523,92.544L71.499,92.544C72.925,92.544 74.066,93.685 74.066,95.112C74.066,96.538 72.925,97.679 71.499,97.679L55.523,97.679C54.097,97.679 52.956,96.538 52.956,95.112C52.956,93.743 54.097,92.544 55.523,92.544Z" style="fill:white;fill-rule:nonzero;"/>
                                <path d="M55.523,122.213L71.499,122.213C72.925,122.213 74.066,123.354 74.066,124.781C74.066,126.207 72.925,127.348 71.499,127.348L55.523,127.348C54.097,127.348 52.956,126.207 52.956,124.781C52.956,123.411 54.097,122.213 55.523,122.213Z" style="fill:white;fill-rule:nonzero;"/>
                                <path d="M55.523,151.882L71.499,151.882C72.925,151.882 74.066,153.023 74.066,154.45C74.066,155.876 72.925,157.017 71.499,157.017L55.523,157.017C54.097,157.017 52.956,155.876 52.956,154.45C52.956,153.08 54.097,151.882 55.523,151.882Z" style="fill:white;fill-rule:nonzero;"/>
                                <path d="M82.91,94.827L92.039,94.827C93.123,94.827 94.036,95.739 94.036,96.824C94.036,97.908 93.123,98.82 92.039,98.82L82.91,98.82C81.826,98.82 80.913,97.908 80.913,96.824C80.913,95.739 81.826,94.827 82.91,94.827Z" style="fill:rgb(186,197,244);fill-rule:nonzero;"/>
                                <path d="M82.339,102.244L86.333,102.244C87.132,102.244 87.76,102.871 87.76,103.67C87.76,104.469 87.132,105.097 86.333,105.097L82.339,105.097C81.541,105.097 80.913,104.469 80.913,103.67C80.913,102.928 81.541,102.244 82.339,102.244Z" style="fill:rgb(186,197,244);fill-rule:nonzero;"/>
                                <path d="M109.441,94.827L118.57,94.827C119.54,94.827 120.282,95.568 120.282,96.538C120.282,97.508 119.54,98.25 118.57,98.25L109.441,98.25C108.471,98.25 107.729,97.508 107.729,96.538C107.729,95.625 108.471,94.827 109.441,94.827Z" style="fill:rgb(186,197,244);fill-rule:nonzero;"/>
                                <path d="M187.037,155.876L196.166,155.876C197.136,155.876 197.877,156.618 197.877,157.588C197.877,158.558 197.136,159.3 196.166,159.3L187.037,159.3C186.067,159.3 185.325,158.558 185.325,157.588C185.325,156.675 186.067,155.876 187.037,155.876Z" style="fill:white;fill-rule:nonzero;"/>
                                <path d="M212.712,125.066L221.841,125.066C222.811,125.066 223.552,125.808 223.552,126.778C223.552,127.748 222.811,128.489 221.841,128.489L212.712,128.489C211.742,128.489 211,127.748 211,126.778C211,125.865 211.742,125.066 212.712,125.066Z" style="fill:rgb(245,245,252);fill-rule:nonzero;"/>
                                <path d="M212.141,95.397L221.27,95.397C222.24,95.397 222.982,96.139 222.982,97.109C222.982,98.079 222.24,98.82 221.27,98.82L212.141,98.82C211.171,98.82 210.43,98.079 210.43,97.109C210.43,96.196 211.171,95.397 212.141,95.397Z" style="fill:rgb(245,245,252);fill-rule:nonzero;"/>
                                <path d="M186.466,95.397L195.595,95.397C196.565,95.397 197.307,96.139 197.307,97.109C197.307,98.079 196.565,98.82 195.595,98.82L186.466,98.82C185.496,98.82 184.754,98.079 184.754,97.109C184.754,96.196 185.496,95.397 186.466,95.397Z" style="fill:rgb(245,245,252);fill-rule:nonzero;"/>
                                <circle cx="110.012" cy="102.814" r="2.282" style="fill:rgb(186,197,244);"/>
                                <circle cx="161.932" cy="98.82" r="2.282" style="fill:rgb(186,197,244);"/>
                                <circle cx="169.92" cy="98.82" r="2.282" style="fill:rgb(186,197,244);"/>
                                <circle cx="169.92" cy="127.348" r="2.282" style="fill:rgb(186,197,244);"/>
                                <circle cx="161.932" cy="127.348" r="2.282" style="fill:rgb(186,197,244);"/>
                                <circle cx="169.349" cy="156.447" r="2.282" style="fill:rgb(186,197,244);"/>
                                <circle cx="161.362" cy="156.447" r="2.282" style="fill:rgb(186,197,244);"/>
                                <circle cx="91.754" cy="157.017" r="2.282" style="fill:rgb(186,197,244);"/>
                                <circle cx="83.766" cy="157.017" r="2.282" style="fill:rgb(186,197,244);"/>
                                <circle cx="161.932" cy="68.01" r="2.282" style="fill:rgb(186,197,244);"/>
                                <circle cx="135.116" cy="68.01" r="2.282" style="fill:white;"/>
                                <circle cx="143.104" cy="68.01" r="2.282" style="fill:white;"/>
                                <circle cx="109.441" cy="68.01" r="2.282" style="fill:white;"/>
                                <circle cx="117.429" cy="68.01" r="2.282" style="fill:white;"/>
                                <circle cx="83.766" cy="68.01" r="2.282" style="fill:white;"/>
                                <circle cx="91.754" cy="68.01" r="2.282" style="fill:white;"/>
                                <g transform="matrix(1,0,0,1,170.188,86.6882)">
                                    <text x="0px" y="0px" style="font-family:'Consolas', monospace;font-size:15.976px;fill:rgb(188,198,240);">4</text>
                                </g>
                                <g transform="matrix(1,0,0,1,119.409,86.6882)">
                                    <text x="0px" y="0px" style="font-family:'Consolas', monospace;font-size:15.976px;fill:white;">2</text>
                                </g>
                                <g transform="matrix(1,0,0,1,92.7864,116.243)">
                                    <text x="0px" y="0px" style="font-family:'Consolas', monospace;font-size:15.976px;fill:rgb(188,198,240);">7</text>
                                </g>
                                <g transform="matrix(1,0,0,1,165.241,116.277)">
                                    <text x="0px" y="0px" style="font-family:'Consolas', monospace;font-size:15.976px;fill:rgb(188,198,240);">10</text>
                                </g>
                                <g transform="matrix(1,0,0,1,141.078,145.815)">
                                    <text x="0px" y="0px" style="font-family:'Consolas', monospace;font-size:15.976px;fill:rgb(224,64,251);">15</text>
                                </g>
                                <g transform="matrix(1,0,0,1,218.104,146.956)">
                                    <text x="0px" y="0px" style="font-family:'Consolas', monospace;font-size:15.976px;fill:rgb(188,198,240);">18</text>
                                </g>
                                <g transform="matrix(1,0,0,1,111.267,173.995)">
                                    <text x="0px" y="0px" style="font-family:'Consolas', monospace;font-size:15.976px;fill:rgb(188,198,240);">2</text>
                                </g>
                                <g transform="matrix(1,0,0,1,117.959,173.995)">
                                    <text x="0px" y="0px" style="font-family:'Consolas', monospace;font-size:15.976px;fill:rgb(188,198,240);">0</text>
                                </g>
                            </g>
                            <g id="man">
                                <path d="M217.562,56.428L174.199,62.818C172.545,63.047 171.346,64.701 171.575,66.527L177.965,117.307C178.193,119.132 179.734,120.388 181.388,120.102L224.751,113.712C226.405,113.484 227.603,111.829 227.375,110.003L220.985,59.224C220.757,57.455 219.216,56.2 217.562,56.428Z" style="fill:rgb(188,198,240);fill-rule:nonzero;"/>
                                <g>
                                    <path d="M238.159,195.073C239.471,195.359 243.921,193.818 244.663,193.077C244.891,192.848 245.119,192.107 245.291,191.821C245.462,190.851 245.918,191.365 246.318,191.251C247.63,190.965 251.11,189.996 252.708,190.908C252.993,191.65 253.05,192.335 253.221,192.791C253.678,194.674 253.906,196.557 254.077,198.44C254.191,199.638 253.45,200.665 252.365,200.779C252.023,200.779 251.624,200.779 251.281,200.722C248.486,199.98 242.894,199.809 240.726,198.839C237.075,197.869 235.021,195.815 238.159,195.073Z" style="fill:rgb(75,68,190);fill-rule:nonzero;"/>
                                    <path d="M194.967,197.299C196.223,197.641 200.844,196.443 201.586,195.758C201.871,195.53 202.099,194.845 202.328,194.56C202.556,193.647 202.955,194.104 203.412,194.046C204.724,193.818 208.261,193.077 209.859,194.104C210.144,194.845 210.087,195.587 210.258,195.986C210.544,197.869 210.772,199.809 210.829,201.692C210.886,202.89 210.03,203.86 208.946,203.917C208.604,203.917 208.204,203.917 207.862,203.803C205.123,202.89 199.532,202.32 197.421,201.235C193.769,200.037 191.829,197.812 194.967,197.299Z" style="fill:rgb(75,68,190);fill-rule:nonzero;"/>
                                </g>
                                <path d="M252.936,191.023C250.768,191.365 245.462,191.422 245.462,191.422C245.462,191.422 245.119,188.626 243.522,183.263C241.867,177.843 233.651,160.783 233.651,160.783C231.94,157.987 230.171,152.225 230.171,152.225L227.717,130.144C227.717,130.144 214.652,152.168 214.88,157.188C215.051,162.209 211.856,181.722 211.856,181.722C211.514,184.632 209.916,194.332 209.916,194.332C207.52,193.989 205.066,193.932 202.613,194.104C202.955,190.11 204.268,173.621 204.268,173.621C204.268,173.621 205.123,160.84 205.295,153.08C205.466,145.321 210.601,128.889 214.024,121.415C214.481,120.159 214.88,118.847 215.165,117.535L245.633,121.7C244.948,123.811 244.378,125.922 243.978,128.09C242.21,137.847 240.954,154.222 240.954,154.222C245.747,160.041 248.714,171.053 248.714,171.053C250.597,177.671 252.936,191.023 252.936,191.023Z" style="fill:url(#_Linear3);fill-rule:nonzero;"/>
                                <g>
                                    <path d="M219.045,55.858C223.724,54.888 228.573,56.713 228.573,56.713L229.372,56.999L234.393,63.959L229.771,62.647C228.516,62.191 226.12,61.449 224.979,61.563C224.123,61.506 222.183,61.962 221.27,61.107C220.585,60.764 220.414,60.137 218.988,58.596C217.961,57.341 218.246,56.999 217.847,56.827C217.276,56.542 217.733,55.972 219.045,55.858Z" style="fill:url(#_Linear4);fill-rule:nonzero;"/>
                                    <path d="M202.442,117.421C202.499,117.135 203.412,117.307 203.526,117.078C204.496,115.595 205.694,113.655 208.147,112.742C208.832,112.514 209.574,112.343 210.315,112.229L211.97,115.367C211.742,115.937 211.514,116.451 211.171,116.907C210.144,118.391 208.033,120.388 204.153,119.817C203.298,119.76 202.328,118.448 202.442,117.421Z" style="fill:url(#_Linear5);fill-rule:nonzero;"/>
                                    <path d="M237.132,47.642C237.702,47.642 249.399,57.398 249.513,58.482C249.513,59.053 249.57,61.563 249.969,63.161C250.369,64.701 251.51,66.869 251.51,66.869C251.51,66.869 250.483,68.923 247.858,69.323C245.348,69.722 241.981,68.809 241.981,68.809C241.981,68.809 242.78,63.389 241.81,62.818C240.954,62.305 240.726,62.818 237.873,60.251C235.021,57.683 235.933,51.008 235.991,50.608C235.991,50.152 236.561,47.642 237.132,47.642Z" style="fill:url(#_Linear6);fill-rule:nonzero;"/>
                                </g>
                                <path d="M223.781,93.343C227.603,89.577 230,77.938 231.198,75.028C232.396,72.118 234.336,71.263 235.135,70.977C235.534,70.806 237.588,70.179 239.186,69.722L227.832,62.02C226.291,58.881 229.315,56.999 229.315,56.999L242.21,63.959L242.21,68.695L246.375,67.953L251.396,66.869C252.936,66.47 254.477,66.242 256.074,66.071C256.702,66.013 257.386,66.071 258.014,66.356L258.356,66.47C259.155,66.755 259.783,67.383 260.182,68.182C260.981,70.064 261.551,72.118 261.78,74.229C262.236,77.596 259.84,85.184 257.443,90.719C256.359,93.058 252.251,105.154 251.224,108.178C246.203,120.844 245.804,121.814 245.804,121.814C230.342,121.643 215.222,117.934 215.222,117.934C214.538,116.565 217.048,112.514 217.048,112.514L212.369,116.736C210.315,117.421 208.661,112.514 208.661,112.514C208.661,112.514 220.528,96.481 223.781,93.343Z" style="fill:url(#_Linear7);fill-rule:nonzero;"/>
                                <path d="M251.681,48.212C251.453,47.699 250.882,46.615 250.54,46.215C249.969,45.588 249.399,44.96 248.771,44.389C248.2,43.99 246.774,43.191 246.203,42.906C244.264,42.278 241.639,42.906 239.699,43.02C237.93,42.906 236.675,45.245 235.991,46.786C235.306,48.326 236.618,48.155 236.504,49.353C236.504,49.581 237.075,49.924 237.588,50.209C238.102,50.494 239.528,53.005 240.041,54.146C240.555,51.293 242.324,56.371 241.981,56.999C242.666,57.512 243.522,59.566 244.834,60.194C245.69,59.794 247.345,58.197 249.57,58.653C249.741,58.197 251.909,56.485 252.137,53.518C252.194,52.662 252.365,49.524 251.681,48.212Z" style="fill:url(#_Linear8);fill-rule:nonzero;"/>
                                <path d="M245.005,61.107C245.005,61.107 243.065,62.99 241.867,62.99L242.153,64.587L242.095,66.926C242.095,66.926 242.837,65.614 243.807,64.302C244.378,63.332 244.834,62.248 245.005,61.107Z" style="fill-opacity:0.07;fill-rule:nonzero;"/>
                                <path d="M237.873,84.557C237.873,84.557 235.42,92.601 227.774,100.989C220.129,109.376 218.303,111.087 218.303,111.087C218.303,111.087 216.763,113.199 217.219,114.625C217.733,116.051 221.042,111.316 228.516,107.607C232.795,105.496 234.222,101.901 236.219,96.824C238.672,90.433 239.243,89.064 239.585,86.725C240.441,80.734 237.873,84.557 237.873,84.557Z" style="fill-opacity:0.07;fill-rule:nonzero;"/>
                                <path d="M227.717,130.201C227.717,130.201 231.312,138.645 232.339,142.753C233.423,147.033 233.423,153.195 236.561,156.219C240.156,159.642 244.378,171.11 245.405,173.506C246.774,176.987 249.627,196.1 248.828,197.413C248.029,198.725 244.777,196.785 244.777,196.785C244.777,196.785 245.975,191.935 244.948,187.542C243.921,183.149 239.186,171.395 236.219,165.576C233.537,160.384 230.798,154.336 230.171,150.855C229.543,147.318 227.717,130.201 227.717,130.201Z" style="fill-opacity:0.07;fill-rule:nonzero;"/>
                            </g>
                            <g id="woman_check_phone">
                                <g>
                                    <path d="M47.878,191.422L43.884,192.335C43.884,192.335 42.914,195.473 42.458,197.185C42.4,197.299 42.343,197.584 42.286,197.755C42.229,198.04 42.172,198.326 42.172,198.611C42.286,200.094 42.857,201.407 44.169,202.091C45.653,202.833 46.794,203.518 48.391,202.091C49.932,200.665 50.217,199.752 49.59,197.242C48.962,194.731 47.878,191.422 47.878,191.422" style="fill:rgb(75,68,190);fill-rule:nonzero;"/>
                                    <path d="M70.985,196.614C68.304,195.758 67.163,192.449 67.163,192.449L61.742,192.164C61.742,192.164 61.628,195.53 61.457,197.356C61.286,199.809 61.742,200.893 63.34,200.722C65.508,200.551 74.409,201.35 75.778,200.437C77.661,199.41 73.496,197.413 70.985,196.614" style="fill:rgb(75,68,190);fill-rule:nonzero;"/>
                                </g>
                                <path d="M39.548,115.253C39.548,115.253 37.551,118.048 36.866,125.523C36.238,132.997 37.665,147.204 38.292,149.942C38.977,152.681 41.602,178.356 42.286,180.239C42.971,182.122 43.827,192.335 43.827,192.335L48.106,192.449C48.106,192.449 49.361,179.098 49.361,175.56C49.361,172.023 51.13,138.645 51.016,136.192C50.902,133.739 51.472,134.537 51.472,134.537C51.472,134.537 55.238,146.462 56.322,148.459C57.463,150.456 59.403,154.336 59.403,154.336C59.403,154.336 59.86,166.831 60.373,174.077C60.887,181.323 61.514,192.734 61.514,192.734L67.277,192.62C67.277,192.62 68.589,173.563 68.589,169.513C68.589,165.519 69.787,155.876 69.787,154.735C69.787,153.594 66.022,134.138 66.022,134.138L63.397,115.138L39.548,115.253Z" style="fill:url(#_Linear9);fill-rule:nonzero;"/>
                                <path d="M46.337,52.32C44.397,53.062 41.887,62.761 41.887,62.761L41.83,62.704L40.746,63.788L41.202,65.842L43.085,97.965L52.899,95.854L61.514,86.725L66.877,89.235C66.877,89.235 67.277,100.932 67.334,101.559C67.391,102.187 68.304,119.817 68.304,121.015C68.361,122.27 73.61,127.805 74.466,127.177C77.033,125.351 72.754,122.042 71.727,121.186C71.1,120.73 69.844,104.298 69.73,102.358C69.616,100.418 72.697,95.511 67.391,89.007C63.511,84.271 61.4,72.118 58.148,58.311C56.436,51.122 55.409,49.011 53.698,49.011C52.214,49.125 50.103,50.951 46.337,52.32" style="fill:url(#_Linear10);fill-rule:nonzero;"/>
                                <path d="M44.683,79.707C44.626,79.821 40.917,81.533 39.319,83.53C37.722,85.469 36.41,88.322 36.41,88.322C36.41,88.322 34.07,93.857 32.416,97.965C31.56,100.19 28.65,109.205 32.13,109.547C35.383,109.832 42.572,102.187 43.713,100.76L44.968,97.965C45.082,97.622 43.028,93.857 43.085,93.514C43.142,92.944 47.878,90.205 48.563,91.86C48.791,92.43 49.418,93.971 49.647,94.427C50.103,95.625 43.256,97.908 43.256,98.935C43.256,100.247 42.686,105.04 41.773,107.379C40.86,109.718 39.434,115.31 39.434,115.31L63.511,115.367C63.511,115.367 62.712,104.64 63.055,101.103C63.055,101.103 64.082,89.406 64.709,88.265C65.337,87.124 66.364,102.7 66.193,105.895C66.079,108.121 68.076,121.529 68.646,121.985C69.559,122.727 71.784,121.243 71.784,121.243C71.784,121.243 71.67,106.523 71.613,104.127C71.499,101.673 71.67,81.932 68.418,78.337C65.166,74.8 64.31,74.857 61.628,75.827C58.947,76.74 57.634,77.653 53.983,78.28C51.758,78.68 49.418,78.395 47.364,77.482C47.935,75.428 46.737,78.908 46.908,77.938" style="fill:url(#_Linear11);fill-rule:nonzero;"/>
                                <path d="M48.22,46.786C48.22,46.786 43.427,46.957 42.058,51.635C40.689,56.314 40.518,62.875 40.461,63.902C40.404,64.986 40.974,72.347 40.346,74.401C39.776,76.226 38.292,79.536 37.323,81.875C36.98,82.788 36.695,83.758 36.524,84.728L36.41,85.527C36.638,86.325 37.551,86.839 38.35,86.554C38.407,86.496 38.464,86.496 38.521,86.496C38.977,86.268 39.434,86.04 39.89,85.755C41.316,84.899 43.199,82.56 44.626,81.818C46.166,81.076 47.935,77.539 48.163,77.31C48.391,77.082 48.334,76.169 48.334,75.314C48.505,70.92 47.65,66.926 46.623,64.815C45.596,62.704 43.256,58.596 44.854,56.2C46.509,53.804 49.875,51.921 50.046,51.35C50.217,50.78 50.274,53.632 52.1,54.659C53.926,55.686 56.436,58.425 56.436,59.053C56.436,59.68 57.064,61.62 55.295,65.044C53.583,68.467 52.214,72.803 54.61,76.055C57.007,79.307 62.998,83.815 63.397,84.842C63.796,85.869 63.397,90.433 63.226,93.001C63.055,95.568 68.076,88.608 67.904,85.298C67.733,81.932 68.304,80.506 64.937,75.428C61.571,70.35 59.289,61.506 59.232,59.395C59.118,57.227 58.091,51.35 56.037,49.638C54.268,48.212 53.869,46.786 50.217,46.786C49.647,46.672 48.905,46.729 48.22,46.786" style="fill:url(#_Linear12);fill-rule:nonzero;"/>
                                <g>
                                    <g>
                                        <g opacity="0.07">
                                            <g>
                                                <g>
                                                    <g>
                                                        <path d="M46.394,91.689C45.653,91.974 44.968,92.316 44.34,92.716L43.599,93.058C43.599,93.058 35.953,101.046 36.296,100.646C37.779,98.82 42.343,89.007 43.884,86.782C45.539,84.442 46.394,85.355 48.22,91.631" style="fill:none;fill-rule:nonzero;"/>
                                                    </g>
                                                </g>
                                            </g>
                                        </g>
                                        <g opacity="0.07">
                                            <path d="M46.052,192.278C46.109,192.392 46.109,192.449 46.109,192.563C46.166,193.248 46.109,194.902 45.367,195.929C44.454,197.299 46.623,200.38 46.623,201.121C46.623,201.863 45.653,202.548 44.911,202.377C44.226,202.148 41.316,200.551 42.458,197.013C42.914,195.587 43.199,194.332 43.427,193.59C43.599,193.191 43.713,192.791 43.827,192.392C43.884,192.221 43.884,192.05 43.884,191.821C43.827,191.593 43.827,191.308 43.827,191.023C43.656,189.653 37.95,147.318 37.722,145.72C37.551,144.294 36.695,135.336 36.809,130.087C36.752,129.631 36.752,129.174 36.752,128.775C36.752,128.661 36.809,128.147 36.809,127.919C36.866,127.462 36.866,126.949 36.923,126.493C36.809,126.093 36.866,126.093 36.923,125.466C36.98,124.838 36.923,124.496 36.98,124.096C37.551,120.559 38.863,116.508 39.491,115.367L39.662,114.739C39.662,114.739 41.088,109.376 41.602,108.349C42.001,107.436 43.256,102.7 43.085,101.73C43.028,101.16 44.968,99.049 44.968,99.049L45.367,98.706C45.539,98.649 45.767,98.706 45.938,98.763C46.337,98.935 47.992,97.508 48.277,98.421C50.217,104.583 51.016,107.208 47.593,110.916C44.169,114.625 47.307,117.877 47.364,120.502C47.536,126.892 44.397,126.207 44.226,130.201C44.055,134.195 44.911,137.048 44.968,139.159C45.139,146.006 45.025,147.375 44.683,150.057C44.34,152.738 42.458,157.816 44.512,167.858C46.566,177.9 46.28,178.756 46.052,184.461C45.824,190.053 46.052,192.278 46.052,192.278" style="fill-rule:nonzero;"/>
                                        </g>
                                        <path d="M42.857,88.779L42.914,88.722C43.142,88.608 44.569,87.866 45.596,87.466C46.737,87.01 48.049,90.833 48.391,91.574C48.448,91.631 48.448,91.631 48.163,91.689C47.364,91.803 46.509,91.917 45.767,92.145C44.626,92.43 43.313,93.343 43.256,93.343C43.199,93.4 42.857,92.658 42.172,90.947C42.001,90.547 41.716,89.52 42.001,89.292L42.857,88.779Z" style="fill:rgb(239,239,239);fill-rule:nonzero;"/>
                                    </g>
                                    <path d="M51.529,68.638C52.271,68.923 53.07,68.752 53.64,68.182C54.61,67.212 53.298,70.578 53.469,71.32C53.698,72.004 51.529,68.638 51.529,68.638Z" style="fill-opacity:0.07;fill-rule:nonzero;"/>
                                    <path d="M44.968,97.622C44.968,97.622 49.532,94.655 49.59,94.77C49.704,95.055 50.103,96.139 50.103,96.139C50.103,96.139 50.445,96.824 50.331,97.052C50.217,97.28 45.881,99.106 45.881,99.106C45.71,99.049 45.539,98.992 45.482,98.82C45.31,98.478 45.139,98.079 44.968,97.622Z" style="fill:rgb(239,239,239);fill-rule:nonzero;"/>
                                </g>
                            </g>
                        </g>
                    </g>
                </g>
            </g>
        </g>
    </g>
    <defs>
        <linearGradient id="_Linear3" x1="0" y1="0" x2="1" y2="0" gradientUnits="userSpaceOnUse" gradientTransform="matrix(-50.3951,6.17162e-15,-6.17162e-15,-50.3951,252.894,155.956)"><stop offset="0" style="stop-color:rgb(75,69,189);stop-opacity:1"/><stop offset="1" style="stop-color:rgb(75,69,189);stop-opacity:1"/></linearGradient>
        <linearGradient id="_Linear4" x1="0" y1="0" x2="1" y2="0" gradientUnits="userSpaceOnUse" gradientTransform="matrix(-16.7614,2.05268e-15,-2.05268e-15,-16.7614,234.31,59.7475)"><stop offset="0" style="stop-color:rgb(248,123,88);stop-opacity:1"/><stop offset="0" style="stop-color:rgb(248,123,88);stop-opacity:1"/><stop offset="0.41" style="stop-color:rgb(248,148,83);stop-opacity:1"/><stop offset="0.94" style="stop-color:rgb(248,197,72);stop-opacity:1"/><stop offset="1" style="stop-color:rgb(248,197,72);stop-opacity:1"/></linearGradient>
        <linearGradient id="_Linear5" x1="0" y1="0" x2="1" y2="0" gradientUnits="userSpaceOnUse" gradientTransform="matrix(-9.58385,1.17368e-15,-1.17368e-15,-9.58385,211.988,116.115)"><stop offset="0" style="stop-color:rgb(248,123,88);stop-opacity:1"/><stop offset="0" style="stop-color:rgb(248,123,88);stop-opacity:1"/><stop offset="0.41" style="stop-color:rgb(248,148,83);stop-opacity:1"/><stop offset="0.94" style="stop-color:rgb(248,197,72);stop-opacity:1"/><stop offset="1" style="stop-color:rgb(248,197,72);stop-opacity:1"/></linearGradient>
        <linearGradient id="_Linear6" x1="0" y1="0" x2="1" y2="0" gradientUnits="userSpaceOnUse" gradientTransform="matrix(-15.7633,1.93045e-15,-1.93045e-15,-15.7633,251.437,58.5561)"><stop offset="0" style="stop-color:rgb(248,123,88);stop-opacity:1"/><stop offset="0" style="stop-color:rgb(248,123,88);stop-opacity:1"/><stop offset="0.41" style="stop-color:rgb(248,148,83);stop-opacity:1"/><stop offset="0.94" style="stop-color:rgb(248,197,72);stop-opacity:1"/><stop offset="1" style="stop-color:rgb(248,197,72);stop-opacity:1"/></linearGradient>
        <linearGradient id="_Linear7" x1="0" y1="0" x2="1" y2="0" gradientUnits="userSpaceOnUse" gradientTransform="matrix(-53.206,6.51586e-15,-6.51586e-15,-53.206,261.789,89.363)"><stop offset="0" style="stop-color:rgb(147,223,147);stop-opacity:1"/><stop offset="1" style="stop-color:rgb(33,194,193);stop-opacity:1"/></linearGradient>
        <linearGradient id="_Linear8" x1="0" y1="0" x2="1" y2="0" gradientUnits="userSpaceOnUse" gradientTransform="matrix(-15.2106,-6.74889,6.74889,-15.2106,253.397,55.0918)"><stop offset="0" style="stop-color:rgb(75,69,189);stop-opacity:1"/><stop offset="1" style="stop-color:rgb(88,202,234);stop-opacity:1"/></linearGradient>
        <linearGradient id="_Linear9" x1="0" y1="0" x2="1" y2="0" gradientUnits="userSpaceOnUse" gradientTransform="matrix(33.1959,0,0,33.1959,36.7332,154.016)"><stop offset="0" style="stop-color:rgb(75,69,189);stop-opacity:1"/><stop offset="1" style="stop-color:rgb(88,202,234);stop-opacity:1"/></linearGradient>
        <linearGradient id="_Linear10" x1="0" y1="0" x2="1" y2="0" gradientUnits="userSpaceOnUse" gradientTransform="matrix(34.5791,0,0,34.5791,40.7542,88.2072)"><stop offset="0" style="stop-color:rgb(248,123,88);stop-opacity:1"/><stop offset="0.5" style="stop-color:rgb(248,197,72);stop-opacity:1"/><stop offset="1" style="stop-color:rgb(248,156,81);stop-opacity:1"/></linearGradient>
        <linearGradient id="_Linear11" x1="0" y1="0" x2="1" y2="0" gradientUnits="userSpaceOnUse" gradientTransform="matrix(41.2038,0,0,41.2038,30.5054,98.7659)"><stop offset="0" style="stop-color:rgb(147,223,147);stop-opacity:1"/><stop offset="1" style="stop-color:rgb(33,194,193);stop-opacity:1"/></linearGradient>
        <linearGradient id="_Linear12" x1="0" y1="0" x2="1" y2="0" gradientUnits="userSpaceOnUse" gradientTransform="matrix(31.6235,0,0,31.6235,36.4398,70.119)"><stop offset="0" style="stop-color:rgb(75,69,189);stop-opacity:1"/><stop offset="1" style="stop-color:rgb(88,202,234);stop-opacity:1"/></linearGradient>
    </defs>
</svg>
