<?xml version="1.0" encoding="UTF-8" standalone="no"?>
<!DOCTYPE svg PUBLIC "-//W3C//DTD SVG 1.1//EN" "http://www.w3.org/Graphics/SVG/1.1/DTD/svg11.dtd">
<svg width="100%" height="100%" viewBox="0 0 1160 819" version="1.1" xmlns="http://www.w3.org/2000/svg" xmlns:xlink="http://www.w3.org/1999/xlink" xml:space="preserve" xmlns:serif="http://www.serif.com/" style="fill-rule:evenodd;clip-rule:evenodd;stroke-miterlimit:10;">
    <g transform="matrix(1,0,0,1,-5842,-38)">
        <g id="アートボード6" transform="matrix(1,0,0,1,-0.609915,-0.930384)">
            <rect x="5842.61" y="38.93" width="1159.96" height="818.492" style="fill:none;"/>
            <clipPath id="_clip1">
                <rect x="5842.61" y="38.93" width="1159.96" height="818.492"/>
            </clipPath>
            <g clip-path="url(#_clip1)">
                <g id="following-step05.svg" transform="matrix(4.16667,0,0,4.16667,6423.2,449.107)">
                    <g transform="matrix(1,0,0,1,-139.196,-98.219)">
                        <clipPath id="_clip2">
                            <rect x="0" y="0" width="278.391" height="196.438"/>
                        </clipPath>
                        <g clip-path="url(#_clip2)">
                            <g id="bg">
                                <path d="M20.825,68.455C20.711,68.113 20.597,67.771 20.54,67.428C19.541,61.296 14.835,26.783 40.905,15.174C53.741,9.47 68.287,0.057 115.35,17.456C170.885,37.993 207.194,3.195 215.751,3.195C224.308,3.195 243.704,-9.356 266.522,15.174C289.341,39.704 272.227,69.368 272.227,69.368C272.227,69.368 261.388,97.321 264.811,111.582C268.234,125.844 272.227,137.253 271.086,141.816C269.945,146.38 269.375,177.185 250.549,184.03C231.724,190.876 237.999,189.735 194.074,187.453C150.148,185.171 127.33,191.446 118.203,194.869C109.075,198.292 95.384,197.151 70.854,180.608C46.325,164.064 40.62,169.199 28.07,161.783C15.52,154.367 -16.369,113.35 10.386,83.629C20.739,72.163 21.082,69.168 20.825,68.455Z" style="fill:rgb(160,237,229);fill-rule:nonzero;"/>
                                <circle cx="55.794" cy="46.35" r="8.585" style="fill:white;"/>
                                <circle cx="65.093" cy="46.321" r="5.847" style="fill:white;"/>
                                <circle cx="46.011" cy="46.207" r="4.706" style="fill:white;"/>
                                <circle cx="224.08" cy="32.744" r="8.585" style="fill:white;"/>
                                <circle cx="233.407" cy="32.716" r="5.847" style="fill:white;"/>
                                <circle cx="214.297" cy="32.602" r="4.706" style="fill:white;"/>
                                <circle cx="130.981" cy="62.665" r="8.585" style="fill:white;"/>
                                <g transform="matrix(0.3827,-0.9239,0.9239,0.3827,28.7456,168.26)">
                                    <circle cx="140.279" cy="62.608" r="5.847" style="fill:white;"/>
                                </g>
                                <circle cx="121.197" cy="62.494" r="4.706" style="fill:white;"/>
                            </g>
                            <g id="build_1">
                                <path d="M6.678,138.394C6.678,138.394 12.097,130.407 12.667,129.266C13.238,128.125 12.953,123.562 12.953,123.562L10.956,123.562C10.956,123.562 12.667,118.713 17.516,118.713C22.365,118.713 23.791,120.995 24.362,122.136C24.932,123.276 24.647,123.847 24.647,123.847L22.936,123.847L22.936,128.411L31.207,142.102L34.63,142.102L34.63,164.35C34.63,164.35 14.379,153.796 6.678,138.394Z" style="fill:rgb(186,198,242);fill-rule:nonzero;"/>
                                <path d="M25.788,158.645L29.781,158.645L29.781,152.94C29.781,152.94 27.785,149.803 25.788,152.94L25.788,158.645Z" style="fill:white;fill-rule:nonzero;"/>
                                <circle cx="27.043" cy="144.555" r="2.51" style="fill:rgb(233,237,250);"/>
                                <path d="M8.332,141.503C9.473,140.704 11.042,140.961 11.84,142.102C12.639,143.214 12.382,144.754 11.298,145.581" style="fill:rgb(233,237,250);fill-rule:nonzero;"/>
                                <circle cx="18.03" cy="133.117" r="2.51" style="fill:rgb(233,237,250);"/>
                                <path d="M13.837,142.53C13.837,141.873 14.094,141.246 14.493,140.761C15.292,139.763 16.489,139.164 17.773,139.107C20.426,139.05 21.595,141.274 21.766,142.187C22.023,143.556 21.966,150.516 21.966,150.516L15.748,150.487L13.808,148.434L13.837,142.53Z" style="fill:white;fill-rule:nonzero;"/>
                            </g>
                            <g id="build_2">
                                <path d="M33.974,133.317L34.63,164.378C34.63,164.378 46.382,168.771 51.345,169.798C56.308,170.824 67.831,177.413 67.831,177.413L67.631,133.431L33.974,133.202" style="fill:rgb(233,237,250);fill-rule:nonzero;"/>
                                <path d="M33.746,133.317L67.66,133.459L67.517,125.359L57.477,125.359C57.477,125.359 56.222,120.51 51.544,120.51C45.811,120.51 44.841,125.615 44.841,125.615L33.717,125.501L33.746,133.317Z" style="fill:rgb(186,198,242);fill-rule:nonzero;"/>
                                <rect x="37.34" y="137.909" width="5.99" height="6.503" style="fill:rgb(186,198,242);"/>
                                <rect x="48.179" y="137.823" width="5.99" height="6.503" style="fill:rgb(186,198,242);"/>
                                <rect x="58.875" y="137.909" width="5.99" height="6.503" style="fill:white;"/>
                                <rect x="58.96" y="150.145" width="5.99" height="6.503" style="fill:rgb(186,198,242);"/>
                                <rect x="59.046" y="164.378" width="5.99" height="6.503" style="fill:rgb(186,198,242);"/>
                                <rect x="47.922" y="149.974" width="5.99" height="6.503" style="fill:rgb(186,198,242);"/>
                                <rect x="47.922" y="149.974" width="5.99" height="6.503" style="fill:white;"/>
                                <rect x="37.368" y="150.259" width="5.99" height="6.503" style="fill:rgb(186,198,242);"/>
                                <path d="M37.511,165.348L37.454,163.437L43.273,163.551L43.301,167.373C43.301,167.402 38.994,165.975 37.511,165.348Z" style="fill:rgb(186,198,242);fill-rule:nonzero;"/>
                                <path d="M48.264,168.942L48.179,164.093L54.083,164.207L53.94,170.539L48.264,168.942Z" style="fill:rgb(186,198,242);fill-rule:nonzero;"/>
                                <circle cx="51.231" cy="126.756" r="3.309" style="fill:white;"/>
                            </g>
                            <g id="build_3">
                                <path d="M67.546,155.108L67.831,177.442C67.831,177.442 85.601,189.25 86.713,190.106C87.826,190.962 97.124,195.468 101.345,195.725L102.116,150.687L99.606,150.602L87.398,135.456L82.891,135.228L67.546,155.108" style="fill:rgb(186,198,242);fill-rule:nonzero;"/>
                                <path d="M67.546,155.108L82.92,135.798L84.602,135.855L86.542,135.969L87.626,136.083L99.634,150.602L102.116,150.687L102.116,149.831L99.72,149.717L88.225,135.655L88.282,130.236L82.72,129.951L82.52,135.513L67.745,142.615L67.546,155.108Z" style="fill:rgb(233,237,250);fill-rule:nonzero;"/>
                                <rect x="77.301" y="150.915" width="2.795" height="3.28" style="fill:white;"/>
                                <rect x="89.623" y="150.944" width="2.795" height="3.28" style="fill:white;"/>
                                <rect x="85.087" y="150.944" width="2.795" height="3.28" style="fill:white;"/>
                                <rect x="81.379" y="150.915" width="2.795" height="3.28" style="fill:white;"/>
                                <rect x="77.301" y="155.907" width="2.795" height="3.28" style="fill:white;"/>
                                <rect x="89.623" y="155.935" width="2.795" height="3.28" style="fill:white;"/>
                                <rect x="85.087" y="155.935" width="2.795" height="3.28" style="fill:white;"/>
                                <rect x="81.379" y="155.907" width="2.795" height="3.28" style="fill:white;"/>
                                <rect x="70.683" y="170.682" width="2.795" height="3.28" style="fill:white;"/>
                                <rect x="74.306" y="166.917" width="2.795" height="3.28" style="fill:white;"/>
                                <rect x="70.598" y="166.888" width="2.795" height="3.28" style="fill:white;"/>
                                <rect x="74.334" y="170.71" width="2.795" height="3.28" style="fill:white;"/>
                                <rect x="81.636" y="170.767" width="2.795" height="3.28" style="fill:white;"/>
                                <rect x="85.258" y="167.002" width="2.795" height="3.28" style="fill:white;"/>
                                <rect x="81.55" y="166.974" width="2.795" height="3.28" style="fill:white;"/>
                                <rect x="85.287" y="170.796" width="2.795" height="3.28" style="fill:white;"/>
                                <rect x="92.218" y="170.853" width="2.795" height="3.28" style="fill:white;"/>
                                <rect x="95.841" y="167.088" width="2.795" height="3.28" style="fill:white;"/>
                                <rect x="92.133" y="167.088" width="2.795" height="3.28" style="fill:white;"/>
                                <rect x="95.898" y="170.91" width="2.795" height="3.28" style="fill:white;"/>
                                <rect x="92.075" y="186.826" width="2.795" height="4.649" style="fill:white;"/>
                                <rect x="95.698" y="183.061" width="2.795" height="3.28" style="fill:white;"/>
                                <rect x="91.99" y="183.032" width="2.795" height="3.28" style="fill:white;"/>
                                <rect x="84.717" y="182.975" width="2.795" height="3.28" style="fill:white;"/>
                                <path d="M87.54,190.591L84.745,188.765L84.717,186.968L87.512,186.968L87.54,190.591Z" style="fill:white;fill-rule:nonzero;"/>
                                <rect x="81.009" y="182.947" width="2.795" height="3.28" style="fill:white;"/>
                                <path d="M83.775,188.081L83.062,187.596L81.893,186.826L83.775,186.826L83.775,188.081Z" style="fill:white;fill-rule:nonzero;"/>
                                <rect x="95.755" y="186.854" width="2.795" height="4.649" style="fill:white;"/>
                            </g>
                            <g id="build_4">
                                <path d="M116.605,120.938L121.854,120.938L121.768,118.371L116.52,118.313L116.605,120.938Z" style="fill:rgb(186,198,242);fill-rule:nonzero;"/>
                                <path d="M101.887,145.04L101.374,195.725C101.374,195.725 110.416,197.123 118.573,195.069C126.731,193.015 136.144,190.79 136.144,190.79L136.457,145.524L130.981,142.843L122.082,127.07L121.854,120.909L116.577,120.909L116.406,127.07L107.05,142.53L101.887,145.04Z" style="fill:rgb(233,237,250);fill-rule:nonzero;"/>
                                <rect x="115.436" y="149.375" width="3.451" height="4.307" style="fill:rgb(186,198,242);"/>
                                <rect x="120.114" y="149.461" width="3.679" height="4.221" style="fill:rgb(186,198,242);"/>
                                <rect x="115.35" y="154.481" width="3.451" height="4.307" style="fill:rgb(186,198,242);"/>
                                <rect x="120.028" y="154.566" width="3.679" height="4.221" style="fill:rgb(186,198,242);"/>
                                <rect x="115.493" y="164.749" width="3.451" height="4.307" style="fill:rgb(186,198,242);"/>
                                <rect x="107.364" y="164.72" width="3.451" height="4.307" style="fill:rgb(186,198,242);"/>
                                <rect x="127.786" y="164.892" width="3.451" height="4.307" style="fill:rgb(186,198,242);"/>
                                <rect x="127.9" y="183.859" width="3.451" height="4.307" style="fill:rgb(186,198,242);"/>
                                <rect x="107.392" y="183.973" width="3.451" height="4.307" style="fill:rgb(186,198,242);"/>
                                <rect x="120.199" y="164.806" width="3.679" height="4.221" style="fill:rgb(186,198,242);"/>
                                <rect x="115.407" y="169.855" width="3.451" height="4.307" style="fill:rgb(186,198,242);"/>
                                <rect x="120.114" y="169.912" width="3.679" height="4.221" style="fill:rgb(186,198,242);"/>
                                <rect x="115.436" y="183.374" width="3.451" height="4.307" style="fill:rgb(186,198,242);"/>
                                <rect x="120.114" y="183.46" width="3.679" height="4.221" style="fill:rgb(186,198,242);"/>
                                <rect x="115.35" y="188.48" width="3.451" height="4.307" style="fill:rgb(186,198,242);"/>
                                <rect x="120.057" y="188.566" width="3.679" height="4.221" style="fill:rgb(186,198,242);"/>
                                <circle cx="109.275" cy="154.167" r="2.424" style="fill:rgb(186,198,242);"/>
                                <circle cx="128.87" cy="154.709" r="2.424" style="fill:rgb(186,198,242);"/>
                                <path d="M101.887,145.04L107.164,145.04L107.079,142.472L101.802,142.415L101.887,145.04Z" style="fill:rgb(186,198,242);fill-rule:nonzero;"/>
                                <path d="M131.181,145.524L136.457,145.524L136.372,142.957L131.095,142.9L131.181,145.524Z" style="fill:rgb(186,198,242);fill-rule:nonzero;"/>
                                <circle cx="119.429" cy="139.649" r="4.164" style="fill:rgb(186,198,242);"/>
                            </g>
                            <g id="build_5">
                                <path d="M134.29,145.724L134.603,167.601C134.603,167.601 135.402,191.047 135.488,190.962C137.37,189.022 166.321,187.054 169.658,186.968L168.888,141.332L166.378,141.246L154.142,126.072L149.635,125.844L134.29,145.724" style="fill:rgb(186,198,242);fill-rule:nonzero;"/>
                                <path d="M134.29,145.724L149.635,126.443L151.346,126.5L153.286,126.614L154.341,126.728L166.349,141.217L168.859,141.332L168.859,140.447L166.464,140.362L154.94,126.3L155.026,120.852L149.464,120.567L149.236,126.129L134.29,142.929L134.29,145.724Z" style="fill:rgb(233,237,250);fill-rule:nonzero;"/>
                                <rect x="144.044" y="141.56" width="2.795" height="3.28" style="fill:white;"/>
                                <rect x="156.366" y="141.588" width="2.795" height="3.28" style="fill:white;"/>
                                <rect x="151.831" y="141.56" width="2.795" height="3.28" style="fill:white;"/>
                                <rect x="148.123" y="141.531" width="2.795" height="3.28" style="fill:white;"/>
                                <rect x="144.044" y="146.551" width="2.795" height="3.28" style="fill:white;"/>
                                <rect x="156.366" y="146.58" width="2.795" height="3.28" style="fill:white;"/>
                                <rect x="151.831" y="146.551" width="2.795" height="3.28" style="fill:white;"/>
                                <rect x="148.123" y="146.551" width="2.795" height="3.28" style="fill:white;"/>
                                <rect x="137.484" y="163.665" width="2.795" height="3.28" style="fill:white;"/>
                                <rect x="141.107" y="159.9" width="2.795" height="3.28" style="fill:white;"/>
                                <rect x="137.399" y="159.871" width="2.795" height="3.28" style="fill:white;"/>
                                <rect x="141.135" y="163.694" width="2.795" height="3.28" style="fill:white;"/>
                                <rect x="148.408" y="163.722" width="2.795" height="3.28" style="fill:white;"/>
                                <rect x="152.059" y="159.986" width="2.795" height="3.28" style="fill:white;"/>
                                <rect x="148.323" y="159.957" width="2.795" height="3.28" style="fill:white;"/>
                                <rect x="152.088" y="163.779" width="2.795" height="3.28" style="fill:white;"/>
                                <rect x="159.019" y="163.836" width="2.795" height="3.28" style="fill:white;"/>
                                <rect x="162.641" y="160.071" width="2.795" height="3.28" style="fill:white;"/>
                                <rect x="158.933" y="160.071" width="2.795" height="3.28" style="fill:white;"/>
                                <rect x="162.67" y="163.865" width="2.795" height="3.28" style="fill:white;"/>
                                <rect x="137.541" y="177.984" width="2.795" height="3.28" style="fill:white;"/>
                                <rect x="141.164" y="174.219" width="2.795" height="3.28" style="fill:white;"/>
                                <rect x="137.456" y="174.219" width="2.795" height="3.28" style="fill:white;"/>
                                <rect x="141.221" y="178.012" width="2.795" height="3.28" style="fill:white;"/>
                                <rect x="148.494" y="178.069" width="2.795" height="3.28" style="fill:white;"/>
                                <rect x="152.116" y="174.304" width="2.795" height="3.28" style="fill:white;"/>
                                <rect x="148.408" y="174.276" width="2.795" height="3.28" style="fill:white;"/>
                                <rect x="152.173" y="178.098" width="2.795" height="3.28" style="fill:white;"/>
                                <rect x="159.105" y="178.183" width="2.795" height="3.28" style="fill:white;"/>
                                <rect x="162.727" y="174.418" width="2.795" height="3.28" style="fill:white;"/>
                                <rect x="159.019" y="174.39" width="2.795" height="3.28" style="fill:white;"/>
                                <rect x="162.756" y="178.212" width="2.795" height="3.28" style="fill:white;"/>
                            </g>
                            <g id="build_6">
                                <path d="M172.111,135.313C172.111,135.313 179.499,123.562 180.069,122.421C180.639,121.28 180.354,116.716 180.354,116.716L178.358,116.716C178.358,116.716 180.069,111.867 184.918,111.867C189.767,111.867 191.193,114.149 191.763,115.29C192.334,116.431 192.049,117.001 192.049,117.001L190.337,117.001L190.337,121.565L198.609,135.256L202.032,135.256L203.144,187.995C203.144,187.995 170.599,186.483 169.915,186.94C169.687,187.082 169.715,185.599 169.687,185.343C169.544,184.23 168.317,143.899 168.945,135.37C168.945,135.37 172.14,135.313 172.111,135.313Z" style="fill:rgb(233,237,250);fill-rule:nonzero;"/>
                                <path d="M193.047,151.942L197.04,151.942L197.04,146.237C197.04,146.237 195.044,143.1 193.047,146.237L193.047,151.942Z" style="fill:white;fill-rule:nonzero;"/>
                                <path d="M173.879,152.398L177.873,152.398L177.873,146.694C177.873,146.694 175.876,143.556 173.879,146.694L173.879,152.398Z" style="fill:white;fill-rule:nonzero;"/>
                                <path d="M173.879,167.145L177.873,167.145L177.873,161.44C177.873,161.44 175.876,158.303 173.879,161.44L173.879,167.145Z" style="fill:white;fill-rule:nonzero;"/>
                                <path d="M183.406,167.316L187.399,167.316L187.399,161.611C187.399,161.611 185.403,158.474 183.406,161.611L183.406,167.316Z" style="fill:white;fill-rule:nonzero;"/>
                                <path d="M192.933,167.487L196.926,167.487L196.926,161.783C196.926,161.783 194.929,158.645 192.933,161.783L192.933,167.487Z" style="fill:white;fill-rule:nonzero;"/>
                                <path d="M174.108,181.235L178.101,181.235L178.101,175.531C178.101,175.531 176.104,172.393 174.108,175.531L174.108,181.235Z" style="fill:white;fill-rule:nonzero;"/>
                                <path d="M183.663,181.406L187.656,181.406L187.656,175.702C187.656,175.702 185.659,172.564 183.663,175.702L183.663,181.406Z" style="fill:white;fill-rule:nonzero;"/>
                                <path d="M193.19,181.578L197.183,181.578L197.183,175.873C197.183,175.873 195.186,172.735 193.19,175.873L193.19,181.578Z" style="fill:white;fill-rule:nonzero;"/>
                                <circle cx="194.302" cy="137.823" r="2.51" style="fill:rgb(233,237,250);"/>
                                <circle cx="176.275" cy="137.452" r="2.51" style="fill:rgb(233,237,250);"/>
                                <circle cx="185.488" cy="149.888" r="2.51" style="fill:rgb(233,237,250);"/>
                                <circle cx="185.289" cy="126.414" r="2.51" style="fill:rgb(233,237,250);"/>
                                <path d="M181.096,135.798C181.096,135.142 181.353,134.515 181.752,134.03C182.55,133.031 183.748,132.432 185.003,132.375C187.656,132.318 188.826,134.543 188.968,135.456C189.225,136.825 189.168,143.785 189.168,143.785L180.982,143.785L181.039,141.731L181.096,135.798Z" style="fill:white;fill-rule:nonzero;"/>
                            </g>
                            <g id="build_7">
                                <path d="M202.174,145.239L203.03,188.081C203.03,188.081 212.414,188.166 218.176,188.879C223.196,189.507 235.29,188.936 235.29,188.936L235.86,145.382L202.203,145.154" style="fill:rgb(186,198,242);fill-rule:nonzero;"/>
                                <path d="M201.946,145.239L235.86,145.382L235.717,137.281L225.677,137.281C225.677,137.281 224.422,132.432 219.744,132.432C214.011,132.432 213.042,137.538 213.042,137.538L201.918,137.424L201.946,145.239Z" style="fill:rgb(186,198,242);fill-rule:nonzero;"/>
                                <rect x="205.512" y="149.831" width="5.99" height="6.503" style="fill:white;"/>
                                <rect x="216.35" y="149.746" width="5.99" height="6.503" style="fill:white;"/>
                                <rect x="227.046" y="149.831" width="5.99" height="6.503" style="fill:white;"/>
                                <rect x="227.132" y="162.068" width="5.99" height="6.503" style="fill:white;"/>
                                <rect x="227.218" y="176.301" width="5.99" height="6.503" style="fill:white;"/>
                                <rect x="216.35" y="176.044" width="5.99" height="6.503" style="fill:white;"/>
                                <rect x="205.512" y="175.901" width="5.99" height="6.503" style="fill:white;"/>
                                <rect x="216.122" y="161.868" width="5.99" height="6.503" style="fill:white;"/>
                                <rect x="216.122" y="161.868" width="5.99" height="6.503" style="fill:white;"/>
                                <rect x="205.569" y="162.153" width="5.99" height="6.503" style="fill:white;"/>
                                <circle cx="219.402" cy="138.679" r="3.309" style="fill:white;"/>
                            </g>
                            <g id="build_8">
                                <path d="M250.407,108.53L255.655,108.53L255.598,105.963L250.321,105.877L250.407,108.53Z" style="fill:white;fill-rule:nonzero;"/>
                                <path d="M235.689,132.632L235.061,188.993C235.061,188.993 246.328,186.141 253.487,182.604C260.247,179.239 263.47,171.851 264.24,170.425C264.326,170.282 264.383,170.111 264.44,169.94L268.348,158.303C268.462,157.989 268.547,157.647 268.576,157.333L270.373,145.867L271.229,140.618C271.286,140.305 271.286,139.962 271.229,139.649L270.287,133.402C270.259,133.26 270.173,133.145 270.059,133.06L264.782,130.464L255.883,114.663L255.655,108.502L250.378,108.502L250.207,114.663L240.852,130.122L235.689,132.632Z" style="fill:rgb(233,237,250);fill-rule:nonzero;"/>
                                <rect x="249.237" y="136.968" width="3.451" height="4.307" style="fill:white;"/>
                                <rect x="253.915" y="137.053" width="3.679" height="4.221" style="fill:white;"/>
                                <rect x="249.152" y="142.073" width="3.451" height="4.307" style="fill:white;"/>
                                <rect x="253.829" y="142.159" width="3.679" height="4.221" style="fill:white;"/>
                                <rect x="249.294" y="152.313" width="3.451" height="4.307" style="fill:white;"/>
                                <rect x="241.165" y="152.313" width="3.451" height="4.307" style="fill:white;"/>
                                <rect x="261.616" y="152.484" width="3.451" height="4.307" style="fill:white;"/>
                                <path d="M262.729,173.391L261.673,174.903L261.816,171.11L263.898,171.024L262.729,173.391Z" style="fill:white;fill-rule:nonzero;"/>
                                <rect x="241.194" y="171.566" width="3.451" height="4.307" style="fill:white;"/>
                                <rect x="254.001" y="152.398" width="3.679" height="4.221" style="fill:white;"/>
                                <rect x="249.237" y="157.447" width="3.451" height="4.307" style="fill:white;"/>
                                <rect x="253.915" y="157.504" width="3.679" height="4.221" style="fill:white;"/>
                                <rect x="249.237" y="170.967" width="3.451" height="4.307" style="fill:white;"/>
                                <rect x="253.915" y="171.053" width="3.679" height="4.221" style="fill:white;"/>
                                <rect x="249.18" y="176.073" width="3.451" height="4.307" style="fill:white;"/>
                                <path d="M257.252,180.066L256.853,180.38L253.858,180.38L253.858,176.158L257.537,176.158L257.537,179.809L257.252,180.066Z" style="fill:white;fill-rule:nonzero;"/>
                                <circle cx="243.076" cy="141.759" r="2.424" style="fill:white;"/>
                                <circle cx="262.672" cy="142.301" r="2.424" style="fill:white;"/>
                                <path d="M235.689,132.632L240.966,132.632L240.88,130.065L235.603,130.008L235.689,132.632Z" style="fill:white;fill-rule:nonzero;"/>
                                <path d="M265.011,133.117L270.259,133.117L269.916,131.491L269.688,130.521L264.925,130.493L265.011,133.117Z" style="fill:white;fill-rule:nonzero;"/>
                                <circle cx="253.231" cy="127.241" r="4.164" style="fill:white;"/>
                            </g>
                            <g id="Computer">
                                <path d="M66.148,88.108L108.334,77.725C108.334,77.725 109.902,77.24 109.446,75.415L108.562,71.792L63.125,82.973L64.208,87.366C64.579,88.022 65.378,88.336 66.148,88.108" style="fill:rgb(186,197,244);fill-rule:nonzero;"/>
                                <path d="M56.365,55.563L63.41,84.371L108.761,72.762L101.574,43.555C101.574,43.555 101.431,41.815 99.663,42.271L57.449,52.653C57.477,52.653 55.566,53.11 56.365,55.563" style="fill:rgb(186,197,244);fill-rule:nonzero;"/>
                                <path d="M85.487,91.559L83.519,83.544L90.221,82.175L91.961,89.22L85.487,91.559Z" style="fill:rgb(186,197,244);fill-rule:nonzero;"/>
                                <path d="M74.733,93.356L102.344,86.539L102.715,87.936L75.076,94.725L74.733,93.356Z" style="fill:rgb(186,197,244);fill-rule:nonzero;"/>
                                <path d="M85.886,79.465C86.628,79.294 87.369,79.722 87.54,80.463C87.711,81.205 87.284,81.947 86.542,82.118C85.8,82.289 85.059,81.861 84.888,81.119C84.717,80.378 85.173,79.636 85.886,79.465" style="fill:white;fill-rule:nonzero;"/>
                                <g transform="matrix(0.971,-0.2389,0.2389,0.971,-12.6355,21.4691)">
                                    <rect x="60.272" y="48.461" width="43.925" height="28.808" style="fill:rgb(248,248,255);"/>
                                </g>
                                <path d="M59.959,55.021C60.329,54.935 60.7,55.164 60.786,55.534C60.871,55.905 60.643,56.276 60.272,56.361C59.902,56.447 59.531,56.219 59.445,55.848C59.388,55.506 59.616,55.106 59.959,55.021" style="fill:rgb(250,95,93);fill-rule:nonzero;"/>
                                <path d="M62.24,54.479C62.611,54.393 62.982,54.622 63.068,54.992C63.153,55.363 62.925,55.734 62.554,55.82C62.183,55.905 61.813,55.677 61.727,55.306C61.641,54.935 61.87,54.565 62.24,54.479" style="fill:rgb(253,188,78);fill-rule:nonzero;"/>
                                <path d="M64.608,53.88C64.979,53.794 65.349,54.023 65.435,54.393C65.521,54.764 65.292,55.135 64.922,55.221C64.551,55.306 64.18,55.078 64.094,54.707C64.037,54.365 64.266,53.966 64.608,53.88" style="fill:rgb(55,205,88);fill-rule:nonzero;"/>
                                <path d="M75.104,56.476C75.161,56.846 74.933,57.189 74.562,57.246L66.405,59.242C65.977,59.356 65.492,59.157 65.435,58.843L65.121,57.588C65.036,57.246 65.349,56.846 65.806,56.732L73.935,54.736C74.277,54.622 74.676,54.821 74.819,55.164L74.819,55.192L75.104,56.476Z" style="fill:url(#_Linear3);fill-rule:nonzero;"/>
                                <path d="M96.782,59.898C96.839,60.298 96.582,60.668 96.211,60.754L68.43,67.6C68.002,67.714 67.517,67.485 67.432,67.143L65.92,60.982C65.834,60.611 66.177,60.212 66.576,60.127L94.357,53.281C94.728,53.167 95.156,53.367 95.27,53.766L96.782,59.898Z" style="fill:url(#_Linear4);fill-rule:nonzero;"/>
                                <path d="M77.871,70.138C77.957,70.509 77.728,70.88 77.358,70.965L69.713,72.848C69.257,72.962 68.801,72.734 68.715,72.391L67.888,69.026C67.802,68.655 68.145,68.256 68.544,68.17L76.131,66.316C76.473,66.202 76.873,66.402 77.015,66.772L77.015,66.801L77.871,70.138Z" style="fill:url(#_Linear5);fill-rule:nonzero;"/>
                                <path d="M87.826,67.685C87.911,68.056 87.683,68.427 87.312,68.512L79.668,70.395C79.212,70.509 78.755,70.281 78.67,69.938L77.842,66.573C77.757,66.202 78.099,65.803 78.499,65.717L86.086,63.863C86.428,63.749 86.827,63.949 86.97,64.319L86.97,64.348L87.826,67.685Z" style="fill:url(#_Linear6);fill-rule:nonzero;"/>
                                <path d="M98.094,65.147C98.151,65.546 97.894,65.917 97.523,66.002L89.936,67.856C89.537,67.999 89.109,67.771 88.966,67.4L88.139,64.034C88.054,63.606 88.367,63.236 88.767,63.178L96.354,61.324C96.725,61.21 97.181,61.41 97.295,61.809L98.094,65.147Z" style="fill:url(#_Linear7);fill-rule:nonzero;"/>
                                <path d="M88.31,69.596C88.282,69.739 88.196,69.853 88.054,69.91C88.025,69.91 88.025,69.91 87.968,69.824L79.611,71.878C79.468,72.021 79.183,71.992 79.155,71.849L79.126,71.735C79.098,71.593 79.297,71.393 79.468,71.336L87.826,69.282C87.968,69.282 88.082,69.368 88.139,69.482C88.139,69.511 88.139,69.511 88.225,69.511L88.31,69.596Z" style="fill:rgb(233,237,251);fill-rule:nonzero;"/>
                                <path d="M88.567,70.68C88.539,70.823 88.453,70.965 88.339,71.022C88.339,71.022 88.31,71.022 88.282,70.908L79.896,72.962C79.754,73.104 79.468,73.076 79.44,72.905L79.411,72.791C79.383,72.648 79.611,72.477 79.754,72.42L88.111,70.366C88.253,70.366 88.425,70.423 88.51,70.566L88.567,70.68Z" style="fill:rgb(233,237,251);fill-rule:nonzero;"/>
                                <path d="M88.852,71.764C88.824,71.935 88.738,72.078 88.596,72.163C88.596,72.106 88.567,72.078 88.567,72.021L80.181,74.074C80.067,74.188 79.896,74.217 79.782,74.074C79.754,74.046 79.754,74.017 79.725,73.989L79.696,73.875C79.668,73.732 79.896,73.589 80.039,73.504L88.396,71.45C88.539,71.45 88.71,71.507 88.795,71.65L88.852,71.764Z" style="fill:rgb(233,237,251);fill-rule:nonzero;"/>
                                <path d="M89.109,72.848C89.081,73.047 88.995,73.219 88.881,73.39L80.495,75.443C80.295,75.358 80.01,75.244 79.953,75.073L79.925,74.958C79.896,74.816 80.096,74.588 80.267,74.616L88.624,72.563C88.738,72.506 88.852,72.563 88.909,72.677C88.909,72.705 88.909,72.734 88.938,72.762L89.024,72.762L89.109,72.848Z" style="fill:rgb(233,237,251);fill-rule:nonzero;"/>
                                <path d="M84.745,75.101C84.774,75.244 84.717,75.329 84.545,75.358L80.695,76.299C80.524,76.328 80.295,76.328 80.267,76.213L80.238,76.099C80.21,75.957 80.41,75.786 80.552,75.757L84.403,74.816C84.545,74.787 84.688,74.873 84.717,75.016L84.745,75.101Z" style="fill:rgb(233,237,251);fill-rule:nonzero;"/>
                                <path d="M98.55,67.058C98.408,67.229 98.465,67.343 98.293,67.257L89.936,69.311C89.822,69.454 89.68,69.396 89.623,69.282L89.708,69.225L89.68,69.111C89.565,68.997 89.651,68.826 89.794,68.769L98.151,66.715C98.322,66.744 98.322,66.858 98.522,66.944L98.55,67.058Z" style="fill:rgb(233,237,251);fill-rule:nonzero;"/>
                                <path d="M98.835,68.141C98.693,68.313 98.778,68.455 98.579,68.37L90.221,70.423C90.079,70.566 89.936,70.48 89.993,70.309L89.965,70.195C89.851,70.081 89.936,69.938 90.079,69.881L98.436,67.828C98.607,67.856 98.607,67.942 98.807,68.027L98.835,68.141Z" style="fill:rgb(233,237,251);fill-rule:nonzero;"/>
                                <path d="M99.092,69.254C98.95,69.425 99.035,69.596 98.835,69.482L90.478,71.536C90.336,71.678 90.193,71.593 90.25,71.422L90.221,71.308C90.107,71.193 90.193,71.079 90.336,70.994L98.693,68.94C98.864,68.969 98.864,69.054 99.064,69.14L99.092,69.254Z" style="fill:rgb(233,237,251);fill-rule:nonzero;"/>
                                <path d="M99.349,70.338C99.206,70.509 99.292,70.709 99.149,70.88L90.792,72.933C90.592,72.819 90.45,72.705 90.478,72.506L90.45,72.391C90.393,72.363 90.364,72.249 90.393,72.163C90.45,72.135 90.478,72.078 90.564,72.106L98.95,70.053C99.092,69.967 99.121,70.138 99.32,70.224L99.349,70.338Z" style="fill:rgb(233,237,251);fill-rule:nonzero;"/>
                                <path d="M95.042,72.563C95.07,72.705 95.099,72.762 94.956,72.791L91.077,73.732C90.906,73.761 90.82,73.732 90.792,73.589L90.763,73.475C90.735,73.333 90.82,73.19 90.963,73.162L94.814,72.22C94.985,72.192 94.985,72.306 95.013,72.448L95.042,72.563Z" style="fill:rgb(233,237,251);fill-rule:nonzero;"/>
                                <path d="M78.071,72.106C78.213,72.22 78.185,72.334 77.985,72.277L69.599,74.331C69.514,74.445 69.371,74.445 69.286,74.388C69.257,74.359 69.257,74.331 69.2,74.302L69.171,74.188C69.2,74.017 69.286,73.875 69.457,73.789L77.814,71.735C77.985,71.764 78.071,71.849 78.014,72.021L78.071,72.106Z" style="fill:rgb(233,237,251);fill-rule:nonzero;"/>
                                <path d="M78.327,73.19C78.47,73.304 78.441,73.447 78.27,73.39L69.885,75.443C69.742,75.615 69.571,75.529 69.485,75.358L69.457,75.244C69.457,75.101 69.599,74.958 69.742,74.873L78.099,72.819C78.27,72.848 78.356,72.905 78.27,73.076L78.327,73.19Z" style="fill:rgb(233,237,251);fill-rule:nonzero;"/>
                                <path d="M78.613,74.302C78.755,74.417 78.755,74.588 78.556,74.502L70.17,76.556C70.027,76.727 69.856,76.641 69.77,76.47L69.742,76.356C69.742,76.213 69.885,76.099 70.027,75.985L78.384,73.932C78.556,73.96 78.641,74.017 78.556,74.188L78.613,74.302Z" style="fill:rgb(233,237,251);fill-rule:nonzero;"/>
                                <path d="M76.274,75.643L78.67,75.044C78.812,74.958 78.926,75.101 78.841,75.272L78.869,75.386C79.012,75.5 79.012,75.7 78.869,75.871L70.484,77.925C70.284,77.868 70.141,77.725 69.999,77.554L69.97,77.44C69.97,77.269 70.084,77.126 70.255,77.098L76.274,75.643" style="fill:rgb(233,237,251);fill-rule:nonzero;"/>
                                <path d="M74.99,77.497C75.019,77.64 74.962,77.725 74.791,77.754L70.626,78.781C70.455,78.809 70.312,78.809 70.284,78.666L70.255,78.552C70.255,78.41 70.369,78.267 70.512,78.239L74.676,77.212C74.819,77.183 74.962,77.269 74.99,77.383L74.99,77.497Z" style="fill:rgb(233,237,251);fill-rule:nonzero;"/>
                            </g>
                            <g id="Calendar">
                                <path d="M225.706,58.643L225.221,82.032C225.221,82.032 220.657,80.235 218.233,80.749L225.706,58.643" style="fill:url(#_Linear8);fill-rule:nonzero;"/>
                                <path d="M225.706,58.643L218.233,80.749C218.233,80.749 204.542,76.242 193.475,76.042L201.404,54.251L225.706,58.643" style="fill:rgb(252,252,252);fill-rule:nonzero;"/>
                                <path d="M209.647,67.628L213.013,68.313L214.068,65.432L210.731,64.776L209.647,67.628Z" style="fill:rgb(88,202,234);fill-rule:nonzero;"/>
                                <path d="M204.285,66.459L207.679,67.172L208.706,64.262L205.397,63.635L204.285,66.459Z" style="fill:rgb(88,202,234);fill-rule:nonzero;"/>
                                <path d="M199.208,65.546L202.574,66.259L203.629,63.35L200.32,62.722L199.208,65.546Z" style="fill:rgb(88,202,234);fill-rule:nonzero;"/>
                                <path d="M197.782,69.454L201.176,70.167L202.203,67.257L198.894,66.63L197.782,69.454Z" style="fill:rgb(88,202,234);fill-rule:nonzero;"/>
                                <path d="M208.193,71.336L211.558,72.049L212.614,69.14L209.305,68.512L208.193,71.336Z" style="fill:rgb(88,202,234);fill-rule:nonzero;"/>
                                <path d="M213.412,72.477L216.778,73.19L217.833,70.281L214.525,69.653L213.412,72.477Z" style="fill:rgb(88,202,234);fill-rule:nonzero;"/>
                                <path d="M211.815,76.499L215.181,77.212L216.236,74.302L212.899,73.675L211.815,76.499Z" style="fill:rgb(88,202,234);fill-rule:nonzero;"/>
                                <path d="M206.624,75.472L209.99,76.156L211.045,73.276L207.708,72.648L206.624,75.472Z" style="fill:rgb(88,202,234);fill-rule:nonzero;"/>
                                <path d="M201.262,74.474L204.627,75.158L205.654,72.249L202.345,71.621L201.262,74.474Z" style="fill:rgb(88,202,234);fill-rule:nonzero;"/>
                                <path d="M202.887,70.366L206.253,71.079L207.28,68.17L203.971,67.542L202.887,70.366Z" style="fill:url(#_Linear9);fill-rule:nonzero;"/>
                                <path d="M225.706,58.643L223.595,64.918L199.179,60.355L201.433,54.279L225.706,58.643Z" style="fill:url(#_Linear10);fill-rule:nonzero;"/>
                                <path d="M219.317,55.962L217.463,55.591L216.75,58.387L218.575,58.729L219.317,55.962Z" style="fill:url(#_Linear11);fill-rule:nonzero;"/>
                                <path d="M207.708,53.966L206.11,53.623L205.426,56.247L207.023,56.533L207.708,53.966Z" style="fill:url(#_Linear12);fill-rule:nonzero;"/>
                            </g>
                            <g>
                                <g>
                                    <path d="M142.618,93.242L145.1,93.413C145.1,93.413 145.984,90.532 148.095,89.79L148.551,86.51C148.551,86.51 150.662,88.136 151.147,88.364C151.632,88.592 156.338,87.052 161.016,90.874C164.952,94.097 163.383,98.576 162.784,99.916C162.698,100.144 162.527,100.372 162.356,100.572C161.928,101.029 161.101,101.913 160.673,102.226C160.103,102.654 160.559,105.507 159.875,105.649C159.361,105.735 158.648,103.481 158.135,103.567C155.368,104.109 152.487,103.795 149.892,102.711C149.72,102.626 149.521,102.683 149.407,102.854C149.122,103.282 148.58,104.052 148.18,104.223C147.638,104.48 147.924,102.341 147.496,101.941C147.039,101.542 142.276,96.037 142.276,96.037L142.618,93.242Z" style="fill:url(#_Linear13);fill-rule:nonzero;"/>
                                    <path d="M163.183,96.522C163.183,96.522 165.408,95.352 166.321,96.579C167.234,97.805 166.92,98.861 166.036,99.032C165.38,99.146 164.495,97.92 165.037,97.292C165.579,96.664 166.378,96.379 167.177,97.092C167.975,97.777 168.203,99.032 168.175,99.688" style="fill:none;fill-rule:nonzero;stroke:rgb(248,197,71);stroke-width:1.14px;"/>
                                    <circle cx="147.838" cy="94.183" r="0.941" style="fill:rgb(248,197,71);"/>
                                    <path d="M152.345,89.106C152.345,89.106 156.167,88.621 158.391,90.019" style="fill:none;fill-rule:nonzero;stroke:rgb(248,197,71);stroke-width:0.29px;"/>
                                </g>
                                <g id="coin">
                                    <circle cx="156.452" cy="82.203" r="3.708" style="fill:url(#_Linear14);"/>
                                    <circle cx="156.423" cy="82.203" r="3.023" style="fill:none;stroke:url(#_Linear15);stroke-width:0.29px;"/>
                                    <g transform="matrix(0.991,0.134,-0.134,0.991,155.032,83.4252)">
                                        <text x="0px" y="0px" style="font-family:'ArialMT', 'Arial', sans-serif;font-size:4.432px;fill:rgb(248,197,71);">$</text>
                                    </g>
                                </g>
                                <g id="coin_copy">
                                    <circle cx="161.615" cy="76.071" r="2.453" style="fill:url(#_Linear16);"/>
                                    <circle cx="161.615" cy="76.071" r="1.997" style="fill:none;stroke:url(#_Linear17);stroke-width:0.29px;"/>
                                    <g transform="matrix(0.991,0.134,-0.134,0.991,160.701,76.8782)">
                                        <text x="0px" y="0px" style="font-family:'ArialMT', 'Arial', sans-serif;font-size:2.917px;fill:rgb(248,197,71);">$</text>
                                    </g>
                                </g>
                                <g id="coin_copy_2">
                                    <circle cx="152.744" cy="76.499" r="1.74" style="fill:url(#_Linear18);"/>
                                    <circle cx="152.744" cy="76.499" r="1.426" style="fill:none;stroke:url(#_Linear19);stroke-width:0.29px;"/>
                                    <g transform="matrix(0.991,0.134,-0.134,0.991,152.089,77.0815)">
                                        <text x="0px" y="0px" style="font-family:'ArialMT', 'Arial', sans-serif;font-size:2.852px;fill:rgb(248,197,71);">$</text>
                                    </g>
                                </g>
                            </g>
                        </g>
                    </g>
                </g>
            </g>
        </g>
    </g>
    <defs>
        <linearGradient id="_Linear3" x1="0" y1="0" x2="1" y2="0" gradientUnits="userSpaceOnUse" gradientTransform="matrix(9.69355,-2.38495,2.38495,9.69355,65.2266,58.2169)"><stop offset="0" style="stop-color:rgb(247,29,105);stop-opacity:1"/><stop offset="1" style="stop-color:rgb(248,198,72);stop-opacity:1"/></linearGradient>
        <linearGradient id="_Linear4" x1="0" y1="0" x2="1" y2="0" gradientUnits="userSpaceOnUse" gradientTransform="matrix(29.3576,-7.223,7.223,29.3576,66.6576,64.033)"><stop offset="0" style="stop-color:rgb(248,197,71);stop-opacity:1"/><stop offset="1" style="stop-color:rgb(247,29,105);stop-opacity:1"/></linearGradient>
        <linearGradient id="_Linear5" x1="0" y1="0" x2="1" y2="0" gradientUnits="userSpaceOnUse" gradientTransform="matrix(9.13963,-2.24867,2.24867,9.13963,68.2927,70.6791)"><stop offset="0" style="stop-color:rgb(248,197,71);stop-opacity:1"/><stop offset="1" style="stop-color:rgb(247,29,105);stop-opacity:1"/></linearGradient>
        <linearGradient id="_Linear6" x1="0" y1="0" x2="1" y2="0" gradientUnits="userSpaceOnUse" gradientTransform="matrix(9.13963,-2.24867,2.24867,9.13963,78.2632,68.226)"><stop offset="0" style="stop-color:rgb(248,197,71);stop-opacity:1"/><stop offset="1" style="stop-color:rgb(247,29,105);stop-opacity:1"/></linearGradient>
        <linearGradient id="_Linear7" x1="0" y1="0" x2="1" y2="0" gradientUnits="userSpaceOnUse" gradientTransform="matrix(9.13963,-2.24867,2.24867,9.13963,88.5109,65.7057)"><stop offset="0" style="stop-color:rgb(248,197,71);stop-opacity:1"/><stop offset="1" style="stop-color:rgb(247,29,105);stop-opacity:1"/></linearGradient>
        <linearGradient id="_Linear8" x1="0" y1="0" x2="1" y2="0" gradientUnits="userSpaceOnUse" gradientTransform="matrix(-6.98464,-1.28113,1.28113,-6.98464,227.309,70.6613)"><stop offset="0" style="stop-color:rgb(248,197,71);stop-opacity:1"/><stop offset="1" style="stop-color:rgb(247,29,105);stop-opacity:1"/></linearGradient>
        <linearGradient id="_Linear9" x1="0" y1="0" x2="1" y2="0" gradientUnits="userSpaceOnUse" gradientTransform="matrix(-3.80588,-0.797958,0.797958,-3.80588,206.977,69.6383)"><stop offset="0" style="stop-color:rgb(248,197,71);stop-opacity:1"/><stop offset="1" style="stop-color:rgb(247,29,105);stop-opacity:1"/></linearGradient>
        <linearGradient id="_Linear10" x1="0" y1="0" x2="1" y2="0" gradientUnits="userSpaceOnUse" gradientTransform="matrix(-25.3596,-4.65148,4.65148,-25.3596,225.118,61.8638)"><stop offset="0" style="stop-color:rgb(248,197,71);stop-opacity:1"/><stop offset="1" style="stop-color:rgb(247,29,105);stop-opacity:1"/></linearGradient>
        <linearGradient id="_Linear11" x1="0" y1="0" x2="1" y2="0" gradientUnits="userSpaceOnUse" gradientTransform="matrix(-2.06142,-0.378108,0.378108,-2.06142,219.058,57.3411)"><stop offset="0" style="stop-color:rgb(248,197,71);stop-opacity:1"/><stop offset="1" style="stop-color:rgb(247,29,105);stop-opacity:1"/></linearGradient>
        <linearGradient id="_Linear12" x1="0" y1="0" x2="1" y2="0" gradientUnits="userSpaceOnUse" gradientTransform="matrix(-1.78174,-0.326808,0.326808,-1.78174,207.464,55.2465)"><stop offset="0" style="stop-color:rgb(248,197,71);stop-opacity:1"/><stop offset="1" style="stop-color:rgb(247,29,105);stop-opacity:1"/></linearGradient>
        <linearGradient id="_Linear13" x1="0" y1="0" x2="1" y2="0" gradientUnits="userSpaceOnUse" gradientTransform="matrix(-15.3725,-14.6923,14.6923,-15.3725,160.116,102.869)"><stop offset="0" style="stop-color:rgb(248,197,71);stop-opacity:1"/><stop offset="1" style="stop-color:rgb(247,29,105);stop-opacity:1"/></linearGradient>
        <linearGradient id="_Linear14" x1="0" y1="0" x2="1" y2="0" gradientUnits="userSpaceOnUse" gradientTransform="matrix(8.40612,-9.47606,9.47606,8.40612,150.695,88.6809)"><stop offset="0" style="stop-color:rgb(248,197,71);stop-opacity:1"/><stop offset="1" style="stop-color:rgb(247,29,105);stop-opacity:1"/></linearGradient>
        <linearGradient id="_Linear15" x1="0" y1="0" x2="1" y2="0" gradientUnits="userSpaceOnUse" gradientTransform="matrix(6.30113,0.852019,-0.852019,6.30113,153.265,81.7788)"><stop offset="0" style="stop-color:rgb(248,197,71);stop-opacity:1"/><stop offset="1" style="stop-color:rgb(247,29,105);stop-opacity:1"/></linearGradient>
        <linearGradient id="_Linear16" x1="0" y1="0" x2="1" y2="0" gradientUnits="userSpaceOnUse" gradientTransform="matrix(5.5338,-6.23924,6.23924,5.5338,157.843,80.3351)"><stop offset="0" style="stop-color:rgb(248,197,71);stop-opacity:1"/><stop offset="1" style="stop-color:rgb(247,29,105);stop-opacity:1"/></linearGradient>
        <linearGradient id="_Linear17" x1="0" y1="0" x2="1" y2="0" gradientUnits="userSpaceOnUse" gradientTransform="matrix(4.24518,0.57402,-0.57402,4.24518,159.494,75.7893)"><stop offset="0" style="stop-color:rgb(248,197,71);stop-opacity:1"/><stop offset="1" style="stop-color:rgb(247,29,105);stop-opacity:1"/></linearGradient>
        <linearGradient id="_Linear18" x1="0" y1="0" x2="1" y2="0" gradientUnits="userSpaceOnUse" gradientTransform="matrix(3.96095,-4.46436,4.46436,3.96095,150.042,79.5534)"><stop offset="0" style="stop-color:rgb(248,197,71);stop-opacity:1"/><stop offset="1" style="stop-color:rgb(247,29,105);stop-opacity:1"/></linearGradient>
        <linearGradient id="_Linear19" x1="0" y1="0" x2="1" y2="0" gradientUnits="userSpaceOnUse" gradientTransform="matrix(3.13961,0,0,3.13961,151.174,76.498)"><stop offset="0" style="stop-color:rgb(248,197,71);stop-opacity:1"/><stop offset="1" style="stop-color:rgb(247,29,105);stop-opacity:1"/></linearGradient>
    </defs>
</svg>
