<?xml version="1.0" encoding="UTF-8" standalone="no"?>
<!DOCTYPE svg PUBLIC "-//W3C//DTD SVG 1.1//EN" "http://www.w3.org/Graphics/SVG/1.1/DTD/svg11.dtd">
<svg width="100%" height="100%" viewBox="0 0 316 260" version="1.1" xmlns="http://www.w3.org/2000/svg" xmlns:xlink="http://www.w3.org/1999/xlink" xml:space="preserve" xmlns:serif="http://www.serif.com/" style="fill-rule:evenodd;clip-rule:evenodd;stroke-linejoin:round;stroke-miterlimit:2;">
    <g transform="matrix(1,0,0,1,-943.469,-23.7952)">
        <g id="アートボード1" transform="matrix(0.773808,0,0,0.915924,943.469,23.7952)">
            <rect x="0" y="0" width="407.338" height="283.022" style="fill:none;"/>
            <g transform="matrix(1.29231,0,0,1.09179,-55.3031,-25.9795)">
                <path d="M53.733,30.26C56.431,28.514 59.578,27.588 62.791,27.594C116.911,27.602 280.082,27.634 336.783,27.641C336.785,27.641 336.787,27.641 336.789,27.641C345.94,27.641 353.471,35.17 353.473,44.321C353.493,77.97 353.546,157.196 353.567,202.132L353.227,202.132C348.567,202.402 70.067,202.662 46.567,202.662L46.5,202.662C46.391,158.733 46.167,81.008 46.1,44.324C46.084,38.648 48.965,33.339 53.733,30.26Z" style="fill:white;fill-rule:nonzero;"/>
            </g>
            <g transform="matrix(1.29231,0,0,1.09179,-55.3031,-25.9795)">
                <path d="M163.264,280.551L151.028,280.551C148.428,280.551 148.187,273.641 148.979,271.927C149.771,270.213 151.338,269.112 154.052,268.596C163.452,266.807 165.779,261.732 166.56,252.738C166.894,248.883 167.24,246.491 167.43,242.65C167.553,240.166 167.768,237.393 168.139,233.617C188.95,233.597 210.584,233.568 231.432,233.537C231.806,237.354 232.024,240.148 232.147,242.65C232.337,246.491 232.683,248.883 233.018,252.738C233.798,261.732 236.126,266.807 245.526,268.596C248.24,269.112 249.806,270.213 250.599,271.927C251.392,273.641 251.51,280.57 248.843,280.57C244.857,280.568 189.019,280.555 163.264,280.551Z" style="fill:white;fill-rule:nonzero;"/>
            </g>
            <g transform="matrix(1.29231,0,0,1.09179,-55.3031,-25.9795)">
                <path d="M55.722,231.8C58.028,232.961 60.574,233.568 63.156,233.574C116.599,233.78 282.222,233.446 336.913,233.351C346.063,233.342 353.585,225.807 353.578,216.657C353.578,212.397 353.578,207.509 353.567,202.128L353.227,202.128C348.567,202.398 70.067,202.658 46.567,202.658L46.5,202.658C46.511,207.942 46.522,212.737 46.531,216.913C46.542,223.202 50.105,228.972 55.722,231.8Z" style="fill:white;fill-rule:nonzero;"/>
            </g>
            <g transform="matrix(1.29231,0,0,1.09179,-55.3031,-25.9795)">
                <path d="M111.939,126.176C111.958,134.99 112.002,155.237 112.002,158.099C120.14,158.084 129.926,158.064 140.731,158.041L140.731,122.13L111.931,122.13C111.932,122.382 111.935,123.9 111.939,126.176Z" style="fill:white;fill-rule:nonzero;"/>
            </g>
            <g transform="matrix(1.29231,0,0,1.09179,-55.3031,-25.9795)">
                <path d="M160.078,109.445C160.078,106.355 160.072,104.365 160.072,104.13L188.872,104.13L188.872,157.935L160.132,157.999C160.132,154.468 160.093,122.356 160.078,109.445Z" style="fill:white;fill-rule:nonzero;"/>
            </g>
            <g transform="matrix(1.29231,0,0,1.09179,-55.3031,-25.9795)">
                <path d="M208.207,91.975L208.207,86.13L237,86.13L237,157.824L208.27,157.891C208.272,153.349 208.224,108.293 208.207,91.975Z" style="fill:white;fill-rule:nonzero;"/>
            </g>
            <g transform="matrix(1.29231,0,0,1.09179,-55.3031,3.48477)">
                <path d="M256.341,79.925C256.341,72.977 256.332,68.407 256.332,68.125L285.132,68.125L285.132,157.712C276.964,157.729 267.181,157.751 256.402,157.776C256.4,152.537 256.36,103.054 256.341,79.925Z" style="fill:rgb(224,64,251);fill-rule:nonzero;"/>
            </g>
            <g transform="matrix(1.29231,0,0,1.09179,-55.3031,-25.9795)">
                <path d="M229.14,234.671C229.694,240.529 230.046,246.401 230.576,252.261C230.957,256.471 231.467,261.018 233.968,264.578C236.568,268.278 240.583,269.998 244.888,270.908C245.831,271.045 246.738,271.368 247.555,271.858C247.87,272.105 248.134,272.411 248.333,272.758C248.485,272.968 248.564,273.496 248.386,272.817C248.429,272.981 248.486,273.141 248.521,273.306C248.567,273.506 248.601,273.701 248.631,273.899C248.558,273.421 248.631,273.935 248.638,274.055C248.667,274.517 248.697,274.977 248.694,275.441C248.713,276.25 248.618,277.058 248.412,277.841C248.355,278.087 248.343,278.449 248.159,278.456L248.316,278.275L248.196,278.407L248.42,278.249C248.192,278.382 248.233,278.368 248.544,278.207C248.832,278.007 248.844,278.178 248.46,278.161C248.004,278.14 247.542,278.161 247.086,278.161L225.6,278.161L181.44,278.151L162.446,278.151C158.812,278.151 155.161,278.051 151.528,278.151C151.152,278.161 150.961,277.994 151.335,278.197C151.627,278.356 151.616,278.204 151.702,278.448C151.637,278.264 151.486,278.083 151.402,277.901C151.575,278.292 151.356,277.701 151.331,277.607C151.118,276.904 151.004,276.175 150.993,275.441C150.974,275.02 150.971,274.598 150.993,274.177C151.003,273.944 151.021,273.713 151.041,273.482C151.094,272.869 150.951,273.807 151.072,273.312C151.116,273.131 151.395,272.485 151.179,272.885C151.344,272.518 151.598,272.198 151.918,271.954C152.864,271.354 153.933,270.973 155.046,270.841C157.265,270.424 159.401,269.644 161.367,268.533C164.765,266.399 167.159,262.979 168,259.055C168.534,256.668 168.883,254.242 169.043,251.801C169.311,248.908 169.643,246.023 169.806,243.121C169.961,240.299 170.171,237.482 170.437,234.671C170.428,233.358 169.35,232.28 168.037,232.271C166.731,232.298 165.664,233.365 165.637,234.671C165.069,240.687 164.708,246.717 164.16,252.736C164.013,254.849 163.635,256.941 163.034,258.972C162.598,260.512 161.782,261.919 160.663,263.063C160.162,263.592 159.581,264.039 158.941,264.387C158.037,264.925 157.068,265.344 156.058,265.635C153.458,266.435 150.772,266.603 148.628,268.463C145.645,271.053 145.601,276.083 146.928,279.545C147.672,281.484 149.008,282.872 151.176,282.945C151.699,282.963 152.225,282.945 152.748,282.945L175.547,282.945L221.167,282.955L239.59,282.955C242.639,282.955 245.716,283.078 248.762,282.955C253.242,282.777 253.762,277.121 253.402,273.694C253.303,271.593 252.33,269.625 250.72,268.271C248.52,266.501 245.803,266.371 243.22,265.526C241.531,265.028 239.993,264.117 238.745,262.876C237.661,261.688 236.878,260.256 236.465,258.701C235.883,256.593 235.519,254.431 235.378,252.248C235.11,249.278 234.756,246.316 234.587,243.337C234.422,240.437 234.216,237.549 233.942,234.658C233.908,233.355 232.845,232.292 231.542,232.258C230.229,232.268 229.152,233.345 229.142,234.658L229.14,234.671Z" style="fill:rgb(33,23,21);fill-rule:nonzero;"/>
            </g>
            <g transform="matrix(1.29231,0,0,1.09179,-55.3031,-25.9795)">
                <path d="M171.789,268.78L227.889,268.78C230.977,268.78 230.982,263.98 227.889,263.98L171.789,263.98C168.7,263.98 168.695,268.78 171.789,268.78Z" style="fill:rgb(33,23,21);fill-rule:nonzero;"/>
            </g>
            <g transform="matrix(1.29231,0,0,1.09179,-55.3031,-25.9795)">
                <path d="M43.7,44.324C43.73,60.534 43.768,76.745 43.813,92.956C43.864,112.699 43.916,132.442 43.969,152.186C44.016,169.713 44.062,187.239 44.105,204.766L44.129,214.801C44.139,219.382 44.748,223.727 47.423,227.59C50.142,231.579 54.264,234.404 58.966,235.5C62.055,236.183 65.286,235.989 68.432,236C81.243,236.037 94.054,236.052 106.865,236.047C123.532,236.051 140.2,236.045 156.871,236.029C175.246,236.01 193.623,235.988 212,235.963C229.93,235.939 247.86,235.912 265.79,235.881C281.172,235.855 296.554,235.828 311.936,235.8L329.911,235.768C332.591,235.768 335.311,235.892 337.988,235.719C342.871,235.423 347.461,233.276 350.819,229.719C354.162,226.093 356.008,221.331 355.982,216.399C355.993,213.175 355.982,209.951 355.982,206.727C355.978,198.864 355.974,191.001 355.969,183.138L355.924,126C355.913,107.563 355.902,89.126 355.889,70.689C355.885,63.448 355.881,56.208 355.876,48.967C355.876,45.107 356.055,41.233 354.628,37.567C352.908,33.059 349.55,29.362 345.228,27.216C339.18,24.305 331.828,25.244 325.28,25.243L305.562,25.243L257.175,25.235L202.113,25.225L146.896,25.215L98.047,25.2L69.363,25.2C66.626,25.2 63.807,25.017 61.081,25.285C51.33,26.269 43.794,34.524 43.7,44.324C43.666,47.413 48.466,47.416 48.5,44.324C48.511,39.908 50.538,35.731 54,32.99C57.177,30.518 60.772,29.99 64.667,29.99L81.224,29.99L124.801,29.998L177.068,30.007L232.197,30.017L283.59,30.026L325.411,30.033L333.579,30.033C337.2,30.033 340.627,30.047 343.879,31.915C347.663,34.099 350.259,37.886 350.931,42.203C351.404,45.285 351.076,48.636 351.078,51.751C351.087,67.918 351.097,84.085 351.108,100.251L351.144,157.761C351.154,174.387 351.164,191.013 351.174,207.638C351.174,210.917 351.318,214.238 351.157,217.509C350.906,221.75 348.778,225.666 345.357,228.185C340.127,231.999 333.031,230.952 326.906,230.963L286.66,231.035C269.902,231.064 253.144,231.092 236.387,231.118C218.281,231.145 200.175,231.169 182.07,231.19C164.591,231.21 147.111,231.224 129.632,231.231C114.904,231.237 100.176,231.233 85.447,231.219C79.776,231.212 74.105,231.201 68.434,231.186C65.61,231.178 62.596,231.446 59.842,230.766C55.63,229.718 52.105,226.829 50.251,222.905C48.627,219.468 48.928,215.705 48.919,212.01C48.912,208.62 48.904,205.23 48.895,201.839C48.875,193.604 48.854,185.371 48.832,177.139C48.782,157.948 48.731,138.757 48.679,119.567C48.631,101.354 48.585,83.142 48.541,64.929C48.524,58.063 48.51,51.195 48.5,44.324C48.489,41.235 43.689,41.23 43.7,44.324Z" style="fill:rgb(33,23,21);fill-rule:nonzero;"/>
            </g>
            <g transform="matrix(1.29231,0,0,1.09179,-55.3031,-25.9795)">
                <path d="M46.5,205.062C51.041,205.062 55.581,205.06 60.121,205.055C68.584,205.049 77.046,205.042 85.509,205.034C96.847,205.024 108.185,205.013 119.522,205.001C132.825,204.988 146.127,204.973 159.43,204.958C173.608,204.941 187.786,204.924 201.964,204.905C216.077,204.886 230.191,204.865 244.304,204.844C257.365,204.824 270.426,204.802 283.487,204.777C294.509,204.756 305.531,204.732 316.554,204.705C324.573,204.684 332.593,204.658 340.612,204.628C344.577,204.612 348.545,204.622 352.512,204.55C352.866,204.544 353.219,204.532 353.572,204.532C356.661,204.532 356.666,199.732 353.572,199.732C350.631,199.732 347.688,199.794 344.747,199.809C337.621,199.845 330.495,199.871 323.369,199.886C312.995,199.915 302.621,199.939 292.247,199.96C279.543,199.985 266.838,200.007 254.133,200.028C240.183,200.051 226.233,200.072 212.283,200.091C198.03,200.11 183.778,200.129 169.525,200.146L128.825,200.192L93.137,200.227C83.87,200.236 74.604,200.244 65.337,200.251C59.761,200.255 54.185,200.258 48.609,200.261L46.5,200.261C43.412,200.261 43.407,205.061 46.5,205.061L46.5,205.062Z" style="fill:rgb(33,23,21);fill-rule:nonzero;"/>
            </g>
            <g transform="matrix(1.29231,0,0,1.09179,-55.3031,-25.9795)">
                <path d="M206.484,218.264C206.484,218.294 206.485,218.325 206.485,218.355C206.485,221.757 203.686,224.555 200.285,224.555C200.159,224.555 200.033,224.552 199.908,224.544C195.475,224.544 193.189,221.515 193.189,218.261C193.189,218.231 193.188,218.201 193.188,218.171C193.188,214.675 196.065,211.798 199.561,211.798C199.591,211.798 199.62,211.799 199.65,211.799C203.284,211.737 206.344,214.632 206.484,218.264Z" style="fill:rgb(33,23,21);fill-rule:nonzero;"/>
            </g>
            <g transform="matrix(1.29231,0,0,1.09179,-55.3031,3.48477)">
                <path d="M114.4,158.11C114.4,147.642 114.36,137.174 114.339,126.71C114.335,125.185 114.332,123.659 114.33,122.134L111.93,124.534L140.73,124.534L138.33,122.134L138.33,158.054C138.33,161.142 143.13,161.147 143.13,158.054L143.13,122.13C143.111,120.821 142.039,119.749 140.73,119.73L111.93,119.73C110.62,119.748 109.548,120.82 109.53,122.13C109.53,132.199 109.572,142.267 109.591,152.336C109.595,154.261 109.598,156.185 109.6,158.11C109.6,161.198 114.4,161.203 114.4,158.11Z" style="fill:rgb(33,23,21);fill-rule:nonzero;"/>
            </g>
            <g transform="matrix(1.29231,0,0,1.09179,-55.3031,3.48477)">
                <path d="M162.532,158.01C162.532,151.432 162.525,144.854 162.512,138.277L162.479,110.804C162.479,108.579 162.477,106.354 162.472,104.13L160.072,106.53L188.872,106.53L186.472,104.13L186.472,157.95C186.472,161.038 191.272,161.043 191.272,157.95L191.272,104.13C191.253,102.821 190.181,101.749 188.872,101.73L160.072,101.73C158.763,101.749 157.691,102.821 157.672,104.13C157.672,109.972 157.679,115.814 157.692,121.657C157.703,131.02 157.714,140.383 157.724,149.745C157.724,152.5 157.727,155.255 157.732,158.01C157.732,161.098 162.532,161.103 162.532,158.01Z" style="fill:rgb(33,23,21);fill-rule:nonzero;"/>
            </g>
            <g transform="matrix(1.29231,0,0,1.09179,-55.3031,3.48477)">
                <path d="M210.672,157.9C210.672,149.1 210.664,140.3 210.648,131.5C210.636,119.296 210.623,107.092 210.61,94.887C210.61,91.968 210.607,89.049 210.602,86.13L208.202,88.53L237,88.53L234.6,86.13L234.6,157.83C234.6,160.918 239.4,160.923 239.4,157.83L239.4,86.13C239.381,84.821 238.309,83.749 237,83.73L208.2,83.73C206.891,83.749 205.819,84.821 205.8,86.13C205.8,93.92 205.808,101.71 205.824,109.5C205.836,121.986 205.848,134.473 205.861,146.96C205.865,150.606 205.868,154.253 205.87,157.9C205.87,160.988 210.67,160.993 210.67,157.9L210.672,157.9Z" style="fill:rgb(33,23,21);fill-rule:nonzero;"/>
            </g>
            <g transform="matrix(1.29231,0,0,1.09179,-55.3031,3.48477)">
                <path d="M258.8,157.79C258.8,146.785 258.792,135.781 258.776,124.776C258.764,109.501 258.751,94.227 258.738,78.952C258.738,75.344 258.735,71.737 258.73,68.13L256.33,70.53L285.13,70.53L282.73,68.13L282.73,157.72C282.73,160.808 287.53,160.813 287.53,157.72L287.53,68.13C287.511,66.821 286.439,65.749 285.13,65.73L256.33,65.73C255.021,65.749 253.949,66.821 253.93,68.13C253.93,77.81 253.938,87.49 253.954,97.171C253.966,112.816 253.978,128.461 253.991,144.106C253.995,148.667 253.998,153.228 254,157.79C254,160.878 258.8,160.883 258.8,157.79Z" style="fill:rgb(33,23,21);fill-rule:nonzero;"/>
            </g>
            <g transform="matrix(1.29231,0,0,1.09179,-55.3031,3.48477)">
                <path d="M308.731,155.276C305.679,155.276 302.627,155.28 299.576,155.288C294.08,155.298 288.584,155.309 283.088,155.321C275.755,155.336 268.425,155.352 261.1,155.369L235.1,155.428L206.907,155.493L178.231,155.558L150.789,155.619C142.661,155.637 134.533,155.654 126.404,155.67C119.785,155.684 113.166,155.696 106.546,155.707C102.049,155.715 97.552,155.721 93.056,155.725L90.931,155.725C87.842,155.725 87.837,160.525 90.931,160.525C94.823,160.525 98.715,160.521 102.607,160.513L121.07,160.48C128.874,160.465 136.678,160.449 144.481,160.432L171.363,160.373L199.895,160.308L228.364,160.242L255.054,160.181L278.148,160.13L296.165,160.093C299.866,160.086 303.566,160.08 307.265,160.076L308.729,160.076C311.818,160.076 311.823,155.276 308.729,155.276L308.731,155.276Z" style="fill:rgb(33,23,21);fill-rule:nonzero;"/>
            </g>
            <g transform="matrix(3.27987,0,0,2.77096,-855.466,-140.101)">
                <g transform="matrix(27.0654,0,0,27.0654,266.986,81.8131)">
                    <path d="M0.373,-0L0.285,-0L0.285,-0.56C0.264,-0.54 0.236,-0.52 0.201,-0.5C0.167,-0.479 0.136,-0.464 0.109,-0.454L0.109,-0.539C0.158,-0.562 0.201,-0.59 0.238,-0.623C0.275,-0.656 0.301,-0.688 0.316,-0.719L0.373,-0.719L0.373,-0Z" style="fill:rgb(224,64,251);fill-rule:nonzero;"/>
                </g>
                <g transform="matrix(27.0654,0,0,27.0654,280.03,81.8131)">
                    <path d="M0.373,-0L0.285,-0L0.285,-0.56C0.264,-0.54 0.236,-0.52 0.201,-0.5C0.167,-0.479 0.136,-0.464 0.109,-0.454L0.109,-0.539C0.158,-0.562 0.201,-0.59 0.238,-0.623C0.275,-0.656 0.301,-0.688 0.316,-0.719L0.373,-0.719L0.373,-0Z" style="fill:rgb(224,64,251);fill-rule:nonzero;"/>
                </g>
                <g transform="matrix(27.0654,0,0,27.0654,295.082,81.8131)">
                    <path d="M0.042,-0.188L0.134,-0.195C0.141,-0.15 0.156,-0.117 0.181,-0.094C0.206,-0.071 0.236,-0.06 0.271,-0.06C0.314,-0.06 0.35,-0.076 0.379,-0.108C0.408,-0.14 0.423,-0.182 0.423,-0.235C0.423,-0.285 0.409,-0.325 0.381,-0.354C0.352,-0.382 0.316,-0.397 0.27,-0.397C0.242,-0.397 0.216,-0.391 0.193,-0.378C0.171,-0.365 0.153,-0.348 0.14,-0.328L0.057,-0.338L0.126,-0.706L0.482,-0.706L0.482,-0.622L0.197,-0.622L0.158,-0.43C0.201,-0.46 0.246,-0.475 0.293,-0.475C0.356,-0.475 0.409,-0.453 0.452,-0.41C0.495,-0.366 0.516,-0.311 0.516,-0.243C0.516,-0.178 0.497,-0.122 0.459,-0.075C0.414,-0.017 0.351,0.012 0.271,0.012C0.206,0.012 0.153,-0.006 0.112,-0.042C0.071,-0.079 0.047,-0.127 0.042,-0.188Z" style="fill:rgb(224,64,251);fill-rule:nonzero;"/>
                </g>
                <g transform="matrix(15.1807,0,0,15.1807,310.135,81.8131)">
                    <path d="M0.058,-0.544C0.058,-0.595 0.071,-0.639 0.097,-0.674C0.122,-0.71 0.16,-0.728 0.208,-0.728C0.253,-0.728 0.291,-0.712 0.32,-0.68C0.35,-0.648 0.364,-0.601 0.364,-0.539C0.364,-0.478 0.349,-0.431 0.32,-0.399C0.29,-0.366 0.253,-0.35 0.209,-0.35C0.166,-0.35 0.13,-0.366 0.101,-0.398C0.073,-0.43 0.058,-0.479 0.058,-0.544ZM0.211,-0.667C0.189,-0.667 0.171,-0.658 0.156,-0.639C0.142,-0.62 0.135,-0.586 0.135,-0.535C0.135,-0.489 0.142,-0.457 0.157,-0.438C0.171,-0.42 0.189,-0.41 0.211,-0.41C0.233,-0.41 0.251,-0.42 0.266,-0.438C0.28,-0.457 0.288,-0.492 0.288,-0.542C0.288,-0.588 0.28,-0.621 0.266,-0.639C0.251,-0.658 0.233,-0.667 0.211,-0.667ZM0.211,0.026L0.603,-0.728L0.674,-0.728L0.284,0.026L0.211,0.026ZM0.521,-0.168C0.521,-0.219 0.534,-0.263 0.56,-0.299C0.585,-0.334 0.623,-0.352 0.672,-0.352C0.717,-0.352 0.754,-0.336 0.783,-0.304C0.813,-0.272 0.828,-0.225 0.828,-0.163C0.828,-0.102 0.813,-0.055 0.783,-0.023C0.753,0.01 0.716,0.026 0.672,0.026C0.629,0.026 0.593,0.01 0.564,-0.022C0.535,-0.055 0.521,-0.103 0.521,-0.168ZM0.674,-0.292C0.652,-0.292 0.634,-0.282 0.619,-0.263C0.605,-0.244 0.598,-0.21 0.598,-0.159C0.598,-0.114 0.605,-0.081 0.62,-0.063C0.634,-0.044 0.652,-0.034 0.674,-0.034C0.696,-0.034 0.715,-0.044 0.729,-0.063C0.744,-0.081 0.751,-0.116 0.751,-0.166C0.751,-0.212 0.744,-0.245 0.729,-0.263C0.714,-0.282 0.696,-0.292 0.674,-0.292Z" style="fill:rgb(33,23,21);fill-rule:nonzero;"/>
                </g>
            </g>
            <g transform="matrix(0.331784,-0.178854,0.670196,0.887374,18.9256,231.823)">
                <path d="M687.873,-27.401C687.873,-25.913 691.691,-24.707 696.4,-24.707L844.723,-24.707C844.723,-24.707 844.723,-15.056 844.723,-15.056C844.723,-13.967 846.8,-12.984 849.986,-12.568C853.172,-12.151 856.84,-12.381 859.279,-13.151L919.403,-32.144C922.733,-33.195 922.733,-34.901 919.403,-35.953L859.279,-54.945C856.84,-55.715 853.172,-55.946 849.986,-55.529C846.8,-55.112 844.723,-54.13 844.723,-53.04L844.723,-43.389C844.723,-43.389 696.4,-43.389 696.4,-43.389C691.691,-43.389 687.873,-42.183 687.873,-40.695L687.873,-27.401ZM704.927,-30.094L704.927,-38.002C704.927,-38.002 853.249,-38.002 853.249,-38.002C857.958,-38.002 861.776,-39.208 861.776,-40.695L861.776,-46.538C861.776,-46.538 901.316,-34.048 901.316,-34.048C901.316,-34.048 861.776,-21.558 861.776,-21.558C861.776,-21.558 861.776,-27.401 861.776,-27.401C861.776,-28.888 857.958,-30.094 853.249,-30.094L704.927,-30.094Z" style="fill:rgb(33,23,21);"/>
            </g>
        </g>
    </g>
</svg>
