<?xml version="1.0" encoding="UTF-8" standalone="no"?>
<!DOCTYPE svg PUBLIC "-//W3C//DTD SVG 1.1//EN" "http://www.w3.org/Graphics/SVG/1.1/DTD/svg11.dtd">
<svg width="100%" height="100%" viewBox="0 0 200 200" version="1.1" xmlns="http://www.w3.org/2000/svg" xmlns:xlink="http://www.w3.org/1999/xlink" xml:space="preserve" xmlns:serif="http://www.serif.com/" style="fill-rule:evenodd;clip-rule:evenodd;stroke-linejoin:round;stroke-miterlimit:2;">
    <g transform="matrix(1,0,0,1,-637,-285.839)">
        <g id="アートボード3" transform="matrix(1,0,0,1,-0.455434,285.839)">
            <rect x="637.455" y="0" width="200" height="200" style="fill:none;"/>
            <g transform="matrix(1,0,0,1,-18.0967,-2.14468)">
                <g transform="matrix(0.29114,0,0,0.29114,725.029,119.675)">
                    <circle cx="329.122" cy="55.158" r="26.05" style="fill:rgb(189,189,189);"/>
                </g>
                <g transform="matrix(0.340834,0,0,0.340834,685.49,113.408)">
                    <circle cx="329.122" cy="55.158" r="26.05" style="fill:rgb(189,189,189);"/>
                </g>
                <g transform="matrix(-0.29114,0,0,0.29114,816.022,119.675)">
                    <circle cx="329.122" cy="55.158" r="26.05" style="fill:rgb(189,189,189);"/>
                </g>
                <g transform="matrix(-0.340834,0,0,0.340834,855.561,113.408)">
                    <circle cx="329.122" cy="55.158" r="26.05" style="fill:rgb(189,189,189);"/>
                </g>
                <g transform="matrix(0.39901,0,0,0.39901,639.203,106.071)">
                    <circle cx="329.122" cy="55.158" r="26.05" style="fill:rgb(189,189,189);"/>
                </g>
                <g transform="matrix(0.39901,0,0,0.39901,639.203,105.508)">
                    <path d="M309.034,89.471C303.229,93.28 298.567,98.691 295.681,105.073L295.589,105.276C293.564,109.828 292.438,114.865 292.438,120.164L292.438,221.621C292.438,222.601 292.476,223.572 292.552,224.533L365.692,224.533C365.768,223.572 365.806,222.601 365.806,221.621L365.806,120.164C365.806,110.911 362.373,102.454 356.712,95.996C356.265,95.487 355.804,94.99 355.331,94.507C353.481,92.617 351.429,90.927 349.21,89.471C343.358,93.054 336.479,95.119 329.122,95.119C321.765,95.119 314.886,93.054 309.034,89.471Z" style="fill:rgb(189,189,189);"/>
                </g>
                <g transform="matrix(1,0,0,1,0.455434,0)">
                    <path d="M751.266,189.455L730.465,189.455C730.44,189.128 730.426,188.797 730.426,188.463L730.426,153.883C730.426,150.729 731.597,147.847 733.526,145.646C733.679,145.472 733.835,145.303 733.997,145.138C734.627,144.494 735.327,143.918 736.083,143.422C738.078,144.643 740.422,145.347 742.93,145.347C745.437,145.347 747.782,144.643 749.776,143.422C750.906,144.163 751.909,145.083 752.745,146.14C751.793,148.389 751.266,150.861 751.266,153.455L751.266,189.455Z" style="fill:rgb(189,189,189);"/>
                </g>
                <g transform="matrix(1,0,0,1,0.455434,0)">
                    <path d="M726.26,184.635L709.099,184.635C709.077,184.355 709.066,184.072 709.066,183.787L709.066,154.249C709.066,151.555 710.066,149.093 711.714,147.213C711.844,147.064 711.978,146.92 712.116,146.779C712.654,146.229 713.252,145.737 713.898,145.313C715.602,146.356 717.604,146.957 719.746,146.957C721.888,146.957 723.891,146.356 725.595,145.313C726.37,145.822 727.075,146.428 727.693,147.116C726.772,149.184 726.26,151.474 726.26,153.883L726.26,184.635Z" style="fill:rgb(189,189,189);"/>
                </g>
                <g transform="matrix(1,0,0,1,0.455434,0)">
                    <path d="M787.396,146.139C788.348,148.389 788.874,150.861 788.874,153.455L788.874,189.455L809.675,189.455C809.701,189.128 809.714,188.797 809.714,188.463L809.714,153.883C809.714,150.729 808.544,147.847 806.614,145.646C806.462,145.472 806.305,145.303 806.144,145.138C805.513,144.494 804.814,143.918 804.057,143.422C802.063,144.643 799.718,145.347 797.211,145.347C794.703,145.347 792.359,144.643 790.364,143.422C789.234,144.163 788.232,145.082 787.396,146.139Z" style="fill:rgb(189,189,189);"/>
                </g>
                <g transform="matrix(1,0,0,1,0.455434,0)">
                    <path d="M812.448,147.116C813.369,149.184 813.881,151.474 813.881,153.883L813.881,184.635L831.041,184.635C831.063,184.355 831.074,184.072 831.074,183.787L831.074,154.249C831.074,151.555 830.075,149.093 828.427,147.213C828.297,147.064 828.163,146.92 828.025,146.779C827.486,146.229 826.889,145.737 826.243,145.313C824.539,146.356 822.536,146.957 820.394,146.957C818.252,146.957 816.25,146.356 814.546,145.313C813.771,145.822 813.065,146.428 812.448,147.116Z" style="fill:rgb(189,189,189);"/>
                </g>
            </g>
            <g transform="matrix(126.536,0,0,126.536,641.82,104.737)">
                <path d="M0.498,-0.541L0.41,-0.534C0.402,-0.568 0.391,-0.593 0.377,-0.609C0.353,-0.634 0.324,-0.646 0.289,-0.646C0.261,-0.646 0.236,-0.639 0.215,-0.623C0.188,-0.603 0.166,-0.573 0.15,-0.535C0.134,-0.496 0.126,-0.441 0.125,-0.369C0.146,-0.401 0.172,-0.425 0.203,-0.441C0.233,-0.457 0.265,-0.464 0.299,-0.464C0.357,-0.464 0.407,-0.443 0.448,-0.4C0.49,-0.357 0.51,-0.301 0.51,-0.232C0.51,-0.188 0.501,-0.146 0.481,-0.107C0.462,-0.069 0.435,-0.039 0.401,-0.019C0.368,0.002 0.329,0.012 0.286,0.012C0.213,0.012 0.153,-0.015 0.107,-0.069C0.061,-0.122 0.038,-0.211 0.038,-0.335C0.038,-0.473 0.063,-0.574 0.114,-0.637C0.159,-0.691 0.219,-0.719 0.294,-0.719C0.351,-0.719 0.397,-0.703 0.433,-0.671C0.469,-0.64 0.49,-0.596 0.498,-0.541ZM0.139,-0.232C0.139,-0.202 0.145,-0.173 0.158,-0.145C0.171,-0.117 0.189,-0.096 0.212,-0.082C0.235,-0.067 0.259,-0.06 0.285,-0.06C0.322,-0.06 0.354,-0.075 0.38,-0.105C0.407,-0.135 0.42,-0.176 0.42,-0.227C0.42,-0.277 0.407,-0.316 0.381,-0.344C0.354,-0.372 0.321,-0.387 0.281,-0.387C0.242,-0.387 0.208,-0.372 0.18,-0.344C0.153,-0.316 0.139,-0.278 0.139,-0.232Z" style="fill:rgb(224,64,251);fill-rule:nonzero;"/>
            </g>
            <g transform="matrix(126.536,0,0,126.536,712.193,104.737)">
                <path d="M0.042,-0.353C0.042,-0.438 0.05,-0.506 0.068,-0.557C0.085,-0.609 0.111,-0.649 0.145,-0.677C0.18,-0.705 0.223,-0.719 0.275,-0.719C0.313,-0.719 0.347,-0.711 0.376,-0.696C0.405,-0.68 0.429,-0.658 0.448,-0.629C0.467,-0.6 0.481,-0.564 0.492,-0.522C0.503,-0.48 0.508,-0.424 0.508,-0.353C0.508,-0.269 0.5,-0.201 0.482,-0.15C0.465,-0.098 0.439,-0.058 0.405,-0.03C0.371,-0.002 0.327,0.012 0.275,0.012C0.206,0.012 0.152,-0.013 0.112,-0.062C0.065,-0.122 0.042,-0.219 0.042,-0.353ZM0.132,-0.353C0.132,-0.236 0.146,-0.157 0.173,-0.118C0.201,-0.08 0.235,-0.06 0.275,-0.06C0.315,-0.06 0.349,-0.08 0.377,-0.119C0.404,-0.158 0.418,-0.236 0.418,-0.353C0.418,-0.471 0.404,-0.549 0.377,-0.588C0.349,-0.627 0.315,-0.646 0.274,-0.646C0.234,-0.646 0.201,-0.629 0.177,-0.595C0.147,-0.551 0.132,-0.471 0.132,-0.353Z" style="fill:rgb(224,64,251);fill-rule:nonzero;"/>
            </g>
            <g transform="matrix(1.22987,0,0,1.22987,-185.755,-8.78345)">
                <g transform="matrix(23.4325,0,0,23.4325,782.566,83.378)">
                    <path d="M0.363,-0.41C0.4,-0.363 0.435,-0.311 0.469,-0.254L0.398,-0.211C0.37,-0.263 0.336,-0.315 0.297,-0.367L0.363,-0.41ZM0.648,-0.16C0.648,-0.118 0.628,-0.098 0.586,-0.098L0.5,-0.098L0.484,-0.172L0.555,-0.172C0.565,-0.172 0.57,-0.177 0.57,-0.188L0.57,-0.457L0.23,-0.457L0.23,-0.531L0.57,-0.531L0.57,-0.648L0.645,-0.648C0.665,-0.646 0.667,-0.638 0.648,-0.625L0.648,-0.531L0.773,-0.531L0.773,-0.457L0.648,-0.457L0.648,-0.16ZM0.887,0.066L0.809,0.066L0.809,0.027L0.188,0.027L0.188,0.078L0.109,0.078L0.109,-0.762L0.887,-0.762L0.887,0.066ZM0.809,-0.047L0.809,-0.688L0.188,-0.688L0.188,-0.047L0.809,-0.047Z" style="fill:rgb(51,51,51);fill-rule:nonzero;"/>
                </g>
                <g transform="matrix(23.4325,0,0,23.4325,805.999,83.378)">
                    <path d="M0.27,-0.148C0.397,-0.266 0.491,-0.396 0.551,-0.539L0.305,-0.539L0.305,-0.613L0.57,-0.613L0.57,-0.809L0.645,-0.809C0.665,-0.806 0.667,-0.798 0.648,-0.785L0.648,-0.613L0.93,-0.613L0.93,-0.539L0.672,-0.539C0.714,-0.414 0.807,-0.284 0.953,-0.148L0.898,-0.07C0.786,-0.182 0.703,-0.296 0.648,-0.41L0.648,-0.184L0.762,-0.184L0.762,-0.109L0.648,-0.109L0.648,0.082L0.57,0.082L0.57,-0.109L0.469,-0.109L0.469,-0.184L0.57,-0.184L0.57,-0.41C0.508,-0.272 0.427,-0.16 0.328,-0.074L0.27,-0.148ZM0.301,-0.762C0.288,-0.694 0.27,-0.63 0.246,-0.57C0.267,-0.563 0.267,-0.553 0.246,-0.543L0.246,0.09L0.168,0.09L0.168,-0.398C0.15,-0.359 0.126,-0.326 0.098,-0.297L0.043,-0.367C0.132,-0.487 0.193,-0.635 0.227,-0.813L0.313,-0.781C0.326,-0.771 0.322,-0.764 0.301,-0.762Z" style="fill:rgb(51,51,51);fill-rule:nonzero;"/>
                </g>
            </g>
            <g transform="matrix(0.764479,0,0,0.764479,195.402,33.9347)">
                <g transform="matrix(23.4325,0,0,23.4325,789.165,104.542)">
                    <path d="M0.734,-0.734L0.809,-0.727C0.829,-0.724 0.831,-0.716 0.813,-0.703L0.813,-0.422C0.813,-0.331 0.797,-0.255 0.766,-0.195L0.953,-0.043L0.895,0.035L0.73,-0.129C0.663,-0.035 0.54,0.033 0.363,0.074L0.332,-0.012C0.467,-0.033 0.568,-0.076 0.633,-0.141C0.701,-0.208 0.734,-0.311 0.734,-0.449L0.734,-0.734ZM0.598,-0.289C0.514,-0.221 0.368,-0.126 0.16,-0.004C0.155,0.017 0.146,0.018 0.133,-0L0.094,-0.082C0.109,-0.087 0.142,-0.103 0.191,-0.129L0.168,-0.711L0.25,-0.703C0.271,-0.701 0.272,-0.693 0.254,-0.68L0.273,-0.168C0.391,-0.236 0.486,-0.298 0.559,-0.355L0.598,-0.289ZM0.434,-0.691C0.486,-0.655 0.534,-0.607 0.578,-0.547L0.5,-0.488C0.453,-0.553 0.409,-0.6 0.367,-0.629L0.434,-0.691Z" style="fill:rgb(51,51,51);fill-rule:nonzero;"/>
                </g>
                <g transform="matrix(23.4325,0,0,23.4325,812.597,104.542)">
                    <path d="M0.418,-0.082L0.418,-0.773L0.504,-0.773C0.53,-0.768 0.531,-0.758 0.508,-0.742L0.508,-0.516L0.824,-0.516L0.824,-0.43L0.508,-0.43L0.508,-0.082L0.914,-0.082L0.914,0.004L0.066,0.004L0.066,-0.082L0.418,-0.082Z" style="fill:rgb(51,51,51);fill-rule:nonzero;"/>
                </g>
            </g>
        </g>
    </g>
</svg>
