<?xml version="1.0" encoding="UTF-8" standalone="no"?>
<!DOCTYPE svg PUBLIC "-//W3C//DTD SVG 1.1//EN" "http://www.w3.org/Graphics/SVG/1.1/DTD/svg11.dtd">
<svg width="100%" height="100%" viewBox="0 0 87 25" version="1.1" xmlns="http://www.w3.org/2000/svg" xmlns:xlink="http://www.w3.org/1999/xlink" xml:space="preserve" xmlns:serif="http://www.serif.com/" style="fill-rule:evenodd;clip-rule:evenodd;stroke-linejoin:round;stroke-miterlimit:2;">
    <g transform="matrix(1,0,0,1,0,-93.6593)">
        <g id="アートボード4" transform="matrix(1,0,0,1,102.922,-18.281)">
            <rect x="-102.922" y="111.94" width="86.732" height="24.524" style="fill:none;"/>
            <clipPath id="_clip1">
                <rect x="-102.922" y="111.94" width="86.732" height="24.524"/>
            </clipPath>
            <g clip-path="url(#_clip1)">
                <g transform="matrix(38.3989,0,0,38.3989,-104.197,140.965)">
                    <path d="M0.232,-0.633L0.232,-0.691L0.367,-0.691L0.367,-0.75L0.484,-0.75L0.484,-0.691L0.619,-0.691L0.619,-0.633L0.484,-0.633L0.484,-0.551L0.619,-0.551L0.479,-0.325L0.631,-0.117L0.502,-0.117L0.42,-0.229L0.35,-0.117L0.221,-0.117L0.35,-0.324L0.244,-0.469L0.373,-0.469L0.409,-0.42L0.454,-0.492L0.232,-0.492L0.232,-0.551L0.367,-0.551L0.367,-0.633L0.232,-0.633ZM0.068,-0.117L0.068,-0.393L0.033,-0.375L0.033,-0.445L0.068,-0.463L0.068,-0.645L0.033,-0.645L0.033,-0.703L0.068,-0.703L0.068,-0.75L0.186,-0.75L0.186,-0.703L0.221,-0.703L0.221,-0.645L0.186,-0.645L0.186,-0.521L0.221,-0.539L0.221,-0.469L0.186,-0.451L0.186,-0.117L0.068,-0.117Z" style="fill-rule:nonzero;"/>
                </g>
                <g transform="matrix(38.3989,0,0,38.3989,-79.6572,140.965)">
                    <path d="M0.033,-0.563L0.033,-0.621L0.255,-0.621L0.314,-0.75L0.443,-0.75L0.384,-0.621L0.631,-0.621L0.631,-0.563L0.396,-0.563L0.643,-0.117L0.508,-0.117L0.313,-0.469L0.15,-0.117L0.021,-0.117L0.228,-0.563L0.033,-0.563Z" style="fill-rule:nonzero;"/>
                </g>
                <g transform="matrix(38.3989,0,0,38.3989,-55.1179,140.965)">
                    <path d="M0.596,-0.428L0.596,-0.369L0.068,-0.369L0.068,-0.428L0.596,-0.428ZM0.033,-0.293L0.033,-0.352L0.631,-0.352L0.631,-0.293L0.391,-0.293L0.391,-0.117L0.273,-0.117L0.273,-0.293L0.033,-0.293ZM0.033,-0.117L0.104,-0.281L0.221,-0.281L0.15,-0.117L0.033,-0.117ZM0.631,-0.117L0.514,-0.117L0.443,-0.281L0.561,-0.281L0.631,-0.117ZM0.021,-0.521L0.057,-0.75L0.174,-0.75L0.17,-0.727L0.326,-0.727L0.326,-0.539C0.326,-0.477 0.295,-0.445 0.232,-0.445L0.045,-0.445L0.045,-0.504L0.174,-0.504C0.188,-0.504 0.197,-0.508 0.203,-0.516L0.142,-0.538L0.139,-0.521L0.021,-0.521ZM0.326,-0.445L0.403,-0.574L0.338,-0.609L0.338,-0.68L0.436,-0.627L0.467,-0.68L0.338,-0.68L0.338,-0.738L0.631,-0.738L0.533,-0.575L0.643,-0.516L0.643,-0.445L0.501,-0.521L0.455,-0.445L0.326,-0.445ZM0.161,-0.668L0.159,-0.655L0.209,-0.637L0.209,-0.668L0.161,-0.668ZM0.151,-0.604L0.149,-0.588L0.209,-0.566L0.209,-0.584L0.151,-0.604Z" style="fill-rule:nonzero;"/>
                </g>
                <g transform="matrix(0.981905,0,0,0.981905,-0.292943,2.46929)">
                    <path d="M-16.189,111.488L-28.596,111.51L-28.596,136.465L-16.189,136.465L-16.189,111.488ZM-21.906,131.672L-21.906,132.656C-21.906,133.18 -21.578,133.443 -20.922,133.443L-17.971,133.443L-17.971,129.901L-16.987,129.901L-16.987,135.41L-20.922,135.41C-22.234,135.41 -22.89,134.82 -22.89,133.64L-22.89,132.656C-22.89,132.131 -23.218,131.869 -23.873,131.869L-25.644,131.869C-26.3,131.869 -26.628,132.131 -26.628,132.656L-26.628,135.41L-27.612,135.41L-27.612,131.672C-27.612,130.491 -26.956,129.901 -25.644,129.901L-23.873,129.901C-22.562,129.901 -21.906,130.491 -21.906,131.672ZM-16.987,124.589L-16.987,127.343C-16.987,128.524 -17.643,129.114 -18.954,129.114L-25.644,129.114C-26.956,129.114 -27.612,128.524 -27.612,127.343L-27.612,124.589C-27.612,123.408 -26.956,122.818 -25.644,122.818L-18.954,122.818C-17.643,122.818 -16.987,123.408 -16.987,124.589ZM-18.954,124.785L-19.348,124.785L-22.89,127.147L-18.954,127.147C-18.299,127.147 -17.971,126.884 -17.971,126.359L-17.971,125.572C-17.971,125.048 -18.299,124.785 -18.954,124.785ZM-25.644,124.785C-26.3,124.785 -26.628,125.048 -26.628,125.572L-26.628,126.359C-26.628,126.884 -26.3,127.147 -25.644,127.147L-25.251,127.147L-21.709,124.785L-25.644,124.785ZM-21.906,118.292L-21.906,119.276C-21.906,119.801 -21.578,120.063 -20.922,120.063L-17.971,120.063L-17.971,116.521L-16.987,116.521L-16.987,122.031L-20.922,122.031C-22.234,122.031 -22.89,121.44 -22.89,120.26L-22.89,119.276C-22.89,118.751 -23.218,118.489 -23.873,118.489L-25.644,118.489C-26.3,118.489 -26.628,118.751 -26.628,119.276L-26.628,122.031L-27.612,122.031L-27.612,118.292C-27.612,117.112 -26.956,116.521 -25.644,116.521L-23.873,116.521C-22.562,116.521 -21.906,117.112 -21.906,118.292ZM-26.628,115.734L-27.612,115.734L-27.612,112.586L-16.987,112.586L-16.987,114.554L-26.628,114.554L-26.628,115.734Z"/>
                </g>
            </g>
        </g>
        <g id="黒背景">
        </g>
    </g>
</svg>
