<?xml version="1.0" encoding="UTF-8" standalone="no"?>
<!DOCTYPE svg PUBLIC "-//W3C//DTD SVG 1.1//EN" "http://www.w3.org/Graphics/SVG/1.1/DTD/svg11.dtd">
<svg width="100%" height="100%" viewBox="0 0 100 28" version="1.1" xmlns="http://www.w3.org/2000/svg" xmlns:xlink="http://www.w3.org/1999/xlink" xml:space="preserve" xmlns:serif="http://www.serif.com/" style="fill-rule:evenodd;clip-rule:evenodd;stroke-linejoin:round;stroke-miterlimit:2;">
    <g id="アートボード1" transform="matrix(0.994684,0,0,0.768055,-105.503,-0.201745)">
        <rect x="106.067" y="0.263" width="100.534" height="36.456" style="fill:none;"/>
        <g transform="matrix(1.02217,0,0,1.36624,105.521,-15.618)">
            <g transform="matrix(0.34446,0,0,0.34446,-1.66885,-28.6801)">
                <rect x="197.004" y="151.419" width="35.635" height="3" style="fill:rgb(36,24,19);"/>
            </g>
            <g transform="matrix(0.207868,0.27467,0.27467,-0.207868,59.0144,31.1456)">
                <rect x="10.902" y="-6.917" width="3.007" height="28.84" style="fill:rgb(36,24,19);"/>
            </g>
            <g transform="matrix(0.274717,0.207806,0.207806,-0.274717,78.1667,28.3542)">
                <rect x="-2.014" y="-9.003" width="28.84" height="3" style="fill:rgb(36,24,19);"/>
            </g>
            <g transform="matrix(0.34446,0,0,0.34446,-1.66885,-42.803)">
                <rect x="24.513" y="171.919" width="9.875" height="3" style="fill:rgb(36,24,19);"/>
            </g>
            <g transform="matrix(0.320809,-0.125436,-0.125436,-0.320809,7.77857,25.4821)">
                <path d="M-7.208,1.925L-3.986,1.925L10.208,38.226L7.414,39.319L-7.208,1.925Z" style="fill:rgb(36,24,19);fill-rule:nonzero;"/>
            </g>
            <g transform="matrix(0.34446,0,0,0.34446,5.22489,37.8852)">
                <path d="M0,-28.797L0,-1.826L-11.375,-1.826L-11.375,1.174L3.042,1.174L3.002,-29.971L0,-28.797Z" style="fill:rgb(36,24,19);fill-rule:nonzero;"/>
            </g>
            <g transform="matrix(-0.130084,-0.318953,-0.318953,0.130084,2.76155,22.879)">
                <rect x="-14.943" y="-17.765" width="3.002" height="27.808" style="fill:rgb(36,24,19);"/>
            </g>
            <g transform="matrix(-0.34446,0,0,0.34446,7.68358,-42.803)">
                <rect x="8.638" y="171.919" width="9.875" height="3" style="fill:rgb(36,24,19);"/>
            </g>
            <g transform="matrix(0.34446,0,0,0.34446,-1.66885,-42.8064)">
                <rect x="58.638" y="158.929" width="3" height="28.99" style="fill:rgb(36,24,19);"/>
            </g>
            <g transform="matrix(-0.34446,0,0,0.34446,30.7193,-44.1808)">
                <rect x="36.888" y="173.919" width="20.25" height="3" style="fill:rgb(36,24,19);"/>
            </g>
            <g transform="matrix(0.34446,0,0,0.34446,-1.66885,-44.1808)">
                <rect x="63.138" y="173.919" width="20.25" height="3" style="fill:rgb(36,24,19);"/>
            </g>
            <g transform="matrix(0.34446,0,0,0.34446,19.43,23.1583)">
                <path d="M0,17.854L2.177,19.927L23.155,0.528L22.136,-2.073L-24.364,-2.073L-24.364,0.927L18.305,0.927L0,17.854Z" style="fill:rgb(36,24,19);fill-rule:nonzero;"/>
            </g>
            <g transform="matrix(-0.233912,0.252859,0.252859,0.233912,29.2063,32.2072)">
                <rect x="14.611" y="-40.262" width="2.991" height="46.65" style="fill:rgb(36,24,19);"/>
            </g>
            <g transform="matrix(-0.252894,0.233874,0.233874,0.252894,14.8225,39.3609)">
                <path d="M-23.623,-12.345L4.937,-12.345L4.937,-9.345L-23.815,-9.344L-23.623,-12.345Z" style="fill:rgb(36,24,19);fill-rule:nonzero;"/>
            </g>
            <g transform="matrix(0.34446,0,0,0.34446,43.7667,31.7313)">
                <path d="M0,-39.086L-0.016,-57.461L-3.016,-57.461L-3.016,-39.086L-40.511,16.703L-38.02,18.375L-1.516,-36.019L34.989,18.375L37.479,16.703L0,-39.086Z" style="fill:rgb(36,24,19);fill-rule:nonzero;"/>
            </g>
            <g transform="matrix(0.34446,0,0,0.34446,56.2482,18.9136)">
                <path d="M0,-3L-34.751,-3L-34.751,-2.449L-33.118,0L0,0L0,-3Z" style="fill:rgb(36,24,19);fill-rule:nonzero;"/>
            </g>
            <g transform="matrix(0.34446,0,0,0.34446,42.2111,18.6916)">
                <path d="M0,-1.712L0,-2.356L-34.75,-2.356L-34.75,0.644L-1.572,0.644L0,-1.712Z" style="fill:rgb(36,24,19);fill-rule:nonzero;"/>
            </g>
            <g transform="matrix(0.34446,0,0,0.34446,71.8121,38.2893)">
                <path d="M0,-26.271L0,-3L-7.559,-3L-7.559,0L3.066,0L3.004,-26.271L0,-26.271Z" style="fill:rgb(36,24,19);fill-rule:nonzero;"/>
            </g>
            <g transform="matrix(0.34446,0,0,0.34446,-1.66885,-20.2409)">
                <rect x="178.139" y="139.169" width="70.5" height="3" style="fill:rgb(36,24,19);"/>
            </g>
            <g transform="matrix(-0.335885,-0.0763815,-0.0763815,0.335885,63.1739,16.2245)">
                <path d="M-14.724,-1.224L-0.166,-1.224L-0.166,1.777L-14.152,1.777L-14.724,-1.224Z" style="fill:rgb(36,24,19);fill-rule:nonzero;"/>
            </g>
            <g transform="matrix(0.34446,0,0,0.34446,63.6662,19.0263)">
                <path d="M0,-13.968L18.324,-13.968L11.174,2.348L14.164,3L21.992,-14.866L20.619,-16.968L1.637,-16.968L0,-13.968Z" style="fill:rgb(36,24,19);fill-rule:nonzero;"/>
            </g>
            <g transform="matrix(0.34446,0,0,0.34446,61.7642,21.4328)">
                <path d="M0,-6.964L-0.666,-4.038L17.328,0L18.359,-0.962L19.094,-2.635L0,-6.964Z" style="fill:rgb(36,24,19);fill-rule:nonzero;"/>
            </g>
            <g transform="matrix(-0.303047,-0.163753,-0.163753,0.303047,57.8717,17.5857)">
                <rect x="-8.693" y="-22.522" width="2.997" height="24.721" style="fill:rgb(36,24,19);"/>
            </g>
            <g transform="matrix(-0.289611,0.186489,0.186489,0.289611,62.5613,27.3579)">
                <path d="M-16.901,-9.333L4.861,-9.333L4.86,-6.333L-19.894,-6.333L-16.901,-9.333Z" style="fill:rgb(36,24,19);fill-rule:nonzero;"/>
            </g>
            <g transform="matrix(0.34446,0,0,0.34446,76.5733,14.0307)">
                <path d="M0,16.111L0.826,17.973L1.742,18.576L22.49,0.156L21.494,-2.465L-1.738,-2.465L-1.738,0.535L17.545,0.535L0,16.111Z" style="fill:rgb(36,24,19);fill-rule:nonzero;"/>
            </g>
            <g transform="matrix(0.34446,0,0,0.34446,76.4273,17.6434)">
                <path d="M0,8.495L0.014,8.474L-11.193,-17.164L-13.941,-15.962L-2.689,9.774L-2.127,10.699L21.105,25.659L22.73,23.136L0,8.495Z" style="fill:rgb(36,24,19);fill-rule:nonzero;"/>
            </g>
            <g transform="matrix(0.34446,0,0,0.34446,-1.66885,-4.58378)">
                <rect x="268.652" y="116.188" width="22.801" height="3.508" style="fill:rgb(36,24,19);"/>
            </g>
            <g transform="matrix(0.253717,-0.232981,-0.232981,-0.253717,97.7825,34.3403)">
                <path d="M-1.433,-0.558C-1.063,0.211 -0.466,1.061 0.396,1.999L-1.432,3.678L-3.543,1.38L-1.433,-0.558Z" style="fill:rgb(36,24,19);fill-rule:nonzero;"/>
            </g>
            <g transform="matrix(-0.34446,0,0,0.34446,181.282,-4.62098)">
                <rect x="264.174" y="111.368" width="2.777" height="13.256" style="fill:rgb(36,24,19);"/>
            </g>
            <g transform="matrix(-0.34446,0,0,0.34446,89.3405,31.7537)">
                <rect x="-3.055" y="-16.781" width="3.09" height="16.781" style="fill:rgb(36,24,19);"/>
            </g>
            <g transform="matrix(0.34446,0,0,0.34446,98.7035,30.2783)">
                <path d="M0,-8.782C-0.359,-10.126 -0.727,-11.177 -1.105,-11.931L-4.977,-11.931L-4.977,-11.729C-4.768,-11.437 -4.52,-11.054 -4.227,-10.58C-3.936,-10.105 -3.686,-9.611 -3.479,-9.101C-3.234,-8.492 -3.033,-7.855 -2.867,-7.193C-2.703,-6.528 -2.619,-5.876 -2.619,-5.229C-2.619,-4.56 -2.713,-3.947 -2.895,-3.386C-3.078,-2.826 -3.35,-2.333 -3.715,-1.907C-4.094,-1.494 -4.568,-1.169 -5.141,-0.93C-5.713,-0.692 -6.375,-0.576 -7.131,-0.576C-8.592,-0.576 -10.006,-0.952 -11.377,-1.707C-12.746,-2.46 -14.568,-3.873 -16.846,-5.942C-17.977,-6.965 -19.066,-8.011 -20.111,-9.083C-20.84,-9.828 -21.598,-10.615 -22.373,-11.424L-22.373,-7.25C-21.928,-6.778 -21.449,-6.275 -20.916,-5.715C-19.576,-4.307 -18.287,-3.033 -17.043,-1.888C-16.291,-1.182 -15.523,-0.513 -14.744,0.12C-13.967,0.751 -13.18,1.295 -12.389,1.744C-11.623,2.183 -10.787,2.529 -9.887,2.778C-8.986,3.026 -8.006,3.149 -6.947,3.149C-4.646,3.149 -2.824,2.433 -1.479,0.997C-0.133,-0.442 0.537,-2.424 0.537,-4.956C0.537,-6.161 0.359,-7.436 0,-8.782" style="fill:rgb(36,24,19);fill-rule:nonzero;"/>
            </g>
            <g transform="matrix(0.34446,0,0,0.34446,98.7035,16.2155)">
                <path d="M0,-8.783C-0.359,-10.128 -0.727,-11.178 -1.105,-11.932L-4.977,-11.932L-4.977,-11.731C-4.768,-11.439 -4.52,-11.056 -4.227,-10.581C-3.936,-10.107 -3.686,-9.614 -3.479,-9.102C-3.234,-8.493 -3.033,-7.858 -2.867,-7.194C-2.703,-6.53 -2.619,-5.876 -2.619,-5.231C-2.619,-4.562 -2.713,-3.948 -2.895,-3.387C-3.078,-2.827 -3.35,-2.334 -3.715,-1.909C-4.094,-1.495 -4.568,-1.169 -5.141,-0.932C-5.713,-0.694 -6.375,-0.576 -7.131,-0.576C-8.592,-0.576 -10.006,-0.953 -11.377,-1.708C-12.746,-2.462 -14.568,-3.875 -16.846,-5.944C-17.977,-6.966 -19.066,-8.013 -20.111,-9.085C-20.84,-9.829 -21.598,-10.616 -22.373,-11.425L-22.373,-7.251C-21.928,-6.78 -21.449,-6.277 -20.916,-5.716C-19.576,-4.309 -18.287,-3.035 -17.043,-1.89C-16.291,-1.184 -15.523,-0.515 -14.744,0.119C-13.967,0.751 -13.18,1.293 -12.389,1.742C-11.623,2.181 -10.787,2.526 -9.887,2.776C-8.986,3.024 -8.006,3.149 -6.947,3.149C-4.646,3.149 -2.824,2.432 -1.479,0.995C-0.133,-0.442 0.537,-2.426 0.537,-4.958C0.537,-6.162 0.359,-7.438 0,-8.783" style="fill:rgb(36,24,19);fill-rule:nonzero;"/>
            </g>
            <g transform="matrix(-0.34446,0,0,0.34446,89.3405,17.69)">
                <rect x="-3.055" y="-16.78" width="3.09" height="16.78" style="fill:rgb(36,24,19);"/>
            </g>
            <g transform="matrix(0.34446,0,0,0.34446,93.7069,20.0579)">
                <path d="M0,9.952C-1.5,9.932 -2.832,9.864 -3.982,9.742C-5.357,9.596 -6.496,9.347 -7.396,8.993C-8.346,8.627 -9.061,8.12 -9.541,7.47C-10.023,6.818 -10.262,5.988 -10.262,4.976C-10.262,3.93 -10.008,3.081 -9.506,2.43C-9,1.779 -8.279,1.277 -7.342,0.924C-6.33,0.534 -5.188,0.282 -3.908,0.166C-2.832,0.068 -1.52,0.014 0,-0.002L0,-3.699C-4.336,-3.618 -7.605,-2.928 -9.789,-1.615C-12.111,-0.215 -13.275,1.981 -13.275,4.976C-13.275,7.935 -12.135,10.122 -9.852,11.54C-7.713,12.869 -4.42,13.567 0,13.651L0,9.952Z" style="fill:rgb(36,24,19);fill-rule:nonzero;"/>
            </g>
            <g transform="matrix(0.34446,0,0,0.34446,97.7092,24.0325)">
                <path d="M0,-13.126C-2.125,-14.455 -5.426,-15.154 -9.865,-15.238L-9.865,-11.539C-8.447,-11.52 -7.146,-11.457 -5.979,-11.345C-4.566,-11.212 -3.396,-10.962 -2.473,-10.597C-1.523,-10.22 -0.807,-9.706 -0.328,-9.055C0.152,-8.404 0.395,-7.573 0.395,-6.563C0.395,-5.541 0.152,-4.71 -0.328,-4.069C-0.807,-3.431 -1.512,-2.929 -2.436,-2.564C-3.35,-2.198 -4.494,-1.943 -5.869,-1.797C-7.025,-1.674 -8.365,-1.606 -9.865,-1.587L-9.865,2.112C-5.578,2.03 -2.318,1.342 -0.117,0.03C2.232,-1.371 3.408,-3.568 3.408,-6.563C3.408,-9.52 2.271,-11.708 0,-13.126" style="fill:rgb(36,24,19);fill-rule:nonzero;"/>
            </g>
        </g>
    </g>
</svg>
