<?xml version="1.0" encoding="UTF-8" standalone="no"?>
<!DOCTYPE svg PUBLIC "-//W3C//DTD SVG 1.1//EN" "http://www.w3.org/Graphics/SVG/1.1/DTD/svg11.dtd">
<svg width="100%" height="100%" viewBox="0 0 1060 116" version="1.1" xmlns="http://www.w3.org/2000/svg" xmlns:xlink="http://www.w3.org/1999/xlink" xml:space="preserve" xmlns:serif="http://www.serif.com/" style="fill-rule:evenodd;clip-rule:evenodd;stroke-linejoin:round;stroke-miterlimit:2;">
    <g transform="matrix(1,0,0,1,-2,-2021)">
        <g id="アートボード8" transform="matrix(1,0,0,1,2,-0.944762)">
            <rect x="0" y="2021.94" width="1059.75" height="115.807" style="fill:none;"/>
            <clipPath id="_clip1">
                <rect x="0" y="2021.94" width="1059.75" height="115.807"/>
            </clipPath>
            <g clip-path="url(#_clip1)">
                <g transform="matrix(1,0,0,1,-196.019,-564.65)">
                    <g transform="matrix(1,0,0,1,-9196.72,1374.61)">
                        <path d="M9523.12,1212.93L9392.74,1212.93L9392.74,1328.74L9523.12,1328.74L9523.12,1212.93ZM9416.87,1318.51L9416.87,1307.96L9503.35,1290.39L9503.35,1300.93L9416.87,1318.51ZM9416.87,1303.57L9416.87,1293.02L9493.86,1277.5L9488.59,1274.13L9488.59,1274.57L9416.87,1288.63L9416.87,1283.8L9406.32,1290.39L9406.32,1271.05L9423.55,1260.5L9406.32,1260.5L9406.32,1251.71L9437.78,1251.71L9446.4,1246.44L9408.43,1246.44L9421.09,1223.59L9442.18,1223.59L9434.44,1237.65L9485.95,1237.65L9480.15,1227.11L9501.24,1227.11L9511.79,1246.44L9475.93,1246.44L9467.49,1251.71L9513.9,1251.71L9513.9,1260.5L9494.91,1260.5L9513.9,1272.81L9513.9,1290.39L9494.91,1278.23L9494.91,1287.75L9416.87,1303.57ZM9429.88,1275.59L9476.63,1266.36L9467.49,1260.5L9453.6,1260.5L9429.88,1275.59Z"/>
                    </g>
                    <g transform="matrix(180,0,0,150,332.088,2710.7)">
                        <path d="M0.35,-0.117L0.35,-0.727L0.643,-0.727L0.643,-0.117L0.35,-0.117ZM0.467,-0.668L0.467,-0.176L0.525,-0.176L0.525,-0.668L0.467,-0.668ZM0.021,-0.633L0.021,-0.691L0.085,-0.691L0.092,-0.75L0.209,-0.75L0.202,-0.691L0.338,-0.691L0.338,-0.234C0.338,-0.156 0.307,-0.117 0.244,-0.117L0.174,-0.117L0.174,-0.176C0.205,-0.176 0.221,-0.195 0.221,-0.234L0.221,-0.633L0.196,-0.633L0.139,-0.117L0.021,-0.117L0.079,-0.633L0.021,-0.633Z" style="fill-rule:nonzero;"/>
                    </g>
                    <g transform="matrix(180,0,0,150,462.661,2710.7)">
                        <path d="M0.021,-0.117L0.021,-0.738L0.643,-0.738L0.643,-0.117L0.021,-0.117ZM0.139,-0.176L0.525,-0.176L0.525,-0.68L0.139,-0.68L0.139,-0.176ZM0.15,-0.527L0.15,-0.586L0.361,-0.586L0.361,-0.656L0.467,-0.656L0.467,-0.586L0.514,-0.586L0.514,-0.527L0.467,-0.527L0.467,-0.293C0.467,-0.23 0.436,-0.199 0.373,-0.199L0.303,-0.199L0.303,-0.258L0.326,-0.258C0.35,-0.258 0.361,-0.27 0.361,-0.293L0.361,-0.527L0.15,-0.527ZM0.232,-0.352L0.186,-0.504L0.291,-0.504L0.338,-0.352L0.232,-0.352Z" style="fill-rule:nonzero;"/>
                    </g>
                    <g transform="matrix(180,0,0,150,593.235,2710.7)">
                        <path d="M0.197,-0.117L0.08,-0.117L0.08,-0.437L0.021,-0.316L0.021,-0.469L0.15,-0.75L0.232,-0.75L0.197,-0.678L0.197,-0.117ZM0.484,-0.75L0.484,-0.621L0.643,-0.621L0.643,-0.563L0.492,-0.563L0.643,-0.305L0.643,-0.117L0.484,-0.389L0.484,-0.258L0.549,-0.258L0.549,-0.199L0.484,-0.199L0.484,-0.117L0.367,-0.117L0.367,-0.199L0.303,-0.199L0.303,-0.258L0.367,-0.258L0.367,-0.389L0.209,-0.117L0.209,-0.305L0.359,-0.563L0.209,-0.563L0.209,-0.621L0.367,-0.621L0.367,-0.75L0.484,-0.75Z" style="fill-rule:nonzero;"/>
                    </g>
                    <g transform="matrix(1,0,0,1,-9196.72,1374.61)">
                        <path d="M10043.4,1212.93L9912.99,1212.93L9912.99,1328.74L10043.4,1328.74L10043.4,1212.93ZM9978.18,1228.86L9978.18,1237.65L9971.86,1237.65L9974.49,1246.44L9978.71,1246.44L9982.4,1223.59L10002.4,1223.59L10001.6,1228.86L10032,1228.86L10032,1237.65L10025.6,1237.65L10029.9,1251.71L10009.8,1251.71L10005.6,1237.65L10000.2,1237.65L9998.23,1249.96L9988.73,1249.96L9988.73,1253.47L10029.9,1253.47L10029.9,1272.81L10021.4,1272.81L10021.4,1288.63L9956.04,1288.63L9956.04,1292.14L10025.6,1292.14L10025.6,1318.51L9934.94,1318.51L9934.94,1272.81L9926.51,1272.81L9926.51,1253.47L9967.64,1253.47L9967.64,1251.71L9956.04,1251.71L9951.82,1237.65L9946.37,1237.65L9944.43,1249.96L9924.4,1249.96L9928.61,1223.59L9948.65,1223.59L9947.77,1228.86L9978.18,1228.86ZM9956.04,1309.72L10004.6,1309.72L10004.6,1300.93L9956.04,1300.93L9956.04,1309.72ZM9956.04,1274.57L9956.04,1279.84L10000.3,1279.84L10000.3,1274.57L9956.04,1274.57ZM10008.8,1262.26L9947.6,1262.26L9947.6,1265.78L10008.8,1265.78L10008.8,1262.26Z"/>
                    </g>
                    <g transform="matrix(180,0,0,150,850.164,2710.7)">
                        <path d="M0.221,-0.199L0.021,-0.176L0.021,-0.234L0.063,-0.239L0.063,-0.434L0.021,-0.434L0.021,-0.492L0.063,-0.492L0.063,-0.656L0.021,-0.656L0.021,-0.715L0.221,-0.715L0.221,-0.656L0.18,-0.656L0.18,-0.492L0.221,-0.492L0.221,-0.434L0.18,-0.434L0.18,-0.253L0.221,-0.258L0.221,-0.199ZM0.232,-0.398L0.232,-0.738L0.631,-0.738L0.631,-0.398L0.49,-0.398L0.49,-0.328L0.631,-0.328L0.631,-0.27L0.49,-0.27L0.49,-0.176L0.643,-0.176L0.643,-0.117L0.221,-0.117L0.221,-0.176L0.373,-0.176L0.373,-0.27L0.232,-0.27L0.232,-0.328L0.373,-0.328L0.373,-0.398L0.232,-0.398ZM0.35,-0.598L0.381,-0.598L0.381,-0.68L0.35,-0.68L0.35,-0.598ZM0.35,-0.457L0.381,-0.457L0.381,-0.539L0.35,-0.539L0.35,-0.457ZM0.514,-0.539L0.482,-0.539L0.482,-0.457L0.514,-0.457L0.514,-0.539ZM0.514,-0.68L0.482,-0.68L0.482,-0.598L0.514,-0.598L0.514,-0.68Z" style="fill-rule:nonzero;"/>
                    </g>
                    <g transform="matrix(180,0,0,150,980.386,2710.7)">
                        <path d="M0.352,-0.41L0.27,-0.41L0.27,-0.469C0.316,-0.469 0.34,-0.488 0.34,-0.527L0.34,-0.668L0.023,-0.668L0.023,-0.727L0.457,-0.727L0.457,-0.527C0.457,-0.449 0.422,-0.41 0.352,-0.41ZM0.141,-0.117L0.035,-0.117L0.035,-0.176L0.059,-0.176C0.105,-0.176 0.129,-0.195 0.129,-0.234L0.129,-0.598L0.246,-0.598L0.246,-0.234C0.246,-0.156 0.211,-0.117 0.141,-0.117Z" style="fill-rule:nonzero;"/>
                    </g>
                    <g transform="matrix(180,0,0,150,1077.21,2710.7)">
                        <path d="M0.129,-0.117L0.129,-0.176L0.188,-0.176C0.234,-0.176 0.258,-0.199 0.258,-0.246L0.258,-0.668L0.023,-0.668L0.023,-0.727L0.375,-0.727L0.375,-0.246C0.375,-0.16 0.344,-0.117 0.281,-0.117L0.129,-0.117ZM0.456,-0.653L0.485,-0.687L0.456,-0.72L0.427,-0.687L0.456,-0.653ZM0.456,-0.614L0.388,-0.687L0.456,-0.762L0.524,-0.687L0.456,-0.614Z" style="fill-rule:nonzero;"/>
                    </g>
                    <g transform="matrix(180,0,0,150,1186.16,2710.7)">
                        <path d="M0.281,-0.117L0.047,-0.117L0.047,-0.176L0.199,-0.176C0.246,-0.176 0.27,-0.195 0.27,-0.234L0.27,-0.75L0.387,-0.75L0.387,-0.234C0.387,-0.156 0.352,-0.117 0.281,-0.117ZM0.023,-0.457L0.023,-0.75L0.141,-0.75L0.141,-0.457L0.023,-0.457Z" style="fill-rule:nonzero;"/>
                    </g>
                </g>
            </g>
        </g>
    </g>
</svg>
