<?xml version="1.0" encoding="UTF-8"?>
<svg xmlns="http://www.w3.org/2000/svg" xmlns:xlink="http://www.w3.org/1999/xlink" width="87pt" height="16pt" viewBox="0 0 87 16" version="1.1">
<defs>
<clipPath id="clip1">
  <path d="M 83 0 L 86.6875 0 L 86.6875 13 L 83 13 Z M 83 0 "/>
</clipPath>
<clipPath id="clip2">
  <path d="M 0 13 L 86.6875 13 L 86.6875 15 L 0 15 Z M 0 13 "/>
</clipPath>
<clipPath id="clip3">
  <path d="M 0 14 L 86.6875 14 L 86.6875 15.972656 L 0 15.972656 Z M 0 14 "/>
</clipPath>
</defs>
<g id="surface1">
<path style=" stroke:none;fill-rule:nonzero;fill:rgb(0%,0%,0%);fill-opacity:1;" d="M 6.308594 2.246094 L 6.308594 1.132812 L 10.589844 1.132812 L 10.589844 0 L 14.304688 0 L 14.304688 1.132812 L 18.585938 1.132812 L 18.585938 2.246094 L 14.304688 2.246094 L 14.304688 3.820312 L 18.585938 3.820312 L 14.144531 8.160156 L 18.96875 12.152344 L 14.875 12.152344 L 12.273438 10.003906 L 10.050781 12.152344 L 5.957031 12.152344 L 10.050781 8.179688 L 6.6875 5.394531 L 10.78125 5.394531 L 11.921875 6.335938 L 13.351562 4.953125 L 6.308594 4.953125 L 6.308594 3.820312 L 10.589844 3.820312 L 10.589844 2.246094 Z M 1.105469 12.152344 L 1.105469 6.855469 L -0.0078125 7.199219 L -0.0078125 5.855469 L 1.105469 5.511719 L 1.105469 2.015625 L -0.0078125 2.015625 L -0.0078125 0.902344 L 1.105469 0.902344 L 1.105469 0 L 4.847656 0 L 4.847656 0.902344 L 5.957031 0.902344 L 5.957031 2.015625 L 4.847656 2.015625 L 4.847656 4.394531 L 5.957031 4.050781 L 5.957031 5.394531 L 4.847656 5.742188 L 4.847656 12.152344 Z M 1.105469 12.152344 "/>
<path style=" stroke:none;fill-rule:nonzero;fill:rgb(0%,0%,0%);fill-opacity:1;" d="M 20.269531 3.589844 L 20.269531 2.476562 L 27.316406 2.476562 L 29.1875 0 L 33.28125 0 L 31.410156 2.476562 L 39.246094 2.476562 L 39.246094 3.589844 L 31.789062 3.589844 L 39.625 12.152344 L 35.34375 12.152344 L 29.15625 5.394531 L 23.984375 12.152344 L 19.890625 12.152344 L 26.457031 3.589844 Z M 20.269531 3.589844 "/>
<path style=" stroke:none;fill-rule:nonzero;fill:rgb(0%,0%,0%);fill-opacity:1;" d="M 65.171875 6.632812 L 64.078125 6.632812 C 63.476562 6.632812 63.191406 6.988281 63.191406 7.726562 L 63.191406 11.042969 L 67.167969 11.042969 L 67.167969 12.152344 L 60.96875 12.152344 L 60.96875 7.726562 C 60.96875 6.253906 61.648438 5.519531 62.964844 5.519531 L 64.078125 5.519531 C 64.664062 5.519531 64.945312 5.160156 64.945312 4.425781 L 64.945312 2.429688 C 64.945312 1.695312 64.664062 1.335938 64.078125 1.335938 L 60.96875 1.335938 L 60.96875 0.226562 L 65.171875 0.226562 C 66.492188 0.226562 67.167969 0.960938 67.167969 2.429688 L 67.167969 4.425781 C 67.167969 5.898438 66.492188 6.632812 65.171875 6.632812 Z M 65.171875 6.632812 "/>
<path style=" stroke:none;fill-rule:nonzero;fill:rgb(0%,0%,0%);fill-opacity:1;" d="M 73.125 12.152344 L 70.03125 12.152344 C 68.714844 12.152344 68.035156 11.417969 68.035156 9.949219 L 68.035156 2.429688 C 68.035156 0.960938 68.714844 0.226562 70.03125 0.226562 L 73.125 0.226562 C 74.441406 0.226562 75.101562 0.960938 75.101562 2.429688 L 75.101562 9.949219 C 75.101562 11.417969 74.441406 12.152344 73.125 12.152344 Z M 72.898438 9.949219 L 72.898438 9.496094 L 70.257812 5.519531 L 70.257812 9.949219 C 70.257812 10.683594 70.542969 11.042969 71.144531 11.042969 L 72.011719 11.042969 C 72.613281 11.042969 72.898438 10.683594 72.898438 9.949219 Z M 72.898438 2.429688 C 72.898438 1.695312 72.613281 1.335938 72.011719 1.335938 L 71.144531 1.335938 C 70.542969 1.335938 70.257812 1.695312 70.257812 2.429688 L 70.257812 2.882812 L 72.898438 6.859375 Z M 72.898438 2.429688 "/>
<path style=" stroke:none;fill-rule:nonzero;fill:rgb(0%,0%,0%);fill-opacity:1;" d="M 80.1875 6.632812 L 79.09375 6.632812 C 78.492188 6.632812 78.207031 6.988281 78.207031 7.726562 L 78.207031 11.042969 L 82.183594 11.042969 L 82.183594 12.152344 L 75.984375 12.152344 L 75.984375 7.726562 C 75.984375 6.253906 76.664062 5.519531 77.984375 5.519531 L 79.09375 5.519531 C 79.679688 5.519531 79.960938 5.160156 79.960938 4.425781 L 79.960938 2.429688 C 79.960938 1.695312 79.679688 1.335938 79.09375 1.335938 L 75.984375 1.335938 L 75.984375 0.226562 L 80.1875 0.226562 C 81.507812 0.226562 82.183594 0.960938 82.183594 2.429688 L 82.183594 4.425781 C 82.183594 5.898438 81.507812 6.632812 80.1875 6.632812 Z M 80.1875 6.632812 "/>
<g clip-path="url(#clip1)" clip-rule="nonzero">
<path style=" stroke:none;fill-rule:nonzero;fill:rgb(0%,0%,0%);fill-opacity:1;" d="M 83.050781 1.335938 L 83.050781 0.226562 L 86.59375 0.226562 L 86.59375 12.152344 L 84.390625 12.152344 L 84.390625 1.335938 Z M 83.050781 1.335938 "/>
</g>
<g clip-path="url(#clip2)" clip-rule="nonzero">
<path style="fill:none;stroke-width:1.34;stroke-linecap:square;stroke-linejoin:round;stroke:rgb(0%,0%,0%);stroke-opacity:1;stroke-miterlimit:1.5;" d="M 187.719104 91.629939 L 362.416906 91.629939 " transform="matrix(0.492547,0,0,0.50295,-92.194853,-32.397781)"/>
</g>
<g clip-path="url(#clip3)" clip-rule="nonzero">
<path style="fill:none;stroke-width:2.84;stroke-linecap:square;stroke-linejoin:round;stroke:rgb(0%,0%,0%);stroke-opacity:1;stroke-miterlimit:1.5;" d="M 187.71965 91.629047 L 362.418966 91.629047 " transform="matrix(0.488786,0,0,0.499998,-91.184473,-30.552633)"/>
</g>
<path style=" stroke:none;fill-rule:nonzero;fill:rgb(0%,0%,0%);fill-opacity:1;" d="M 57.84375 6.183594 L 57.84375 7.316406 L 41.089844 7.316406 L 41.089844 6.183594 Z M 39.980469 8.773438 L 39.980469 7.640625 L 58.953125 7.640625 L 58.953125 8.773438 L 51.339844 8.773438 L 51.339844 12.152344 L 47.59375 12.152344 L 47.59375 8.773438 Z M 39.980469 12.152344 L 42.230469 9.003906 L 45.945312 9.003906 L 43.691406 12.152344 Z M 58.953125 12.152344 L 55.242188 12.152344 L 52.988281 9.003906 L 56.730469 9.003906 Z M 39.597656 4.394531 L 40.738281 0 L 44.453125 0 L 44.324219 0.441406 L 49.277344 0.441406 L 49.277344 4.050781 C 49.277344 5.242188 48.292969 5.855469 46.292969 5.855469 L 40.359375 5.855469 L 40.359375 4.722656 L 44.453125 4.722656 C 44.898438 4.722656 45.183594 4.644531 45.371094 4.492188 L 43.4375 4.070312 L 43.34375 4.394531 Z M 49.277344 5.855469 L 51.71875 3.378906 L 49.65625 2.707031 L 49.65625 1.34375 L 52.765625 2.363281 L 53.75 1.34375 L 49.65625 1.34375 L 49.65625 0.230469 L 58.953125 0.230469 L 55.84375 3.359375 L 59.335938 4.492188 L 59.335938 5.855469 L 54.828125 4.394531 L 53.367188 5.855469 Z M 44.039062 1.574219 L 43.976562 1.824219 L 45.5625 2.167969 L 45.5625 1.574219 Z M 43.722656 2.804688 L 43.660156 3.109375 L 45.5625 3.53125 L 45.5625 3.1875 Z M 43.722656 2.804688 "/>
</g>
</svg>
