<?xml version="1.0" encoding="UTF-8" standalone="no"?>
<!DOCTYPE svg PUBLIC "-//W3C//DTD SVG 1.1//EN" "http://www.w3.org/Graphics/SVG/1.1/DTD/svg11.dtd">
<svg width="100%" height="100%" viewBox="0 0 856 655" version="1.1" xmlns="http://www.w3.org/2000/svg" xmlns:xlink="http://www.w3.org/1999/xlink" xml:space="preserve" xmlns:serif="http://www.serif.com/" style="fill-rule:evenodd;clip-rule:evenodd;stroke-linejoin:round;stroke-miterlimit:2;">
    <g transform="matrix(1,0,0,1,-1284,-773)">
        <g id="アートボード10" transform="matrix(1,0,0,1,0,-0.719614)">
            <rect x="1284" y="773.72" width="855.851" height="654.437" style="fill:none;"/>
            <clipPath id="_clip1">
                <rect x="1284" y="773.72" width="855.851" height="654.437"/>
            </clipPath>
            <g clip-path="url(#_clip1)">
                <g transform="matrix(1,0,0,1,-1647,602.035)">
                    <g transform="matrix(3.23226,0,0,2.57082,2877.52,-711.847)">
                        <g transform="matrix(91.6159,0,0,115.187,14.3711,612.018)">
                            <path d="M0.033,-0.68L0.033,-0.738L0.525,-0.738L0.525,-0.586C0.525,-0.555 0.541,-0.539 0.573,-0.539L0.631,-0.539L0.631,-0.48L0.514,-0.48C0.443,-0.48 0.408,-0.516 0.408,-0.586L0.408,-0.68L0.361,-0.68L0.361,-0.457L0.525,-0.457L0.525,-0.223C0.525,-0.191 0.541,-0.176 0.573,-0.176L0.631,-0.176L0.631,-0.117L0.514,-0.117C0.443,-0.117 0.408,-0.152 0.408,-0.223L0.408,-0.398L0.361,-0.398L0.361,-0.117L0.244,-0.117L0.244,-0.398L0.197,-0.398L0.197,-0.223C0.197,-0.152 0.162,-0.117 0.092,-0.117L0.033,-0.117L0.033,-0.176L0.045,-0.176C0.068,-0.176 0.08,-0.188 0.08,-0.211L0.08,-0.398L0.033,-0.398L0.033,-0.457L0.08,-0.457L0.08,-0.529L0.033,-0.516L0.033,-0.574L0.232,-0.633L0.232,-0.574L0.197,-0.563L0.197,-0.457L0.244,-0.457L0.244,-0.68L0.033,-0.68ZM0.537,-0.668L0.537,-0.727L0.631,-0.75L0.631,-0.691L0.537,-0.668ZM0.537,-0.633L0.631,-0.609L0.631,-0.551L0.537,-0.574L0.537,-0.633ZM0.537,-0.34L0.537,-0.41L0.631,-0.469L0.631,-0.398L0.537,-0.34ZM0.537,-0.316L0.631,-0.258L0.631,-0.188L0.537,-0.246L0.537,-0.316Z" style="fill-rule:nonzero;"/>
                        </g>
                        <g transform="matrix(91.6159,0,0,115.187,75.2248,612.018)">
                            <path d="M0.256,-0.68L0.256,-0.738L0.443,-0.738L0.443,-0.211C0.443,-0.148 0.412,-0.117 0.35,-0.117L0.303,-0.117L0.303,-0.176C0.326,-0.176 0.338,-0.188 0.338,-0.211L0.338,-0.68L0.256,-0.68ZM0.256,-0.363L0.326,-0.492L0.326,-0.375L0.256,-0.246L0.256,-0.363ZM0.021,-0.598L0.021,-0.656L0.045,-0.656L0.033,-0.75L0.115,-0.75L0.127,-0.656L0.139,-0.656L0.15,-0.75L0.232,-0.75L0.221,-0.656L0.244,-0.656L0.244,-0.598L0.186,-0.598L0.186,-0.516L0.232,-0.516L0.232,-0.457L0.186,-0.457L0.186,-0.386L0.244,-0.398L0.244,-0.34L0.186,-0.327L0.127,-0.117L0.021,-0.117L0.073,-0.304L0.021,-0.293L0.021,-0.352L0.08,-0.364L0.08,-0.457L0.033,-0.457L0.033,-0.516L0.08,-0.516L0.08,-0.598L0.021,-0.598ZM0.256,-0.574L0.256,-0.656L0.326,-0.586L0.326,-0.504L0.256,-0.574ZM0.455,-0.363L0.525,-0.492L0.525,-0.375L0.455,-0.246L0.455,-0.363ZM0.455,-0.574L0.455,-0.656L0.525,-0.586L0.525,-0.504L0.455,-0.574ZM0.455,-0.68L0.455,-0.738L0.643,-0.738L0.643,-0.211C0.643,-0.148 0.611,-0.117 0.549,-0.117L0.502,-0.117L0.502,-0.176C0.525,-0.176 0.537,-0.188 0.537,-0.211L0.537,-0.68L0.455,-0.68Z" style="fill-rule:nonzero;"/>
                        </g>
                        <g transform="matrix(91.6159,0,0,115.187,136.079,612.018)">
                            <path d="M0.328,-0.117L0.328,-0.176C0.359,-0.176 0.375,-0.195 0.375,-0.234L0.375,-0.609C0.375,-0.648 0.355,-0.668 0.316,-0.668L0.305,-0.668L0.305,-0.117L0.129,-0.117C0.059,-0.117 0.023,-0.156 0.023,-0.234L0.023,-0.609C0.023,-0.688 0.059,-0.727 0.129,-0.727L0.387,-0.727C0.457,-0.727 0.492,-0.688 0.492,-0.609L0.492,-0.234C0.492,-0.156 0.457,-0.117 0.387,-0.117L0.328,-0.117ZM0.188,-0.668C0.156,-0.668 0.141,-0.648 0.141,-0.609L0.141,-0.234C0.141,-0.195 0.156,-0.176 0.188,-0.176L0.188,-0.668Z" style="fill-rule:nonzero;"/>
                        </g>
                        <g transform="matrix(91.6159,0,0,115.187,183.333,612.018)">
                            <path d="M0.023,-0.117L0.023,-0.75L0.141,-0.75L0.141,-0.527L0.41,-0.527L0.41,-0.469L0.141,-0.469L0.141,-0.117L0.023,-0.117Z" style="fill-rule:nonzero;"/>
                        </g>
                        <g transform="matrix(91.6159,0,0,115.187,223.072,612.018)">
                            <path d="M0.023,-0.41L0.023,-0.469L0.219,-0.469L0.2,-0.633L0.059,-0.633L0.059,-0.691L0.194,-0.691L0.188,-0.75L0.305,-0.75L0.312,-0.691L0.457,-0.691L0.457,-0.633L0.317,-0.633L0.336,-0.469L0.492,-0.469L0.492,-0.41L0.343,-0.41L0.375,-0.117L0.258,-0.117L0.226,-0.41L0.023,-0.41Z" style="fill-rule:nonzero;"/>
                        </g>
                    </g>
                    <g transform="matrix(3.23226,0,0,3.23226,3062.56,282.149)">
                        <path d="M0,-13.717L-17.521,-13.717L-17.521,-18.438C-17.521,-21.414 -17.688,-23.278 -18.022,-24.028C-18.355,-24.778 -19.145,-25.153 -20.394,-25.153C-21.476,-25.153 -22.211,-24.83 -22.6,-24.188C-22.988,-23.545 -23.183,-21.897 -23.183,-19.24L-23.183,5.717C-23.183,8.051 -22.988,9.586 -22.6,10.324C-22.211,11.064 -21.435,11.433 -20.27,11.433C-18.993,11.433 -18.126,11.015 -17.667,10.181C-17.209,9.347 -16.98,7.719 -16.98,5.299L-16.98,-0.867L-20.518,-0.867L-20.518,-8.77L0,-8.77L0,19.142L-11.011,19.142L-12.631,15.418C-13.826,17.021 -15.333,18.226 -17.15,19.029C-18.969,19.832 -21.114,20.236 -23.586,20.236C-26.529,20.236 -29.285,19.681 -31.853,18.58C-34.422,17.476 -36.372,16.113 -37.705,14.484C-39.039,12.859 -39.872,11.148 -40.205,9.361C-40.537,7.574 -40.704,4.892 -40.704,1.316L-40.704,-14.133C-40.704,-19.102 -40.357,-22.711 -39.664,-24.959C-38.97,-27.207 -36.979,-29.27 -33.692,-31.145C-30.403,-33.018 -26.151,-33.953 -20.935,-33.953C-15.801,-33.953 -11.543,-33.139 -8.158,-31.512C-4.772,-29.885 -2.566,-27.953 -1.54,-25.715C-0.513,-23.477 0,-20.227 0,-15.965L0,-13.717Z" style="fill-rule:nonzero;"/>
                    </g>
                    <g transform="matrix(3.23226,0,0,3.23226,3067.14,545.225)">
                        <path d="M0,-50.844L0,0L-11.557,0L-11.572,-34.324L-16.173,0L-24.369,0L-29.221,-33.541L-29.237,0L-40.793,0L-40.793,-50.844L-23.687,-50.844C-23.179,-47.787 -22.656,-44.186 -22.117,-40.035L-20.24,-27.102L-17.202,-50.844L0,-50.844Z" style="fill-rule:nonzero;"/>
                    </g>
                    <g transform="matrix(3.23226,0,0,3.23226,3124.85,418.101)">
                        <path d="M0,1.142C-1.137,1.974 -1.796,2.671 -1.978,3.234C-2.159,3.796 -2.25,4.605 -2.25,5.66C-2.25,6.867 -2.171,7.646 -2.013,7.997C-1.854,8.349 -1.541,8.525 -1.072,8.525C-0.627,8.525 -0.337,8.386 -0.202,8.111C-0.067,7.835 0,7.113 0,5.941L0,1.142ZM-2.25,-2.057L-8.912,-2.057L-8.912,-3.622C-8.912,-5.426 -8.704,-6.819 -8.288,-7.797C-7.872,-8.776 -7.037,-9.639 -5.783,-10.389C-4.529,-11.139 -2.9,-11.514 -0.896,-11.514C1.506,-11.514 3.316,-11.09 4.535,-10.241C5.754,-9.391 6.486,-8.348 6.732,-7.112C6.979,-5.876 7.102,-3.329 7.102,0.527L7.102,12.234L0.193,12.234L0.193,10.154C-0.24,10.988 -0.8,11.613 -1.485,12.031C-2.171,12.447 -2.988,12.656 -3.938,12.656C-5.18,12.656 -6.319,12.306 -7.356,11.609C-8.394,10.912 -8.912,9.386 -8.912,7.031L-8.912,5.115C-8.912,3.369 -8.637,2.179 -8.086,1.546C-7.535,0.913 -6.17,0.175 -3.99,-0.669C-1.658,-1.583 -0.41,-2.198 -0.246,-2.514C-0.082,-2.831 0,-3.475 0,-4.448C0,-5.667 -0.091,-6.462 -0.272,-6.831C-0.454,-7.2 -0.756,-7.383 -1.178,-7.383C-1.658,-7.383 -1.957,-7.229 -2.074,-6.919C-2.191,-6.608 -2.25,-5.801 -2.25,-4.501L-2.25,-2.057Z" style="fill-rule:nonzero;"/>
                    </g>
                    <g transform="matrix(3.23226,0,0,3.23226,3179.06,456.279)">
                        <path d="M0,-22.904L-0.123,-20.756C0.393,-21.613 1.022,-22.256 1.767,-22.683C2.511,-23.111 3.369,-23.326 4.342,-23.326C5.561,-23.326 6.557,-23.039 7.33,-22.465C8.104,-21.89 8.602,-21.168 8.824,-20.295C9.047,-19.422 9.158,-17.965 9.158,-15.925L9.158,0.422L2.057,0.422L2.057,-15.732C2.057,-17.338 2.004,-18.316 1.898,-18.668C1.793,-19.019 1.5,-19.195 1.02,-19.195C0.516,-19.195 0.199,-18.994 0.07,-18.59C-0.059,-18.185 -0.123,-17.103 -0.123,-15.345L-0.123,0.422L-7.225,0.422L-7.225,-22.904L0,-22.904Z" style="fill-rule:nonzero;"/>
                    </g>
                    <g transform="matrix(3.23226,0,0,3.23226,3244.34,418.101)">
                        <path d="M0,1.142C-1.137,1.974 -1.796,2.671 -1.978,3.234C-2.159,3.796 -2.25,4.605 -2.25,5.66C-2.25,6.867 -2.171,7.646 -2.013,7.997C-1.854,8.349 -1.541,8.525 -1.072,8.525C-0.627,8.525 -0.337,8.386 -0.202,8.111C-0.067,7.835 0,7.113 0,5.941L0,1.142ZM-2.25,-2.057L-8.912,-2.057L-8.912,-3.622C-8.912,-5.426 -8.704,-6.819 -8.288,-7.797C-7.872,-8.776 -7.037,-9.639 -5.783,-10.389C-4.529,-11.139 -2.9,-11.514 -0.896,-11.514C1.506,-11.514 3.317,-11.09 4.536,-10.241C5.754,-9.391 6.487,-8.348 6.733,-7.112C6.979,-5.876 7.102,-3.329 7.102,0.527L7.102,12.234L0.193,12.234L0.193,10.154C-0.24,10.988 -0.8,11.613 -1.485,12.031C-2.171,12.447 -2.988,12.656 -3.938,12.656C-5.18,12.656 -6.319,12.306 -7.356,11.609C-8.394,10.912 -8.912,9.386 -8.912,7.031L-8.912,5.115C-8.912,3.369 -8.637,2.179 -8.086,1.546C-7.535,0.913 -6.17,0.175 -3.99,-0.669C-1.658,-1.583 -0.41,-2.198 -0.246,-2.514C-0.082,-2.831 0,-3.475 0,-4.448C0,-5.667 -0.091,-6.462 -0.272,-6.831C-0.454,-7.2 -0.756,-7.383 -1.178,-7.383C-1.658,-7.383 -1.957,-7.229 -2.074,-6.919C-2.191,-6.608 -2.25,-5.801 -2.25,-4.501L-2.25,-2.057Z" style="fill-rule:nonzero;"/>
                    </g>
                    <g transform="matrix(3.23226,0,0,3.23226,3304.34,449.293)">
                        <path d="M0,-14.555C0,-15.621 -0.063,-16.301 -0.186,-16.594C-0.309,-16.887 -0.58,-17.034 -1.002,-17.034C-1.412,-17.034 -1.703,-16.868 -1.873,-16.534C-2.043,-16.2 -2.127,-15.539 -2.127,-14.555L-2.127,-6.715C-2.127,-5.672 -2.063,-4.996 -1.934,-4.686C-1.805,-4.375 -1.535,-4.219 -1.125,-4.219C-0.656,-4.219 -0.352,-4.407 -0.211,-4.782C-0.07,-5.157 0,-6.006 0,-7.33L0,-14.555ZM7.119,-20.743L7.119,-2.778C7.119,-0.352 7.063,1.215 6.951,1.924C6.84,2.633 6.445,3.383 5.766,4.174C5.086,4.965 4.139,5.568 2.926,5.984C1.713,6.4 0.188,6.609 -1.652,6.609C-3.914,6.609 -5.73,6.224 -7.102,5.457C-8.473,4.689 -9.182,3.181 -9.229,0.931L-2.338,0.931C-2.338,1.963 -1.963,2.478 -1.213,2.478C-0.674,2.478 -0.316,2.32 -0.141,2.002C0.035,1.685 0.123,1.023 0.123,0.013L0.123,-1.744C-0.486,-1.194 -1.129,-0.776 -1.803,-0.494C-2.477,-0.211 -3.182,-0.071 -3.92,-0.071C-5.197,-0.071 -6.25,-0.328 -7.076,-0.844C-7.902,-1.36 -8.467,-2.037 -8.771,-2.875C-9.076,-3.713 -9.229,-4.905 -9.229,-6.451L-9.229,-14.924C-9.229,-17.139 -8.83,-18.733 -8.033,-19.705C-7.236,-20.678 -6.023,-21.164 -4.395,-21.164C-3.504,-21.164 -2.693,-20.983 -1.961,-20.619C-1.229,-20.254 -0.574,-19.709 0,-18.981L0.51,-20.743L7.119,-20.743Z" style="fill-rule:nonzero;"/>
                    </g>
                    <g transform="matrix(3.23226,0,0,3.23226,3364.51,430.884)">
                        <path d="M0,-6.768L0,-8.473C0,-9.68 -0.064,-10.459 -0.193,-10.811C-0.322,-11.163 -0.586,-11.338 -0.984,-11.338C-1.477,-11.338 -1.781,-11.19 -1.898,-10.891C-2.016,-10.592 -2.074,-9.786 -2.074,-8.473L-2.074,-6.768L0,-6.768ZM7.119,-2.971L-2.074,-2.971L-2.074,2.074C-2.074,3.128 -1.998,3.808 -1.846,4.113C-1.693,4.418 -1.4,4.57 -0.967,4.57C-0.428,4.57 -0.068,4.367 0.113,3.962C0.295,3.558 0.387,2.777 0.387,1.617L0.387,-1.459L7.119,-1.459L7.119,0.263C7.119,1.705 7.027,2.812 6.846,3.586C6.664,4.359 6.24,5.185 5.572,6.064C4.904,6.943 4.057,7.601 3.031,8.041C2.006,8.48 0.721,8.701 -0.826,8.701C-2.326,8.701 -3.65,8.484 -4.799,8.05C-5.947,7.617 -6.842,7.021 -7.48,6.265C-8.119,5.509 -8.561,4.677 -8.807,3.769C-9.053,2.861 -9.176,1.541 -9.176,-0.194L-9.176,-6.997C-9.176,-9.036 -8.9,-10.645 -8.35,-11.823C-7.799,-13 -6.896,-13.903 -5.643,-14.53C-4.389,-15.157 -2.947,-15.469 -1.318,-15.469C0.674,-15.469 2.316,-15.092 3.611,-14.336C4.906,-13.581 5.814,-12.579 6.336,-11.331C6.857,-10.082 7.119,-8.327 7.119,-6.065L7.119,-2.971Z" style="fill-rule:nonzero;"/>
                    </g>
                    <g transform="matrix(3.23226,0,0,3.23226,3417.97,456.279)">
                        <path d="M0,-22.904L-0.281,-19.838C0.75,-22.033 2.244,-23.197 4.201,-23.326L4.201,-15.117C2.9,-15.117 1.945,-14.941 1.336,-14.59C0.727,-14.238 0.352,-13.75 0.211,-13.123C0.07,-12.496 0,-11.05 0,-8.789L0,0.422L-7.102,0.422L-7.102,-22.904L0,-22.904Z" style="fill-rule:nonzero;"/>
                    </g>
                    <g transform="matrix(-3.23226,0,0,3.23226,3653.37,95.2203)">
                        <rect x="68.704" y="117.498" width="102.625" height="7.75"/>
                    </g>
                    <g transform="matrix(3.23226,0,0,3.23226,3121.26,254.263)">
                        <path d="M0,-22.904L-0.281,-19.838C0.75,-22.033 2.244,-23.197 4.201,-23.326L4.201,-15.117C2.9,-15.117 1.945,-14.941 1.336,-14.59C0.727,-14.238 0.352,-13.75 0.211,-13.123C0.07,-12.496 0,-11.05 0,-8.789L0,0.422L-7.102,0.422L-7.102,-22.904L0,-22.904Z" style="fill-rule:nonzero;"/>
                    </g>
                    <g transform="matrix(3.23226,0,0,3.23226,3168.93,234.832)">
                        <path d="M0,-10.459C0,-11.654 -0.064,-12.408 -0.193,-12.719C-0.322,-13.029 -0.598,-13.184 -1.02,-13.184C-1.441,-13.184 -1.723,-13.029 -1.863,-12.719C-2.004,-12.408 -2.074,-11.654 -2.074,-10.459L-2.074,0.07C-2.074,1.172 -2.004,1.889 -1.863,2.223C-1.723,2.557 -1.447,2.725 -1.037,2.725C-0.615,2.725 -0.337,2.572 -0.202,2.268C-0.067,1.963 0,1.307 0,0.299L0,-10.459ZM7.102,-8.701L7.102,-2.988C7.102,-0.891 6.996,0.646 6.785,1.625C6.574,2.604 6.123,3.518 5.432,4.367C4.74,5.217 3.853,5.844 2.769,6.248C1.685,6.652 0.439,6.855 -0.967,6.855C-2.537,6.855 -3.867,6.682 -4.957,6.336C-6.047,5.99 -6.894,5.469 -7.497,4.771C-8.101,4.074 -8.531,3.23 -8.789,2.24C-9.047,1.25 -9.176,-0.234 -9.176,-2.215L-9.176,-8.191C-9.176,-10.359 -8.941,-12.053 -8.473,-13.272C-8.004,-14.49 -7.16,-15.469 -5.941,-16.207C-4.723,-16.945 -3.164,-17.314 -1.266,-17.314C0.328,-17.314 1.696,-17.078 2.839,-16.604C3.981,-16.129 4.863,-15.51 5.484,-14.748C6.105,-13.986 6.53,-13.201 6.759,-12.393C6.987,-11.584 7.102,-10.354 7.102,-8.701" style="fill-rule:nonzero;"/>
                    </g>
                    <g transform="matrix(3.23226,0,0,3.23226,3252,255.627)">
                        <path d="M0,-23.748L0,-0.422L-7.225,-0.422L-7.102,-2.361C-7.594,-1.574 -8.2,-0.984 -8.921,-0.59C-9.642,-0.197 -10.471,0 -11.408,0C-12.475,0 -13.359,-0.187 -14.063,-0.562C-14.766,-0.937 -15.284,-1.435 -15.618,-2.057C-15.952,-2.678 -16.16,-3.326 -16.242,-4C-16.324,-4.674 -16.365,-6.012 -16.365,-8.016L-16.365,-23.748L-9.264,-23.748L-9.264,-7.875C-9.264,-6.059 -9.208,-4.98 -9.097,-4.641C-8.985,-4.301 -8.684,-4.131 -8.191,-4.131C-7.664,-4.131 -7.351,-4.307 -7.251,-4.658C-7.151,-5.01 -7.102,-6.141 -7.102,-8.051L-7.102,-23.748L0,-23.748Z" style="fill-rule:nonzero;"/>
                    </g>
                    <g transform="matrix(3.23226,0,0,3.23226,3290.12,243.07)">
                        <path d="M0,-12.656C0,-14.097 -0.053,-14.97 -0.158,-15.275C-0.264,-15.58 -0.557,-15.732 -1.037,-15.732C-1.506,-15.732 -1.808,-15.556 -1.942,-15.205C-2.077,-14.853 -2.145,-14.004 -2.145,-12.656L-2.145,-2.988C-2.145,-1.582 -2.074,-0.703 -1.934,-0.351C-1.793,0 -1.488,0.176 -1.02,0.176C-0.563,0.176 -0.278,0.014 -0.167,-0.308C-0.056,-0.631 0,-1.412 0,-2.654L0,-12.656ZM-2.021,-19.441L-2.145,-17.381C-1.512,-18.215 -0.814,-18.836 -0.053,-19.248C0.709,-19.658 1.541,-19.863 2.443,-19.863C3.545,-19.863 4.497,-19.568 5.3,-18.976C6.103,-18.385 6.604,-17.701 6.803,-16.927C7.002,-16.154 7.102,-14.842 7.102,-12.99L7.102,-3.164C7.102,-1.043 6.976,0.465 6.724,1.362C6.472,2.258 5.956,2.973 5.177,3.506C4.397,4.039 3.457,4.307 2.355,4.307C1.477,4.307 0.662,4.102 -0.088,3.69C-0.838,3.28 -1.523,2.668 -2.145,1.858L-2.145,7.207L-9.246,7.207L-9.246,-19.441L-2.021,-19.441Z" style="fill-rule:nonzero;"/>
                    </g>
                    <g transform="matrix(-3.23226,0,0,3.23226,3529.92,-308.812)">
                        <rect x="67.608" y="179.998" width="66.625" height="7.75"/>
                    </g>
                    <g transform="matrix(-3.23226,0,0,3.23226,3847.31,308.55)">
                        <rect x="18.704" y="84.498" width="262.625" height="7.75"/>
                    </g>
                </g>
            </g>
        </g>
    </g>
</svg>
